<svg width="18" height="16" viewBox="0 0 18 16" fill="none" xmlns="http://www.w3.org/2000/svg">
<path d="M0.0170898 4.97651C0.0464336 4.87067 0.0722617 4.7637 0.105684 4.65917C0.291496 4.07783 0.671605 3.67301 1.22604 3.42791C2.33689 2.9368 3.44778 2.44573 4.55862 1.95453C5.66412 1.46572 6.7715 0.98117 7.87423 0.486264C8.46359 0.221748 9.04451 0.211155 9.63659 0.473608C11.852 1.45555 14.0699 2.43162 16.2853 3.4137C17.115 3.78148 17.525 4.4285 17.5251 5.33651C17.5255 7.74444 17.5259 10.1524 17.5232 12.5603C17.5231 12.6751 17.5495 12.7426 17.6561 12.8091C18.0936 13.0822 18.0921 13.7094 17.6531 13.9807C17.5443 14.048 17.517 14.1176 17.5233 14.2321C17.5313 14.3781 17.5288 14.525 17.5239 14.6713C17.5105 15.07 17.1996 15.3669 16.8079 15.3594C16.4247 15.3521 16.1299 15.0525 16.1227 14.6587C16.119 14.4598 16.122 14.2609 16.122 14.0673C15.7279 13.821 15.5732 13.5314 15.7044 13.1976C15.7662 13.0406 15.9181 12.9196 16.0269 12.7805C16.0621 12.7355 16.1177 12.6851 16.1177 12.637C16.1209 10.8268 16.1187 9.01667 16.117 7.2065C16.117 7.20092 16.1135 7.19539 16.1049 7.16928C15.8113 7.298 15.5252 7.44298 15.2253 7.54869C14.9923 7.63081 14.8985 7.74931 14.9237 8.00478C14.9516 8.28908 14.9317 8.5783 14.9296 8.86536C14.9264 9.29005 14.623 9.60673 14.2251 9.60406C13.8276 9.60139 13.5304 9.28447 13.5268 8.85795C13.5253 8.68306 13.5266 8.50817 13.5266 8.30867C13.2537 8.42825 12.9984 8.53944 12.7437 8.65189C11.718 9.1047 10.6905 9.55316 9.66795 10.0128C9.05918 10.2865 8.46504 10.2793 7.85679 10.0056C6.63743 9.45683 5.41165 8.92236 4.1885 8.38203C4.14115 8.36112 4.09348 8.34092 4.02678 8.31214C4.02251 8.37983 4.01614 8.43439 4.01614 8.4889C4.01553 9.5083 4.01562 10.5277 4.01576 11.5471C4.01586 12.1444 4.28928 12.5635 4.83926 12.7929C5.86311 13.22 6.88897 13.6422 7.91417 14.0659C7.95631 14.0833 8.00061 14.0955 8.06872 14.1185C8.06872 14.04 8.06867 13.9776 8.06872 13.9152C8.06914 13.4231 8.06178 12.9308 8.07261 12.4389C8.08095 12.0601 8.32981 11.7943 8.69117 11.7463C9.01132 11.7039 9.32698 11.8977 9.42846 12.214C9.46165 12.3174 9.46925 12.4324 9.47032 12.5422C9.47473 12.9992 9.4722 13.4562 9.47225 13.9131C9.47225 13.9759 9.47225 14.0386 9.47225 14.1284C9.88512 13.9588 10.2717 13.8008 10.6578 13.6414C11.3216 13.3674 11.9833 13.0883 12.6493 12.8198C12.9958 12.68 13.2532 12.4563 13.422 12.1192C13.6096 11.7446 14.0146 11.6108 14.3707 11.7902C14.7221 11.9672 14.8534 12.3758 14.6717 12.752C14.3831 13.3496 13.9401 13.796 13.3279 14.0535C12.1332 14.5561 10.9368 15.0552 9.73432 15.5388C9.06481 15.808 8.3862 15.7818 7.7187 15.5058C6.57486 15.0329 5.42571 14.5724 4.2889 14.0832C3.19765 13.6136 2.63093 12.7633 2.61579 11.5727C2.59995 10.3309 2.61026 9.08867 2.61523 7.84667C2.61575 7.72151 2.57679 7.66198 2.46232 7.61422C2.07439 7.45236 1.69325 7.27423 1.30643 7.10961C0.616059 6.81584 0.175527 6.31995 0.0431992 5.56841C0.0392617 5.54609 0.0260429 5.52537 0.0171367 5.50395C0.0170898 5.32808 0.0170898 5.1523 0.0170898 4.97651ZM8.76767 8.8303C8.86498 8.80086 8.963 8.78197 9.05206 8.74273C11.2851 7.75845 13.5171 6.77173 15.7497 5.78642C15.9881 5.68119 16.1212 5.50203 16.1182 5.24136C16.1153 4.98819 15.9813 4.81569 15.7501 4.71359C13.5178 3.72734 11.2859 2.74039 9.05436 1.75259C8.86062 1.66686 8.67528 1.66869 8.48042 1.75751C8.01832 1.96826 7.55187 2.16945 7.08725 2.37467C5.33562 3.14834 3.58268 3.91906 1.8349 4.70136C1.69601 4.76351 1.55426 4.88403 1.48095 5.01509C1.31806 5.30633 1.46862 5.64115 1.79989 5.78773C4.03151 6.77525 6.26375 7.7614 8.49659 8.74611C8.58054 8.78314 8.6727 8.80133 8.76767 8.8303Z" fill="white"/>
</svg>
