<svg width="18" height="18" viewBox="0 0 18 18" fill="none" xmlns="http://www.w3.org/2000/svg">
<path d="M0.0168457 5.97651C0.0461895 5.87067 0.0720176 5.7637 0.105439 5.65917C0.291252 5.07783 0.671361 4.67301 1.2258 4.42791C2.33664 3.9368 3.44753 3.44573 4.55838 2.95453C5.66388 2.46572 6.77125 1.98117 7.87399 1.48626C8.46335 1.22175 9.04427 1.21115 9.63635 1.47361C11.8518 2.45555 14.0697 3.43162 16.285 4.4137C17.1148 4.78148 17.5248 5.4285 17.5249 6.33651C17.5252 8.74444 17.5257 11.1524 17.523 13.5603C17.5228 13.6751 17.5493 13.7426 17.6559 13.8091C18.0934 14.0822 18.0919 14.7094 17.6529 14.9807C17.5441 15.048 17.5168 15.1176 17.5231 15.2321C17.531 15.3781 17.5286 15.525 17.5237 15.6713C17.5102 16.07 17.1993 16.3669 16.8077 16.3594C16.4244 16.3521 16.1297 16.0525 16.1224 15.6587C16.1188 15.4598 16.1218 15.2609 16.1218 15.0673C15.7276 14.821 15.5729 14.5314 15.7042 14.1976C15.7659 14.0406 15.9178 13.9196 16.0266 13.7805C16.0618 13.7355 16.1174 13.6851 16.1175 13.637C16.1207 11.8268 16.1185 10.0167 16.1168 8.2065C16.1168 8.20092 16.1133 8.19539 16.1047 8.16928C15.8111 8.298 15.5249 8.44298 15.225 8.54869C14.992 8.63081 14.8983 8.74931 14.9234 9.00478C14.9514 9.28908 14.9315 9.5783 14.9293 9.86536C14.9261 10.29 14.6228 10.6067 14.2248 10.6041C13.8273 10.6014 13.5302 10.2845 13.5265 9.85795C13.5251 9.68306 13.5263 9.50817 13.5263 9.30867C13.2534 9.42825 12.9981 9.53944 12.7434 9.65189C11.7178 10.1047 10.6902 10.5532 9.66771 11.0128C9.05894 11.2865 8.4648 11.2793 7.85655 11.0056C6.63719 10.4568 5.41141 9.92236 4.18825 9.38203C4.14091 9.36112 4.09324 9.34092 4.02653 9.31214C4.02227 9.37983 4.01589 9.43439 4.01589 9.4889C4.01528 10.5083 4.01538 11.5277 4.01552 12.5471C4.01561 13.1444 4.28903 13.5635 4.83902 13.7929C5.86286 14.22 6.88872 14.6422 7.91392 15.0659C7.95606 15.0833 8.00036 15.0955 8.06847 15.1185C8.06847 15.04 8.06842 14.9776 8.06847 14.9152C8.06889 14.4231 8.06153 13.9308 8.07236 13.4389C8.08071 13.0601 8.32956 12.7943 8.69092 12.7463C9.01108 12.7039 9.32674 12.8977 9.42822 13.214C9.46141 13.3174 9.469 13.4324 9.47008 13.5422C9.47449 13.9992 9.47196 14.4562 9.472 14.9131C9.472 14.9759 9.472 15.0386 9.472 15.1284C9.88488 14.9588 10.2715 14.8008 10.6575 14.6414C11.3213 14.3674 11.983 14.0883 12.649 13.8198C12.9956 13.68 13.253 13.4563 13.4217 13.1192C13.6094 12.7446 14.0143 12.6108 14.3705 12.7902C14.7219 12.9672 14.8531 13.3758 14.6714 13.752C14.3828 14.3496 13.9399 14.796 13.3276 15.0535C12.1329 15.5561 10.9366 16.0552 9.73408 16.5388C9.06456 16.808 8.38595 16.7818 7.71845 16.5058C6.57461 16.0329 5.42547 15.5724 4.28866 15.0832C3.19741 14.6136 2.63069 13.7633 2.61555 12.5727C2.59971 11.3309 2.61002 10.0887 2.61499 8.84667C2.6155 8.72151 2.57655 8.66198 2.46208 8.61422C2.07414 8.45236 1.693 8.27423 1.30619 8.10961C0.615815 7.81584 0.175283 7.31995 0.042955 6.56841C0.0390175 6.54609 0.0257988 6.52537 0.0168926 6.50395C0.0168457 6.32808 0.0168457 6.1523 0.0168457 5.97651ZM8.76742 9.8303C8.86474 9.80086 8.96275 9.78197 9.05182 9.74273C11.2848 8.75845 13.5168 7.77173 15.7494 6.78642C15.9879 6.68119 16.121 6.50203 16.118 6.24136C16.115 5.98819 15.981 5.81569 15.7499 5.71359C13.5176 4.72734 11.2856 3.74039 9.05411 2.75259C8.86038 2.66686 8.67503 2.66869 8.48017 2.75751C8.01808 2.96826 7.55163 3.16945 7.087 3.37467C5.33538 4.14834 3.58244 4.91906 1.83466 5.70136C1.69577 5.76351 1.55402 5.88403 1.4807 6.01509C1.31781 6.30633 1.46838 6.64115 1.79964 6.78773C4.03127 7.77525 6.2635 8.7614 8.49635 9.74611C8.5803 9.78314 8.67246 9.80133 8.76742 9.8303Z" fill="#2C2A26" fill-opacity="0.62"/>
</svg>
