<svg width="18" height="18" viewBox="0 0 18 18" fill="none" xmlns="http://www.w3.org/2000/svg">
<path d="M0.0166016 5.97651C0.0459453 5.87067 0.0717734 5.7637 0.105195 5.65917C0.291008 5.07783 0.671117 4.67301 1.22555 4.42791C2.3364 3.9368 3.44729 3.44573 4.55813 2.95453C5.66363 2.46572 6.77101 1.98117 7.87374 1.48626C8.4631 1.22175 9.04402 1.21115 9.6361 1.47361C11.8515 2.45555 14.0694 3.43162 16.2848 4.4137C17.1145 4.78148 17.5245 5.4285 17.5246 6.33651C17.525 8.74444 17.5254 11.1524 17.5227 13.5603C17.5226 13.6751 17.549 13.7426 17.6556 13.8091C18.0931 14.0822 18.0917 14.7094 17.6526 14.9807C17.5438 15.048 17.5165 15.1176 17.5228 15.2321C17.5308 15.3781 17.5284 15.525 17.5234 15.6713C17.51 16.07 17.1991 16.3669 16.8074 16.3594C16.4242 16.3521 16.1294 16.0525 16.1222 15.6587C16.1185 15.4598 16.1215 15.2609 16.1215 15.0673C15.7274 14.821 15.5727 14.5314 15.7039 14.1976C15.7657 14.0406 15.9176 13.9196 16.0264 13.7805C16.0616 13.7355 16.1172 13.6851 16.1172 13.637C16.1204 11.8268 16.1183 10.0167 16.1165 8.2065C16.1165 8.20092 16.1131 8.19539 16.1044 8.16928C15.8109 8.298 15.5247 8.44298 15.2248 8.54869C14.9918 8.63081 14.8981 8.74931 14.9232 9.00478C14.9511 9.28908 14.9312 9.5783 14.9291 9.86536C14.9259 10.29 14.6225 10.6067 14.2246 10.6041C13.8271 10.6014 13.5299 10.2845 13.5263 9.85795C13.5249 9.68306 13.5261 9.50817 13.5261 9.30867C13.2532 9.42825 12.9979 9.53944 12.7432 9.65189C11.7175 10.1047 10.69 10.5532 9.66746 11.0128C9.0587 11.2865 8.46455 11.2793 7.85631 11.0056C6.63695 10.4568 5.41116 9.92236 4.18801 9.38203C4.14066 9.36112 4.09299 9.34092 4.02629 9.31214C4.02202 9.37983 4.01565 9.43439 4.01565 9.4889C4.01504 10.5083 4.01513 11.5277 4.01527 12.5471C4.01537 13.1444 4.28879 13.5635 4.83877 13.7929C5.86262 14.22 6.88848 14.6422 7.91368 15.0659C7.95582 15.0833 8.00012 15.0955 8.06823 15.1185C8.06823 15.04 8.06818 14.9776 8.06823 14.9152C8.06865 14.4231 8.06129 13.9308 8.07212 13.4389C8.08046 13.0601 8.32932 12.7943 8.69068 12.7463C9.01084 12.7039 9.32649 12.8977 9.42798 13.214C9.46116 13.3174 9.46876 13.4324 9.46984 13.5422C9.47424 13.9992 9.47171 14.4562 9.47176 14.9131C9.47176 14.9759 9.47176 15.0386 9.47176 15.1284C9.88463 14.9588 10.2712 14.8008 10.6573 14.6414C11.3211 14.3674 11.9828 14.0883 12.6488 13.8198C12.9954 13.68 13.2527 13.4563 13.4215 13.1192C13.6091 12.7446 14.0141 12.6108 14.3702 12.7902C14.7216 12.9672 14.8529 13.3758 14.6712 13.752C14.3826 14.3496 13.9396 14.796 13.3274 15.0535C12.1327 15.5561 10.9363 16.0552 9.73384 16.5388C9.06432 16.808 8.38571 16.7818 7.71821 16.5058C6.57437 16.0329 5.42523 15.5724 4.28841 15.0832C3.19716 14.6136 2.63045 13.7633 2.6153 12.5727C2.59946 11.3309 2.60977 10.0887 2.61474 8.84667C2.61526 8.72151 2.5763 8.66198 2.46184 8.61422C2.0739 8.45236 1.69276 8.27423 1.30595 8.10961C0.615571 7.81584 0.175039 7.31995 0.0427109 6.56841C0.0387734 6.54609 0.0255547 6.52537 0.0166484 6.50395C0.0166015 6.32808 0.0166016 6.1523 0.0166016 5.97651ZM8.76718 9.8303C8.86449 9.80086 8.96251 9.78197 9.05157 9.74273C11.2846 8.75845 13.5166 7.77173 15.7492 6.78642C15.9876 6.68119 16.1207 6.50203 16.1177 6.24136C16.1148 5.98819 15.9808 5.81569 15.7496 5.71359C13.5174 4.72734 11.2854 3.74039 9.05387 2.75259C8.86013 2.66686 8.67479 2.66869 8.47993 2.75751C8.01784 2.96826 7.55138 3.16945 7.08676 3.37467C5.33513 4.14834 3.5822 4.91906 1.83441 5.70136C1.69552 5.76351 1.55377 5.88403 1.48046 6.01509C1.31757 6.30633 1.46813 6.64115 1.7994 6.78773C4.03102 7.77525 6.26326 8.7614 8.4961 9.74611C8.58005 9.78314 8.67221 9.80133 8.76718 9.8303Z" fill="#2C2A26"/>
</svg>
