<svg width="18" height="18" viewBox="0 0 18 18" fill="none" xmlns="http://www.w3.org/2000/svg">
<g clip-path="url(#clip0_182_208)">
<path d="M0.00883294 2.17445C0.126272 1.84657 0.199545 1.49327 0.369887 1.19587C0.784853 0.471507 1.43917 0.060286 2.2681 0.00831537C2.80107 -0.0250817 3.35354 -0.0288314 3.8737 0.0739627C4.97275 0.291154 5.73907 1.27246 5.76506 2.39601C5.77726 2.92401 5.7687 3.45249 5.7687 3.98076C5.76883 7.8137 5.77112 11.6466 5.76725 15.4796C5.7662 16.5488 5.28182 17.3326 4.32185 17.8C4.09514 17.9104 3.83563 17.9529 3.59118 18.0266C3.12288 18.0266 2.65461 18.0266 2.18631 18.0266C2.15417 18.0154 2.12282 17.9993 2.08976 17.9938C1.33618 17.8675 0.744374 17.4835 0.369184 16.82C0.200555 16.5218 0.126009 16.17 0.00878906 15.8425C0.00883296 11.2865 0.00883294 6.73048 0.00883294 2.17445ZM4.36395 9.02715C4.36395 6.88524 4.36404 4.74329 4.36391 2.60137C4.36387 1.81939 3.94236 1.39974 3.15752 1.39952C2.97027 1.39948 2.78307 1.39934 2.59583 1.39952C1.83926 1.40023 1.41389 1.82843 1.41376 2.59052C1.41349 4.45079 1.41367 6.31101 1.41367 8.17127C1.41367 10.5831 1.41362 12.995 1.41371 15.4069C1.41375 16.2009 1.83206 16.6174 2.62889 16.6176C2.81025 16.6176 2.99165 16.6176 3.17301 16.6176C3.94122 16.6171 4.36378 16.1916 4.36387 15.4177C4.36409 13.2875 4.36395 11.1573 4.36395 9.02715Z" fill="#2C2A26" fill-opacity="0.62"/>
<path d="M9.42143 18.0263C9.08456 17.9023 8.71938 17.8261 8.4165 17.645C7.67099 17.1993 7.27117 16.5076 7.25212 15.6377C7.22705 14.4937 7.24444 13.3487 7.24391 12.2041C7.24356 11.4117 7.24263 10.6194 7.24408 9.82695C7.24676 8.35488 8.31346 7.28393 9.78112 7.28251C11.6713 7.28071 13.5616 7.28097 15.4518 7.28247C16.7623 7.28353 17.7359 8.10831 17.9628 9.40409C17.9666 9.42575 17.9814 9.44551 17.9911 9.46616C17.9911 10.3703 17.9911 11.2745 17.9911 12.1786C17.9168 12.3027 17.8635 12.4481 17.7639 12.5462C17.554 12.753 17.2919 12.8 17.0178 12.683C16.7373 12.5632 16.5911 12.3374 16.5887 12.0342C16.5828 11.2888 16.5888 10.5433 16.5852 9.79784C16.5831 9.34903 16.3973 8.99768 15.9851 8.80532C15.8315 8.73363 15.6477 8.69657 15.4775 8.69591C13.5697 8.68846 11.6618 8.68907 9.75399 8.69238C9.09725 8.69353 8.65094 9.14194 8.64984 9.80123C8.64663 11.7031 8.64663 13.6049 8.64984 15.5067C8.65094 16.1661 9.09703 16.6148 9.75355 16.616C11.6614 16.6194 13.5692 16.619 15.4771 16.6162C16.1089 16.6152 16.5377 16.2088 16.585 15.5815C16.6156 15.1756 16.8441 14.9094 17.2025 14.8622C17.5439 14.8173 17.8251 15.0115 17.9702 15.3917C17.9742 15.4021 17.984 15.4103 17.9911 15.4195C17.9911 15.5604 17.9911 15.7014 17.9911 15.8423C17.98 15.8745 17.9639 15.9059 17.9584 15.9391C17.8325 16.6949 17.4497 17.2885 16.7882 17.6649C16.4908 17.834 16.1401 17.9088 15.8136 18.0264C13.6829 18.0263 11.5521 18.0263 9.42143 18.0263Z" fill="#2C2A26" fill-opacity="0.62"/>
<path d="M17.9911 3.58347C17.8676 3.92133 17.7916 4.28763 17.611 4.59143C17.1666 5.33922 16.477 5.74016 15.6096 5.75927C14.4689 5.78441 13.3274 5.76699 12.1862 5.76747C11.3844 5.76783 10.5826 5.76875 9.78087 5.76725C8.31325 5.76456 7.2419 4.69453 7.24713 3.22228C7.24871 2.7781 7.23387 2.32237 7.32365 1.89231C7.55348 0.7914 8.52056 0.00526699 9.64047 -0.00355654C11.6242 -0.0191742 13.6083 -0.0201448 15.5921 -0.00346835C16.7917 0.00663459 17.7683 0.894502 17.9603 2.09485C17.9647 2.1223 17.9806 2.14788 17.9911 2.17431C17.9911 2.64408 17.9911 3.11375 17.9911 3.58347ZM12.5996 4.3584C13.5588 4.3584 14.518 4.36127 15.4772 4.35743C16.1347 4.35478 16.578 3.90981 16.5857 3.25321C16.5887 2.99512 16.5904 2.7369 16.5852 2.4789C16.5725 1.85163 16.1313 1.40309 15.5042 1.40141C13.58 1.39621 11.6557 1.39621 9.73148 1.40141C9.09726 1.40313 8.65872 1.85618 8.64933 2.49584C8.6459 2.73046 8.64818 2.96512 8.6488 3.19978C8.65064 3.9223 9.08616 4.35761 9.80976 4.35827C10.7397 4.35911 11.6696 4.35844 12.5996 4.3584Z" fill="#2C2A26" fill-opacity="0.62"/>
</g>
<defs>
<clipPath id="clip0_182_208">
<rect width="18" height="18" fill="white"/>
</clipPath>
</defs>
</svg>
