<svg width="18" height="18" viewBox="0 0 18 18" fill="none" xmlns="http://www.w3.org/2000/svg">
<g clip-path="url(#clip0_182_200)">
<path d="M17.9913 8.97371C17.894 9.18168 17.7844 9.3806 17.5503 9.46366C17.2656 9.56464 17.0066 9.51661 16.7887 9.30434C16.6137 9.13383 16.447 8.95488 16.2353 8.79323C16.2353 8.85373 16.2353 8.91418 16.2353 8.97468C16.2352 9.74016 16.2383 10.5057 16.234 11.2712C16.2314 11.7423 15.8739 12.0547 15.4213 11.9926C15.0783 11.9456 14.8341 11.6542 14.8315 11.2753C14.8277 10.7086 14.8304 10.1417 14.8304 9.57491C14.8304 8.88538 14.8284 8.19585 14.8324 7.50632C14.8331 7.39428 14.8052 7.31231 14.723 7.22995C13.0086 5.51196 11.2975 3.79063 9.5854 2.07032C9.22813 1.71133 8.83775 1.7108 8.47933 2.06781C6.74729 3.79305 5.01459 5.51763 3.2869 7.24721C3.2224 7.31174 3.17495 7.42584 3.17468 7.51703C3.16862 9.91867 3.16924 12.3204 3.17029 14.722C3.1706 15.4589 3.56958 15.9918 4.2531 16.1705C4.337 16.1925 4.42612 16.2028 4.51296 16.2037C5.07474 16.2094 5.63656 16.2109 6.19833 16.2138C6.2565 16.2141 6.31467 16.2138 6.40112 16.2138C6.40112 16.1364 6.40112 16.0694 6.40112 16.0024C6.40112 14.2085 6.40098 12.4146 6.4012 10.6206C6.40129 10.0706 6.66818 9.79886 7.21603 9.79807C8.4277 9.79631 9.63936 9.79644 10.851 9.79803C11.4008 9.79873 11.6692 10.0695 11.6693 10.6172C11.6695 12.4053 11.6694 14.1934 11.6694 15.9815C11.6694 16.0506 11.6694 16.1197 11.6694 16.1879C11.6976 16.1988 11.713 16.2102 11.7283 16.2101C12.3427 16.2067 12.9577 16.2186 13.5712 16.1936C14.173 16.169 14.7089 15.6559 14.8019 15.0568C14.8172 14.9588 14.8236 14.8595 14.8335 14.7607C14.8716 14.3782 15.179 14.1032 15.555 14.1155C15.9384 14.1281 16.229 14.4303 16.2346 14.8226C16.2552 16.2586 15.0519 17.5494 13.6143 17.5995C12.749 17.6296 11.882 17.6186 11.0159 17.6138C10.5346 17.6112 10.2651 17.3219 10.2649 16.8358C10.264 15.036 10.2645 13.2362 10.2645 11.4364C10.2645 11.3671 10.2645 11.2979 10.2645 11.2145C9.44334 11.2145 8.63439 11.2145 7.80595 11.2145C7.80595 11.2865 7.80595 11.3551 7.80595 11.4237C7.80595 13.2118 7.80608 14.9999 7.80586 16.788C7.80582 17.3488 7.54109 17.6168 6.97949 17.616C6.12497 17.6149 5.26962 17.6322 4.41616 17.6005C2.98028 17.5474 1.80589 16.3576 1.77279 14.9228C1.74842 13.8656 1.76563 12.8075 1.76502 11.7499C1.76449 10.7685 1.76489 9.78718 1.76489 8.75727C1.56662 8.95418 1.39646 9.12465 1.22462 9.29341C1.00235 9.51174 0.741652 9.56736 0.449701 9.46292C0.216623 9.37959 0.104145 9.18322 0.00878906 8.97367C0.00878906 8.86848 0.00878906 8.76329 0.00878906 8.6581C0.144052 8.47933 0.260306 8.28168 0.417345 8.12464C2.76621 5.7756 5.12044 3.43186 7.47352 1.08699C8.39192 0.171756 9.67984 0.174302 10.5946 1.09362C12.9295 3.44007 15.2654 5.78561 17.5961 8.13623C17.7484 8.28984 17.8604 8.48324 17.9912 8.65814C17.9913 8.76333 17.9913 8.86852 17.9913 8.97371Z" fill="#2C2A26"/>
</g>
<defs>
<clipPath id="clip0_182_200">
<rect width="18" height="18" fill="white"/>
</clipPath>
</defs>
</svg>
