<svg width="18" height="18" viewBox="0 0 18 18" fill="none" xmlns="http://www.w3.org/2000/svg">
<g clip-path="url(#clip0_182_3864)">
<path d="M18 15.5744C18 15.7501 18 15.9259 18 16.1017C17.9882 16.146 17.9746 16.1901 17.9647 16.2348C17.778 17.0776 17.2777 17.6387 16.457 17.9094C16.3411 17.9476 16.2202 17.9703 16.1016 18.0001C15.9258 18.0001 15.75 18.0001 15.5743 18.0001C15.5362 17.9883 15.4988 17.9728 15.4598 17.9653C15.0779 17.892 14.7377 17.7307 14.4439 17.477C13.7289 16.8596 13.5005 15.8722 13.8624 15C13.8846 14.9465 13.8968 14.8519 13.8669 14.8195C13.5573 14.4847 13.2382 14.1588 12.9443 13.8539C10.3157 15.6708 7.73344 15.679 5.15236 13.917C4.84645 14.2137 4.53802 14.5178 4.22306 14.8151C4.13555 14.8977 4.11661 14.9633 4.16334 15.084C4.51162 15.9835 4.20619 17.0007 3.4335 17.5765C3.13092 17.802 2.78545 17.9155 2.42583 18C2.25005 18 2.07427 18 1.89848 18C1.86558 17.9895 1.83333 17.9752 1.79958 17.969C1.12252 17.8437 0.603797 17.4855 0.275578 16.8826C0.150187 16.6522 0.0899531 16.3864 0 16.1368C0 15.9493 0 15.7618 0 15.5743C0.0117656 15.5359 0.0271874 15.4982 0.0347342 15.459C0.110625 15.0651 0.278344 14.7156 0.546703 14.4173C1.17984 13.7136 2.12752 13.507 3.01561 13.87C3.06577 13.8906 3.15745 13.8864 3.19308 13.8538C3.525 13.5493 3.84881 13.236 4.15411 12.9452C2.32922 10.3147 2.31928 7.73278 4.08277 5.15198C3.78623 4.84622 3.48216 4.53778 3.18492 4.22287C3.10233 4.13536 3.03647 4.11661 2.91591 4.1633C2.02284 4.50914 1.01198 4.21012 0.43425 3.4477C0.202547 3.14194 0.0861562 2.79136 4.68493e-05 2.42583C4.68493e-05 2.23833 4.68493e-05 2.05083 4.68493e-05 1.86333C0.0117187 1.83173 0.0277501 1.80103 0.0343595 1.76841C0.165141 1.11966 0.510235 0.615141 1.08619 0.293391C1.32525 0.159844 1.60312 0.0957191 1.86333 4.72069e-05C2.05083 4.72069e-05 2.23833 4.72069e-05 2.42583 4.72069e-05C2.46403 0.0118128 2.50153 0.0273283 2.54058 0.0347815C2.93484 0.109922 3.28477 0.277313 3.58233 0.546375C4.28742 1.18383 4.49245 2.12625 4.12992 3.01547C4.10944 3.06572 4.11356 3.15741 4.14628 3.19308C4.45059 3.52519 4.76367 3.84923 5.05406 4.15444C7.68544 2.32959 10.2674 2.31998 12.852 4.08427C13.1558 3.78787 13.4633 3.48276 13.7775 3.18492C13.8654 3.10162 13.8828 3.03586 13.8362 2.91572C13.492 2.02847 13.7846 1.02778 14.5389 0.445266C14.8477 0.206813 15.2034 0.0885469 15.5743 0C15.7618 0 15.9493 0 16.1368 0C16.1683 0.0116719 16.1989 0.0277505 16.2315 0.034313C16.893 0.168 17.404 0.521438 17.7224 1.11497C17.8519 1.35633 17.9097 1.63612 18 1.89844C18 2.07422 18 2.25 18 2.42578C17.9933 2.4352 17.9819 2.44392 17.9805 2.45409C17.7874 3.84483 16.2872 4.71858 14.9497 4.11474C14.9143 4.09875 14.8444 4.10873 14.8164 4.13461C14.4814 4.44487 14.1513 4.76044 13.82 5.07459C13.8852 5.15503 13.9121 5.19309 13.9401 5.23045C14.8835 6.49087 15.3095 7.90434 15.195 9.47714C15.1628 9.91912 14.84 10.2225 14.4442 10.187C14.0279 10.1497 13.7704 9.80545 13.791 9.36141C13.8061 9.0352 13.8114 8.70277 13.7671 8.3805C13.3828 5.58117 10.7894 3.7147 8.02359 4.29952C6.16191 4.69317 4.91114 5.85356 4.38619 7.68253C3.86484 9.49903 4.33734 11.1044 5.65945 12.456C5.6843 12.4814 5.71819 12.498 5.7592 12.5265C5.78011 12.0961 5.88698 11.7106 6.08583 11.3511C6.2865 10.9882 6.57047 10.699 6.90188 10.4567C5.92472 9.20625 6.19786 7.66664 7.09294 6.79631C8.02927 5.88586 9.47227 5.75653 10.5463 6.50109C11.0806 6.8715 11.4468 7.36987 11.6167 7.99851C11.8606 8.90109 11.6643 9.72033 11.095 10.4573C11.8125 10.9723 12.1893 11.66 12.2465 12.5428C12.2943 12.5007 12.3205 12.4788 12.3453 12.4555C12.7525 12.0738 13.1098 12.079 13.506 12.4725C13.9425 12.9059 14.3809 13.3374 14.814 13.7743C14.8967 13.8578 14.959 13.8853 15.0824 13.8374C15.9765 13.4901 16.9867 13.788 17.5656 14.5519C17.7971 14.8576 17.9152 15.2082 18 15.5744ZM9.00572 11.4163C9.00553 11.4206 9.00539 11.4249 9.0052 11.4292C8.77678 11.4292 8.54827 11.424 8.31998 11.4302C7.67925 11.4476 7.18214 11.9497 7.16962 12.5906C7.16494 12.8307 7.17356 13.071 7.16578 13.3109C7.16241 13.4152 7.19752 13.4647 7.29577 13.5006C8.43591 13.9174 9.57399 13.9148 10.7141 13.5003C10.8082 13.4661 10.8366 13.4175 10.834 13.3213C10.8273 13.0696 10.8359 12.8176 10.8294 12.5659C10.8152 12.0172 10.4235 11.5448 9.88069 11.4605C9.59367 11.4158 9.29766 11.4291 9.00572 11.4163ZM10.3087 8.72606C10.3101 8.0063 9.72197 7.42153 8.99798 7.42284C8.28061 7.42411 7.69627 8.00086 7.69134 8.71242C7.68633 9.43561 8.26641 10.0188 8.99311 10.0212C9.72244 10.0236 10.3073 9.44784 10.3087 8.72606ZM16.5934 2.1615C16.5972 1.75064 16.2643 1.41084 15.8542 1.40695C15.4426 1.40302 15.1049 1.73386 15.1 2.14584C15.0952 2.55755 15.4258 2.89556 15.8383 2.90072C16.2476 2.90583 16.5897 2.57091 16.5934 2.1615ZM15.851 15.1C15.4392 15.0967 15.1032 15.4283 15.0998 15.8415C15.0965 16.2517 15.4314 16.5913 15.8415 16.5935C16.2524 16.5957 16.5907 16.2617 16.5933 15.8512C16.5959 15.4404 16.2628 15.1033 15.851 15.1ZM2.89992 2.15766C2.90245 1.74516 2.5658 1.40672 2.15311 1.40681C1.74773 1.40691 1.41305 1.73606 1.40681 2.14073C1.40048 2.55436 1.73034 2.89345 2.14519 2.89964C2.55783 2.90583 2.89739 2.57198 2.89992 2.15766ZM2.90025 15.8391C2.8957 15.4266 2.55773 15.0952 2.14645 15.1001C1.73405 15.105 1.40325 15.442 1.40677 15.8535C1.41028 16.2633 1.75017 16.5969 2.1607 16.5935C2.57044 16.5901 2.90475 16.2491 2.90025 15.8391Z" fill="#2C2A26"/>
</g>
<defs>
<clipPath id="clip0_182_3864">
<rect width="18" height="18" fill="white"/>
</clipPath>
</defs>
</svg>
