<svg width="18" height="18" viewBox="0 0 18 18" fill="none" xmlns="http://www.w3.org/2000/svg">
<g clip-path="url(#clip0_182_3185)">
<path d="M16.015 4.72069e-05C16.4365 0.158953 16.5653 0.473297 16.5635 0.909328C16.5525 3.52209 16.5583 6.13495 16.5578 8.74781C16.5577 9.18459 16.3725 9.45389 16.0152 9.54309C15.6305 9.63914 15.2291 9.3743 15.1702 8.98078C15.1555 8.88295 15.1554 8.78231 15.1554 8.68298C15.1547 6.33966 15.1548 3.99628 15.1548 1.65295C15.1548 1.57767 15.1548 1.50244 15.1548 1.41689C11.9848 1.41689 8.83008 1.41689 5.66105 1.41689C5.66105 5.53252 5.66105 9.6465 5.66105 13.7709C8.81728 13.7709 11.972 13.7709 15.1459 13.7709C15.1489 13.7026 15.154 13.6352 15.1545 13.5677C15.1575 13.146 15.1463 12.7237 15.1663 12.3028C15.1821 11.9714 15.451 11.7147 15.7752 11.676C16.0985 11.6375 16.4121 11.8308 16.514 12.1449C16.5458 12.2429 16.5555 12.3517 16.5561 12.4556C16.5598 13.1058 16.56 13.7561 16.5573 14.4064C16.5551 14.9107 16.2754 15.1873 15.7727 15.1874C11.7267 15.1876 7.68056 15.1881 3.6345 15.186C3.40805 15.1858 3.20475 15.2308 3.04378 15.399C2.84259 15.6093 2.78967 15.8586 2.88619 16.1293C2.98603 16.4092 3.19814 16.559 3.49144 16.5911C3.56081 16.5987 3.63164 16.5938 3.70181 16.5938C7.71281 16.5938 11.7238 16.5936 15.7348 16.595C15.839 16.5951 15.9467 16.5994 16.0466 16.6255C16.3322 16.7002 16.5258 16.9402 16.5515 17.2315C16.578 17.5325 16.4241 17.8032 16.1532 17.9324C16.1069 17.9544 16.061 17.9775 16.0149 18C11.7693 18 7.52372 18 3.27811 18C3.01641 17.9058 2.73333 17.8483 2.49694 17.7105C1.7678 17.2852 1.43503 16.6259 1.43555 15.7831C1.43822 11.261 1.43677 6.73894 1.43709 2.21686C1.43709 2.13492 1.43733 2.05256 1.44483 1.97109C1.52316 1.12017 1.95558 0.518578 2.73038 0.169969C2.90344 0.0921097 3.09506 0.0555469 3.27811 0C7.52377 4.6875e-05 11.7694 4.72069e-05 16.015 4.72069e-05ZM4.22977 13.756C4.22977 9.645 4.22977 5.5305 4.22977 1.4063C4.02933 1.4063 3.84258 1.40611 3.65588 1.40634C3.10875 1.40705 2.84034 1.67602 2.8403 2.22783C2.83988 6.04748 2.84006 9.86719 2.84006 13.6868C2.84006 13.7495 2.84006 13.8122 2.84006 13.846C3.31238 13.8155 3.76388 13.7862 4.22977 13.756Z" fill="#2C2A26"/>
<path d="M10.401 5.58994C9.63586 5.58989 8.87072 5.59182 8.10557 5.58896C7.79826 5.58778 7.54804 5.40811 7.44534 5.12878C7.34343 4.85147 7.41511 4.52794 7.65726 4.35535C7.78303 4.26572 7.95333 4.19255 8.10408 4.19142C9.63426 4.17961 11.1646 4.18182 12.6949 4.1858C13.0961 4.18683 13.3966 4.49663 13.3972 4.88677C13.3977 5.28338 13.0908 5.58764 12.6788 5.58919C11.9196 5.592 11.1603 5.58999 10.401 5.58994Z" fill="#2C2A26"/>
</g>
<defs>
<clipPath id="clip0_182_3185">
<rect width="18" height="18" fill="white"/>
</clipPath>
</defs>
</svg>
