<svg width="16" height="18" viewBox="0 0 16 18" fill="none" xmlns="http://www.w3.org/2000/svg">
<path d="M15.0155 4.72069e-05C15.437 0.158953 15.5658 0.473297 15.564 0.909328C15.553 3.52209 15.5588 6.13495 15.5583 8.74781C15.5582 9.18459 15.3729 9.45389 15.0157 9.54309C14.631 9.63914 14.2296 9.3743 14.1706 8.98078C14.156 8.88295 14.1559 8.78231 14.1559 8.68298C14.1552 6.33966 14.1553 3.99628 14.1553 1.65295C14.1553 1.57767 14.1553 1.50244 14.1553 1.41689C10.9853 1.41689 7.83057 1.41689 4.66154 1.41689C4.66154 5.53252 4.66154 9.6465 4.66154 13.7709C7.81777 13.7709 10.9725 13.7709 14.1464 13.7709C14.1494 13.7026 14.1545 13.6352 14.1549 13.5677C14.158 13.146 14.1468 12.7237 14.1668 12.3028C14.1826 11.9714 14.4515 11.7147 14.7757 11.676C15.099 11.6375 15.4126 11.8308 15.5145 12.1449C15.5462 12.2429 15.556 12.3517 15.5566 12.4556C15.5603 13.1058 15.5605 13.7561 15.5578 14.4064C15.5556 14.9107 15.2759 15.1873 14.7732 15.1874C10.7272 15.1876 6.68105 15.1881 2.63499 15.186C2.40854 15.1858 2.20524 15.2308 2.04427 15.399C1.84308 15.6093 1.79016 15.8586 1.88668 16.1293C1.98652 16.4092 2.19863 16.559 2.49193 16.5911C2.5613 16.5987 2.63213 16.5938 2.7023 16.5938C6.7133 16.5938 10.7243 16.5936 14.7353 16.595C14.8395 16.5951 14.9472 16.5994 15.0471 16.6255C15.3327 16.7002 15.5263 16.9402 15.552 17.2315C15.5785 17.5325 15.4245 17.8032 15.1537 17.9324C15.1073 17.9544 15.0615 17.9775 15.0154 18C10.7698 18 6.52421 18 2.2786 18C2.01689 17.9058 1.73382 17.8483 1.49743 17.7105C0.768285 17.2852 0.43552 16.6259 0.436036 15.7831C0.438708 11.261 0.437255 6.73894 0.437583 2.21686C0.437583 2.13492 0.437817 2.05256 0.445317 1.97109C0.523645 1.12017 0.956067 0.518578 1.73086 0.169969C1.90393 0.0921097 2.09555 0.0555469 2.2786 0C6.52425 4.6875e-05 10.7699 4.72069e-05 15.0155 4.72069e-05ZM3.23025 13.756C3.23025 9.645 3.23025 5.5305 3.23025 1.4063C3.02982 1.4063 2.84307 1.40611 2.65636 1.40634C2.10924 1.40705 1.84083 1.67602 1.84079 2.22783C1.84036 6.04748 1.84055 9.86719 1.84055 13.6868C1.84055 13.7495 1.84055 13.8122 1.84055 13.846C2.31286 13.8155 2.76436 13.7862 3.23025 13.756Z" fill="white"/>
<path d="M9.40197 5.58994C8.63683 5.58989 7.87169 5.59182 7.10655 5.58896C6.79924 5.58778 6.54902 5.40811 6.44632 5.12878C6.34441 4.85147 6.41608 4.52794 6.65824 4.35535C6.784 4.26572 6.9543 4.19255 7.10505 4.19142C8.63524 4.17961 10.1656 4.18182 11.6958 4.1858C12.0971 4.18683 12.3976 4.49663 12.3981 4.88677C12.3986 5.28338 12.0918 5.58764 11.6798 5.58919C10.9206 5.592 10.1613 5.58999 9.40197 5.58994Z" fill="white"/>
</svg>
