<svg width="18" height="18" viewBox="0 0 18 18" fill="none" xmlns="http://www.w3.org/2000/svg">
<g clip-path="url(#clip0_182_248)">
<path d="M16.0155 4.72069e-05C16.437 0.158953 16.5658 0.473297 16.564 0.909328C16.553 3.52209 16.5588 6.13495 16.5583 8.74781C16.5582 9.18459 16.3729 9.45389 16.0157 9.54309C15.631 9.63914 15.2296 9.3743 15.1706 8.98078C15.156 8.88295 15.1559 8.78231 15.1559 8.68298C15.1552 6.33966 15.1553 3.99628 15.1553 1.65295C15.1553 1.57767 15.1553 1.50244 15.1553 1.41689C11.9853 1.41689 8.83057 1.41689 5.66154 1.41689C5.66154 5.53252 5.66154 9.6465 5.66154 13.7709C8.81777 13.7709 11.9725 13.7709 15.1464 13.7709C15.1494 13.7026 15.1545 13.6352 15.1549 13.5677C15.158 13.146 15.1468 12.7237 15.1668 12.3028C15.1826 11.9714 15.4515 11.7147 15.7757 11.676C16.099 11.6375 16.4126 11.8308 16.5145 12.1449C16.5462 12.2429 16.556 12.3517 16.5566 12.4556C16.5603 13.1058 16.5605 13.7561 16.5578 14.4064C16.5556 14.9107 16.2759 15.1873 15.7732 15.1874C11.7272 15.1876 7.68105 15.1881 3.63499 15.186C3.40854 15.1858 3.20524 15.2308 3.04427 15.399C2.84308 15.6093 2.79016 15.8586 2.88668 16.1293C2.98652 16.4092 3.19863 16.559 3.49193 16.5911C3.5613 16.5987 3.63213 16.5938 3.7023 16.5938C7.7133 16.5938 11.7243 16.5936 15.7353 16.595C15.8395 16.5951 15.9472 16.5994 16.0471 16.6255C16.3327 16.7002 16.5263 16.9402 16.552 17.2315C16.5785 17.5325 16.4246 17.8032 16.1537 17.9324C16.1073 17.9544 16.0615 17.9775 16.0154 18C11.7698 18 7.52421 18 3.2786 18C3.0169 17.9058 2.73382 17.8483 2.49743 17.7105C1.76829 17.2852 1.43552 16.6259 1.43604 15.7831C1.43871 11.261 1.43725 6.73894 1.43758 2.21686C1.43758 2.13492 1.43782 2.05256 1.44532 1.97109C1.52365 1.12017 1.95607 0.518578 2.73086 0.169969C2.90393 0.0921097 3.09555 0.0555469 3.2786 0C7.52425 4.6875e-05 11.7699 4.72069e-05 16.0155 4.72069e-05ZM4.23025 13.756C4.23025 9.645 4.23025 5.5305 4.23025 1.4063C4.02982 1.4063 3.84307 1.40611 3.65636 1.40634C3.10924 1.40705 2.84083 1.67602 2.84079 2.22783C2.84036 6.04748 2.84055 9.86719 2.84055 13.6868C2.84055 13.7495 2.84055 13.8122 2.84055 13.846C3.31286 13.8155 3.76436 13.7862 4.23025 13.756Z" fill="#2C2A26" fill-opacity="0.62"/>
<path d="M10.402 5.58994C9.63683 5.58989 8.87169 5.59182 8.10655 5.58896C7.79924 5.58778 7.54902 5.40811 7.44632 5.12878C7.34441 4.85147 7.41608 4.52794 7.65824 4.35535C7.784 4.26572 7.9543 4.19255 8.10505 4.19142C9.63524 4.17961 11.1656 4.18182 12.6958 4.1858C13.0971 4.18683 13.3976 4.49663 13.3981 4.88677C13.3986 5.28338 13.0918 5.58764 12.6798 5.58919C11.9206 5.592 11.1613 5.58999 10.402 5.58994Z" fill="#2C2A26" fill-opacity="0.62"/>
</g>
<defs>
<clipPath id="clip0_182_248">
<rect width="18" height="18" fill="white"/>
</clipPath>
</defs>
</svg>
