<svg width="18" height="18" viewBox="0 0 18 18" fill="none" xmlns="http://www.w3.org/2000/svg">
<path d="M10.6855 0.529297C10.928 0.597326 11.1837 0.636017 11.4107 0.738459C12.4291 1.19812 12.9874 1.99806 13.0209 3.11397C13.0531 4.18255 13.0312 5.25289 13.0275 6.32243C13.0261 6.72372 12.7345 7.01728 12.3587 7.01428C11.9809 7.01124 11.707 6.71975 11.7062 6.31105C11.7043 5.30217 11.7058 4.29324 11.7054 3.28431C11.705 2.39433 11.1637 1.85296 10.2744 1.85291C8.09671 1.85278 5.91901 1.85269 3.74128 1.85296C2.87913 1.85305 2.33159 2.39349 2.33128 3.25246C2.32995 7.08412 2.32991 10.9157 2.33132 14.7474C2.33163 15.6061 2.87971 16.1468 3.74168 16.1469C5.92488 16.1471 8.10809 16.1471 10.2913 16.1469C11.1567 16.1468 11.7047 15.5984 11.7053 14.7313C11.706 13.7169 11.7038 12.7025 11.7063 11.6881C11.7076 11.1939 12.1262 10.87 12.5698 11.0202C12.8487 11.1146 13.0207 11.3215 13.0219 11.6112C13.0265 12.7851 13.0564 13.9613 12.9946 15.1323C12.9335 16.293 11.9589 17.2673 10.8103 17.4377C10.768 17.444 10.7271 17.4594 10.6855 17.4704C8.23696 17.4704 5.78843 17.4704 3.3399 17.4704C3.068 17.3876 2.7785 17.3403 2.52734 17.2157C1.51338 16.7126 1.00841 15.8782 1.00779 14.7467C1.00568 10.9154 1.00691 7.08403 1.00735 3.25268C1.00735 3.16453 1.01031 3.07625 1.01604 2.98833C1.09051 1.84524 1.89716 0.878709 3.00504 0.605091C3.11613 0.57765 3.22823 0.554444 3.33985 0.529297C5.78843 0.529297 8.23696 0.529297 10.6855 0.529297Z" fill="#2C2A26" fill-opacity="0.62"/>
<path d="M14.5168 8.33805C14.3727 8.21563 14.264 8.12598 14.1582 8.03289C13.8583 7.7688 13.8169 7.37818 14.0569 7.09054C14.3026 6.7961 14.7034 6.76561 15.0139 7.02568C15.5845 7.50357 16.1539 7.98299 16.7194 8.46688C17.0861 8.7806 17.0847 9.2204 16.7165 9.53545C16.1509 10.0192 15.5817 10.4989 15.0109 10.9766C14.7069 11.2309 14.3112 11.2028 14.0646 10.9182C13.8191 10.6348 13.8539 10.2376 14.1493 9.97468C14.2562 9.87957 14.3671 9.78886 14.5167 9.66163C14.4189 9.66163 14.3637 9.66163 14.3085 9.66163C12.8692 9.66163 11.4299 9.66295 9.99063 9.66083C9.50357 9.66013 9.18182 9.22896 9.33134 8.78651C9.42553 8.50782 9.67245 8.3388 9.99522 8.33854C11.1698 8.33752 12.3444 8.33814 13.519 8.3381C13.8359 8.33805 14.1528 8.33805 14.5168 8.33805Z" fill="#2C2A26" fill-opacity="0.62"/>
</svg>
