<svg width="18" height="16" viewBox="0 0 18 16" fill="none" xmlns="http://www.w3.org/2000/svg">
<path d="M17.9838 9.82861C17.9624 9.86827 17.9392 9.90703 17.9199 9.94767C17.7762 10.2514 17.4586 10.4146 17.1393 10.3479C16.8206 10.2814 16.5859 10.0044 16.5821 9.67017C16.5764 9.15474 16.5803 8.63916 16.5803 8.12367C16.5802 6.36624 16.5822 4.6088 16.5792 2.85141C16.578 2.13886 16.1123 1.57528 15.4225 1.44474C15.3088 1.42322 15.1899 1.42285 15.0734 1.4228C11.0275 1.42177 6.98163 1.42158 2.93571 1.42219C2.00547 1.42233 1.42253 2.00527 1.42244 2.93264C1.42216 6.31861 1.42202 9.70463 1.42258 13.0906C1.42272 13.9836 2.01278 14.5782 2.90571 14.5785C6.96916 14.58 11.0326 14.5799 15.096 14.5785C15.9621 14.5783 16.539 14.024 16.5806 13.1618C16.5977 12.808 16.8303 12.5412 17.1753 12.4796C17.4926 12.4229 17.8147 12.614 17.942 12.934C17.9547 12.9658 17.9698 12.9966 17.9838 13.0279C17.9838 13.1803 17.9838 13.3326 17.9838 13.485C17.9731 13.5174 17.9574 13.5492 17.9524 13.5825C17.7501 14.9509 16.5997 15.978 15.216 15.981C11.0711 15.9898 6.92617 15.991 2.7813 15.9804C1.25411 15.9766 0.0233164 14.7229 0.020832 13.1928C0.0151601 9.73097 0.0152539 6.26916 0.0207383 2.80735C0.0231758 1.2773 1.25505 0.0241904 2.78172 0.0205341C6.9266 0.0105966 11.0715 0.0124248 15.2164 0.019831C16.482 0.022081 17.5606 0.8813 17.8885 2.10966C17.9244 2.24405 17.9522 2.38064 17.9838 2.51621C17.9838 4.95361 17.9838 7.39111 17.9838 9.82861Z" fill="white"/>
<path d="M7.13836 9.94602C6.02035 8.72596 6.26264 7.03161 7.29413 6.12993C8.3063 5.24516 9.83494 5.27947 10.8019 6.21622C11.7838 7.16746 11.9202 8.79224 10.8616 9.94086C10.9025 9.97564 10.9434 10.0097 10.9834 10.0447C11.6845 10.6589 12.0643 11.4283 12.0899 12.3646C12.1019 12.8054 11.8232 13.1224 11.4263 13.1358C11.0046 13.15 10.7052 12.8503 10.6876 12.3966C10.6481 11.3781 9.83559 10.6553 8.8237 10.7385C8.03391 10.8034 7.35572 11.5129 7.31644 12.3136C7.31184 12.4068 7.30913 12.5018 7.28878 12.5922C7.20792 12.9518 6.88777 13.1735 6.51839 13.1327C6.18089 13.0954 5.91136 12.7994 5.91211 12.4475C5.91422 11.4692 6.29986 10.6674 7.03702 10.0313C7.06795 10.0047 7.09941 9.97879 7.13836 9.94602ZM10.196 8.11457C10.1992 7.44205 9.6736 6.90055 9.01036 6.893C8.35247 6.8855 7.80938 7.42822 7.80642 8.09619C7.80342 8.76927 8.32899 9.3103 8.99199 9.31672C9.6525 9.3231 10.1929 8.78357 10.196 8.11457Z" fill="white"/>
<path d="M13.1233 4.24028C12.7262 4.24028 12.3291 4.2423 11.932 4.23972C11.5051 4.23696 11.1987 3.93907 11.2007 3.53397C11.2027 3.12981 11.5101 2.83586 11.9398 2.83469C12.7398 2.83258 13.5398 2.83225 14.3398 2.83488C14.765 2.83628 15.0742 3.13839 15.0724 3.54185C15.0706 3.94502 14.7621 4.23756 14.332 4.23981C13.9291 4.24192 13.5262 4.24028 13.1233 4.24028Z" fill="white"/>
<path d="M3.73536 2.83496C4.11135 2.83524 4.43286 3.15099 4.43675 3.5237C4.44078 3.91055 4.12714 4.23376 3.74389 4.23755C3.35408 4.24145 3.03988 3.93216 3.03664 3.54146C3.03355 3.15488 3.35019 2.83468 3.73536 2.83496Z" fill="white"/>
<path d="M8.65264 4.23886C8.27478 4.24219 7.95288 3.93084 7.94782 3.55716C7.94252 3.16533 8.24759 2.84381 8.63206 2.83608C9.01709 2.82834 9.33865 3.13912 9.34746 3.52753C9.35609 3.90928 9.03753 4.23544 8.65264 4.23886Z" fill="white"/>
<path d="M6.86813 3.54584C6.86531 3.9365 6.55261 4.24296 6.16083 4.23898C5.78733 4.23518 5.4728 3.91517 5.47266 3.539C5.47256 3.15373 5.79398 2.83259 6.17634 2.83596C6.56695 2.83939 6.87094 3.15139 6.86813 3.54584Z" fill="white"/>
</svg>
