<svg width="18" height="18" viewBox="0 0 18 18" fill="none" xmlns="http://www.w3.org/2000/svg">
<path d="M17.9835 10.8286C17.9621 10.8683 17.9389 10.907 17.9197 10.9477C17.7759 11.2514 17.4583 11.4146 17.139 11.3479C16.8204 11.2814 16.5856 11.0044 16.5819 10.6702C16.5761 10.1547 16.58 9.63916 16.58 9.12367C16.58 7.36624 16.5819 5.6088 16.579 3.85141C16.5778 3.13886 16.112 2.57528 15.4223 2.44474C15.3085 2.42322 15.1897 2.42285 15.0732 2.4228C11.0273 2.42177 6.98138 2.42158 2.93546 2.42219C2.00523 2.42233 1.42229 3.00527 1.4222 3.93264C1.42192 7.31861 1.42178 10.7046 1.42234 14.0906C1.42248 14.9836 2.01254 15.5782 2.90546 15.5785C6.96891 15.58 11.0324 15.5799 15.0958 15.5785C15.9618 15.5783 16.5388 15.024 16.5804 14.1618C16.5975 13.808 16.8301 13.5412 17.1751 13.4796C17.4924 13.4229 17.8144 13.614 17.9418 13.934C17.9544 13.9658 17.9695 13.9966 17.9835 14.0279C17.9835 14.1803 17.9835 14.3326 17.9835 14.485C17.9728 14.5174 17.9571 14.5492 17.9522 14.5825C17.7498 15.9509 16.5995 16.978 15.2157 16.981C11.0709 16.9898 6.92593 16.991 2.78106 16.9804C1.25387 16.9766 0.0230722 15.7229 0.0205879 14.1928C0.014916 10.731 0.0150098 7.26916 0.0204942 3.80735C0.0229317 2.2773 1.25481 1.02419 2.78148 1.02053C6.92635 1.0106 11.0713 1.01242 15.2162 1.01983C16.4818 1.02208 17.5604 1.8813 17.8883 3.10966C17.9241 3.24405 17.952 3.38064 17.9835 3.51621C17.9835 5.95361 17.9835 8.39111 17.9835 10.8286Z" fill="#2C2A26" fill-opacity="0.62"/>
<path d="M7.13812 10.946C6.0201 9.72596 6.2624 8.03161 7.29388 7.12993C8.30605 6.24516 9.83469 6.27947 10.8016 7.21622C11.7835 8.16746 11.92 9.79224 10.8614 10.9409C10.9022 10.9756 10.9431 11.0097 10.9832 11.0447C11.6843 11.6589 12.0641 12.4283 12.0896 13.3646C12.1016 13.8054 11.823 14.1224 11.4261 14.1358C11.0044 14.15 10.705 13.8503 10.6874 13.3966C10.6479 12.3781 9.83535 11.6553 8.82346 11.7385C8.03366 11.8034 7.35548 12.5129 7.31619 13.3136C7.3116 13.4068 7.30888 13.5018 7.28854 13.5922C7.20768 13.9518 6.88752 14.1735 6.51815 14.1327C6.18065 14.0954 5.91112 13.7994 5.91187 13.4475C5.91398 12.4692 6.29962 11.6674 7.03677 11.0313C7.06771 11.0047 7.09916 10.9788 7.13812 10.946ZM10.1958 9.11457C10.1989 8.44205 9.67335 7.90055 9.01012 7.893C8.35223 7.8855 7.80913 8.42822 7.80618 9.09619C7.80318 9.76927 8.32874 10.3103 8.99174 10.3167C9.65226 10.3231 10.1927 9.78357 10.1958 9.11457Z" fill="#2C2A26" fill-opacity="0.62"/>
<path d="M13.123 5.24028C12.726 5.24028 12.3288 5.2423 11.9317 5.23972C11.5049 5.23696 11.1984 4.93907 11.2004 4.53397C11.2025 4.12981 11.5099 3.83586 11.9395 3.83469C12.7395 3.83258 13.5396 3.83225 14.3396 3.83488C14.7648 3.83628 15.074 4.13839 15.0721 4.54185C15.0703 4.94502 14.7618 5.23756 14.3318 5.23981C13.9289 5.24192 13.526 5.24028 13.123 5.24028Z" fill="#2C2A26" fill-opacity="0.62"/>
<path d="M3.73512 3.83496C4.1111 3.83524 4.43262 4.15099 4.43651 4.5237C4.44054 4.91055 4.1269 5.23376 3.74365 5.23755C3.35384 5.24145 3.03963 4.93216 3.0364 4.54146C3.03331 4.15488 3.34995 3.83468 3.73512 3.83496Z" fill="#2C2A26" fill-opacity="0.62"/>
<path d="M8.65215 5.23886C8.27429 5.24219 7.9524 4.93084 7.94733 4.55716C7.94204 4.16533 8.2471 3.84381 8.63157 3.83608C9.0166 3.82834 9.33816 4.13912 9.34697 4.52753C9.3556 4.90928 9.03704 5.23544 8.65215 5.23886Z" fill="#2C2A26" fill-opacity="0.62"/>
<path d="M6.86788 4.54584C6.86507 4.9365 6.55237 5.24296 6.16058 5.23898C5.78708 5.23518 5.47255 4.91517 5.47241 4.539C5.47232 4.15373 5.79374 3.83259 6.1761 3.83596C6.56671 3.83939 6.87069 4.15139 6.86788 4.54584Z" fill="#2C2A26" fill-opacity="0.62"/>
</svg>
