<svg width="18" height="18" viewBox="0 0 18 18" fill="none" xmlns="http://www.w3.org/2000/svg">
<path d="M17.9838 10.8286C17.9624 10.8683 17.9392 10.907 17.9199 10.9477C17.7762 11.2514 17.4586 11.4146 17.1393 11.3479C16.8206 11.2814 16.5859 11.0044 16.5821 10.6702C16.5764 10.1547 16.5803 9.63916 16.5803 9.12367C16.5802 7.36624 16.5822 5.6088 16.5792 3.85141C16.578 3.13886 16.1123 2.57528 15.4225 2.44474C15.3088 2.42322 15.1899 2.42285 15.0734 2.4228C11.0275 2.42177 6.98163 2.42158 2.93571 2.42219C2.00547 2.42233 1.42253 3.00527 1.42244 3.93264C1.42216 7.31861 1.42202 10.7046 1.42258 14.0906C1.42272 14.9836 2.01278 15.5782 2.90571 15.5785C6.96916 15.58 11.0326 15.5799 15.096 15.5785C15.9621 15.5783 16.539 15.024 16.5806 14.1618C16.5977 13.808 16.8303 13.5412 17.1753 13.4796C17.4926 13.4229 17.8147 13.614 17.942 13.934C17.9547 13.9658 17.9698 13.9966 17.9838 14.0279C17.9838 14.1803 17.9838 14.3326 17.9838 14.485C17.9731 14.5174 17.9574 14.5492 17.9524 14.5825C17.7501 15.9509 16.5997 16.978 15.216 16.981C11.0711 16.9898 6.92618 16.991 2.7813 16.9804C1.25411 16.9766 0.0233164 15.7229 0.020832 14.1928C0.0151601 10.731 0.0152539 7.26916 0.0207383 3.80735C0.0231758 2.2773 1.25505 1.02419 2.78172 1.02053C6.9266 1.0106 11.0715 1.01242 15.2164 1.01983C16.482 1.02208 17.5606 1.8813 17.8885 3.10966C17.9244 3.24405 17.9522 3.38064 17.9838 3.51621C17.9838 5.95361 17.9838 8.39111 17.9838 10.8286Z" fill="#2C2A26"/>
<path d="M7.13836 10.946C6.02035 9.72596 6.26264 8.03161 7.29413 7.12993C8.3063 6.24516 9.83494 6.27947 10.8019 7.21622C11.7838 8.16746 11.9202 9.79224 10.8616 10.9409C10.9025 10.9756 10.9434 11.0097 10.9834 11.0447C11.6845 11.6589 12.0643 12.4283 12.0899 13.3646C12.1019 13.8054 11.8232 14.1224 11.4263 14.1358C11.0046 14.15 10.7052 13.8503 10.6876 13.3966C10.6481 12.3781 9.83559 11.6553 8.8237 11.7385C8.03391 11.8034 7.35572 12.5129 7.31644 13.3136C7.31184 13.4068 7.30913 13.5018 7.28878 13.5922C7.20792 13.9518 6.88777 14.1735 6.51839 14.1327C6.18089 14.0954 5.91136 13.7994 5.91211 13.4475C5.91422 12.4692 6.29986 11.6674 7.03702 11.0313C7.06795 11.0047 7.09941 10.9788 7.13836 10.946ZM10.196 9.11457C10.1992 8.44205 9.6736 7.90055 9.01036 7.893C8.35247 7.8855 7.80938 8.42822 7.80642 9.09619C7.80342 9.76927 8.32899 10.3103 8.99199 10.3167C9.6525 10.3231 10.1929 9.78357 10.196 9.11457Z" fill="#2C2A26"/>
<path d="M13.1233 5.24028C12.7262 5.24028 12.3291 5.2423 11.932 5.23972C11.5051 5.23696 11.1987 4.93907 11.2007 4.53397C11.2027 4.12981 11.5101 3.83586 11.9398 3.83469C12.7398 3.83258 13.5398 3.83225 14.3398 3.83488C14.765 3.83628 15.0742 4.13839 15.0724 4.54185C15.0706 4.94502 14.7621 5.23756 14.332 5.23981C13.9291 5.24192 13.5262 5.24028 13.1233 5.24028Z" fill="#2C2A26"/>
<path d="M3.73536 3.83496C4.11135 3.83524 4.43286 4.15099 4.43675 4.5237C4.44078 4.91055 4.12714 5.23376 3.74389 5.23755C3.35408 5.24145 3.03988 4.93216 3.03664 4.54146C3.03355 4.15488 3.35019 3.83468 3.73536 3.83496Z" fill="#2C2A26"/>
<path d="M8.65264 5.23886C8.27478 5.24219 7.95288 4.93084 7.94782 4.55716C7.94252 4.16533 8.24759 3.84381 8.63206 3.83608C9.01709 3.82834 9.33865 4.13912 9.34746 4.52753C9.35609 4.90928 9.03753 5.23544 8.65264 5.23886Z" fill="#2C2A26"/>
<path d="M6.86813 4.54584C6.86531 4.9365 6.55261 5.24296 6.16083 5.23898C5.78733 5.23518 5.4728 4.91517 5.47266 4.539C5.47256 4.15373 5.79398 3.83259 6.17634 3.83596C6.56695 3.83939 6.87094 4.15139 6.86813 4.54584Z" fill="#2C2A26"/>
</svg>
