<svg width="18" height="18" viewBox="0 0 18 18" fill="none" xmlns="http://www.w3.org/2000/svg">
<g clip-path="url(#clip0_182_260)">
<path d="M18.018 6.01429C18.018 7.71683 18.018 9.41942 18.018 11.122C18.0112 11.1315 18.001 11.1401 17.9981 11.1507C17.8879 11.5558 17.5024 11.7327 17.192 11.6749C16.8245 11.6066 16.6101 11.3168 16.6091 10.8898C16.6083 10.5435 16.6089 10.1971 16.6089 9.85085C16.6089 9.7481 16.6089 9.64535 16.6089 9.54577C14.3062 9.54577 12.0309 9.54577 9.73999 9.54577C9.73999 9.72948 9.74012 9.90423 9.73995 10.0789C9.73977 10.255 9.74458 10.4313 9.73774 10.6072C9.72252 11.0002 9.41661 11.2977 9.03495 11.2974C8.65324 11.2971 8.3453 10.9995 8.33374 10.6061C8.32492 10.307 8.33132 10.0074 8.33096 9.70808C8.33092 9.65263 8.33096 9.59717 8.33096 9.54639C6.00336 9.54639 3.70465 9.54639 1.39717 9.54639C1.39501 9.59002 1.39183 9.62408 1.39183 9.65814C1.39161 11.2723 1.39037 12.8865 1.39395 14.5007C1.39426 14.634 1.4112 14.7718 1.44737 14.8999C1.63576 15.5668 2.16455 15.9477 2.89456 15.9479C5.48312 15.9487 8.07168 15.9483 10.6602 15.9483C12.1453 15.9483 13.6303 15.9476 15.1154 15.9487C15.4597 15.9489 15.7767 15.8679 16.0527 15.6535C16.4206 15.3678 16.584 14.9842 16.6115 14.5265C16.6415 14.0259 17.1032 13.7147 17.5557 13.8795C17.8023 13.9693 17.9317 14.1645 18.0179 14.3979C18.0179 14.5506 18.0179 14.7032 18.0179 14.8559C18.0079 14.8762 17.9916 14.8959 17.989 14.9172C17.8267 16.2471 16.6444 17.369 15.0921 17.3628C11.0305 17.3468 6.96879 17.358 2.90714 17.3572C1.20177 17.3568 -0.0171123 16.1336 -0.017377 14.4247C-0.0177741 11.7659 -0.0188328 9.10702 -0.0150828 6.44814C-0.014774 6.22641 -0.00189161 6.00039 0.041829 5.78377C0.3113 4.44891 1.44014 3.52658 2.81758 3.51538C3.75662 3.50775 4.6958 3.51383 5.63489 3.51379C5.69687 3.51379 5.7589 3.51379 5.83342 3.51379C5.83342 3.16747 5.82429 2.84505 5.83509 2.52335C5.86937 1.506 6.70509 0.676892 7.72174 0.663128C8.57264 0.651613 9.42384 0.660304 10.2749 0.661407C10.345 0.661495 10.4159 0.666966 10.485 0.678348C11.5051 0.846084 12.1647 1.62277 12.1692 2.66047C12.1703 2.94022 12.1693 3.21997 12.1693 3.51379C12.2528 3.51379 12.3161 3.51379 12.3794 3.51379C13.3126 3.51383 14.2461 3.49936 15.179 3.51754C16.3744 3.54079 17.246 4.10263 17.7627 5.181C17.8869 5.44001 17.9349 5.73551 18.018 6.01429ZM16.6089 8.12302C16.6089 7.54416 16.6104 6.98175 16.6086 6.41938C16.6057 5.52653 16.0089 4.92397 15.1189 4.92357C11.0387 4.92194 6.95855 4.92185 2.87842 4.92361C1.99651 4.92401 1.39664 5.52533 1.39209 6.40499C1.3894 6.92748 1.3913 7.44997 1.39205 7.9725C1.39214 8.02248 1.39884 8.07251 1.40251 8.12302C6.4744 8.12302 11.5284 8.12302 16.6089 8.12302ZM10.7563 3.50955C10.7563 3.17717 10.769 2.8608 10.7524 2.54602C10.7383 2.27841 10.5195 2.0745 10.2504 2.07238C9.41696 2.0658 8.5834 2.06647 7.74993 2.07216C7.50645 2.07383 7.28551 2.23976 7.2649 2.47764C7.23543 2.81801 7.2574 3.16279 7.2574 3.5096C8.42255 3.50955 9.57808 3.50955 10.7563 3.50955Z" fill="#2C2A26" fill-opacity="0.62"/>
</g>
<defs>
<clipPath id="clip0_182_260">
<rect width="18" height="18" fill="white"/>
</clipPath>
</defs>
</svg>
