<svg width="18" height="18" viewBox="0 0 18 18" fill="none" xmlns="http://www.w3.org/2000/svg">
<g clip-path="url(#clip0_182_3530)">
<path d="M18.0182 6.01429C18.0182 7.71683 18.0182 9.41942 18.0182 11.122C18.0114 11.1315 18.0012 11.1401 17.9984 11.1507C17.8881 11.5558 17.5027 11.7327 17.1923 11.6749C16.8247 11.6066 16.6104 11.3168 16.6094 10.8898C16.6085 10.5435 16.6092 10.1971 16.6092 9.85085C16.6092 9.7481 16.6092 9.64535 16.6092 9.54577C14.3064 9.54577 12.0311 9.54577 9.74024 9.54577C9.74024 9.72948 9.74037 9.90423 9.74019 10.0789C9.74001 10.255 9.74482 10.4313 9.73799 10.6072C9.72276 11.0002 9.41685 11.2977 9.03519 11.2974C8.65349 11.2971 8.34554 10.9995 8.33399 10.6061C8.32516 10.307 8.33156 10.0074 8.33121 9.70808C8.33116 9.65263 8.33121 9.59717 8.33121 9.54639C6.0036 9.54639 3.7049 9.54639 1.39741 9.54639C1.39525 9.59002 1.39207 9.62408 1.39207 9.65814C1.39185 11.2723 1.39062 12.8865 1.39419 14.5007C1.3945 14.634 1.41144 14.7718 1.44762 14.8999C1.636 15.5668 2.16479 15.9477 2.89481 15.9479C5.48337 15.9487 8.07193 15.9483 10.6605 15.9483C12.1455 15.9483 13.6306 15.9476 15.1156 15.9487C15.46 15.9489 15.7769 15.8679 16.0529 15.6535C16.4209 15.3678 16.5842 14.9842 16.6117 14.5265C16.6418 14.0259 17.1035 13.7147 17.5559 13.8795C17.8025 13.9693 17.932 14.1645 18.0181 14.3979C18.0181 14.5506 18.0181 14.7032 18.0181 14.8559C18.0082 14.8762 17.9918 14.8959 17.9892 14.9172C17.8269 16.2471 16.6447 17.369 15.0924 17.3628C11.0308 17.3468 6.96903 17.358 2.90738 17.3572C1.20201 17.3568 -0.0168682 16.1336 -0.0171329 14.4247C-0.01753 11.7659 -0.0185887 9.10702 -0.0148387 6.44814C-0.0145299 6.22641 -0.00164747 6.00039 0.0420731 5.78377C0.311544 4.44891 1.44038 3.52658 2.81782 3.51538C3.75687 3.50775 4.69604 3.51383 5.63513 3.51379C5.69712 3.51379 5.75915 3.51379 5.83366 3.51379C5.83366 3.16747 5.82453 2.84505 5.83534 2.52335C5.86962 1.506 6.70534 0.676892 7.72198 0.663128C8.57288 0.651613 9.42409 0.660304 10.2752 0.661407C10.3452 0.661495 10.4161 0.666966 10.4852 0.678348C11.5054 0.846084 12.165 1.62277 12.1694 2.66047C12.1706 2.94022 12.1696 3.21997 12.1696 3.51379C12.253 3.51379 12.3164 3.51379 12.3796 3.51379C13.3129 3.51383 14.2464 3.49936 15.1793 3.51754C16.3747 3.54079 17.2462 4.10263 17.7629 5.181C17.8871 5.44001 17.9352 5.73551 18.0182 6.01429ZM16.6092 8.12302C16.6092 7.54416 16.6107 6.98175 16.6088 6.41938C16.6059 5.52653 16.0092 4.92397 15.1191 4.92357C11.039 4.92194 6.95879 4.92185 2.87866 4.92361C1.99675 4.92401 1.39688 5.52533 1.39234 6.40499C1.38965 6.92748 1.39154 7.44997 1.39229 7.9725C1.39238 8.02248 1.39909 8.07251 1.40275 8.12302C6.47465 8.12302 11.5287 8.12302 16.6092 8.12302ZM10.7565 3.50955C10.7565 3.17717 10.7693 2.8608 10.7526 2.54602C10.7385 2.27841 10.5197 2.0745 10.2507 2.07238C9.41721 2.0658 8.58365 2.06647 7.75018 2.07216C7.50669 2.07383 7.28575 2.23976 7.26515 2.47764C7.23568 2.81801 7.25765 3.16279 7.25765 3.5096C8.42279 3.50955 9.57832 3.50955 10.7565 3.50955Z" fill="#2C2A26"/>
</g>
<defs>
<clipPath id="clip0_182_3530">
<rect width="18" height="18" fill="white"/>
</clipPath>
</defs>
</svg>
