<svg width="18" height="18" viewBox="0 0 18 18" fill="none" xmlns="http://www.w3.org/2000/svg">
<path d="M18.0177 6.01429C18.0177 7.71683 18.0177 9.41942 18.0177 11.122C18.0109 11.1315 18.0007 11.1401 17.9979 11.1507C17.8877 11.5558 17.5022 11.7327 17.1918 11.6749C16.8242 11.6066 16.6099 11.3168 16.6089 10.8898C16.608 10.5435 16.6087 10.1971 16.6087 9.85085C16.6087 9.7481 16.6087 9.64535 16.6087 9.54577C14.3059 9.54577 12.0306 9.54577 9.73975 9.54577C9.73975 9.72948 9.73988 9.90423 9.7397 10.0789C9.73953 10.255 9.74434 10.4313 9.7375 10.6072C9.72228 11.0002 9.41636 11.2977 9.0347 11.2974C8.653 11.2971 8.34506 10.9995 8.3335 10.6061C8.32467 10.307 8.33107 10.0074 8.33072 9.70808C8.33067 9.65263 8.33072 9.59717 8.33072 9.54639C6.00311 9.54639 3.70441 9.54639 1.39692 9.54639C1.39476 9.59003 1.39159 9.62408 1.39159 9.65814C1.39136 11.2723 1.39013 12.8865 1.3937 14.5007C1.39401 14.634 1.41095 14.7718 1.44713 14.8999C1.63551 15.5668 2.16431 15.9477 2.89432 15.9479C5.48288 15.9487 8.07144 15.9483 10.66 15.9483C12.145 15.9483 13.6301 15.9476 15.1151 15.9487C15.4595 15.9489 15.7764 15.8679 16.0525 15.6535C16.4204 15.3678 16.5838 14.9842 16.6112 14.5265C16.6413 14.0259 17.103 13.7147 17.5554 13.8795C17.802 13.9693 17.9315 14.1645 18.0176 14.3979C18.0176 14.5506 18.0176 14.7032 18.0176 14.8559C18.0077 14.8762 17.9913 14.8959 17.9887 14.9172C17.8264 16.2471 16.6442 17.369 15.0919 17.3628C11.0303 17.3468 6.96854 17.358 2.90689 17.3572C1.20153 17.3568 -0.0173565 16.1336 -0.0176212 14.4247C-0.0180182 11.7659 -0.019077 9.10702 -0.015327 6.44814C-0.0150181 6.22641 -0.00213575 6.00039 0.0415848 5.78377C0.311055 4.44891 1.43989 3.52658 2.81734 3.51538C3.75638 3.50775 4.69556 3.51383 5.63464 3.51379C5.69663 3.51379 5.75866 3.51379 5.83317 3.51379C5.83317 3.16747 5.82404 2.84505 5.83485 2.52335C5.86913 1.506 6.70485 0.676892 7.7215 0.663128C8.57239 0.651613 9.4236 0.660304 10.2747 0.661407C10.3447 0.661495 10.4156 0.666966 10.4848 0.678348C11.5049 0.846084 12.1645 1.62277 12.1689 2.66047C12.1701 2.94022 12.1691 3.21997 12.1691 3.51379C12.2526 3.51379 12.3159 3.51379 12.3791 3.51379C13.3124 3.51383 14.2459 3.49936 15.1788 3.51754C16.3742 3.54079 17.2457 4.10263 17.7625 5.181C17.8866 5.44001 17.9347 5.73551 18.0177 6.01429ZM16.6087 8.12303C16.6087 7.54416 16.6102 6.98175 16.6083 6.41938C16.6054 5.52653 16.0087 4.92397 15.1186 4.92357C11.0385 4.92194 6.95831 4.92185 2.87817 4.92361C1.99626 4.92401 1.39639 5.52533 1.39185 6.40499C1.38916 6.92748 1.39106 7.44997 1.39181 7.97249C1.39189 8.02248 1.3986 8.07251 1.40226 8.12303C6.47416 8.12303 11.5282 8.12303 16.6087 8.12303ZM10.756 3.50955C10.756 3.17717 10.7688 2.8608 10.7522 2.54602C10.738 2.27841 10.5193 2.0745 10.2502 2.07238C9.41672 2.0658 8.58316 2.06647 7.74969 2.07216C7.5062 2.07383 7.28526 2.23976 7.26466 2.47764C7.23519 2.81801 7.25716 3.16279 7.25716 3.5096C8.42231 3.50955 9.57784 3.50955 10.756 3.50955Z" fill="white"/>
</svg>
