<svg width="18" height="18" viewBox="0 0 18 18" fill="none" xmlns="http://www.w3.org/2000/svg">
<g clip-path="url(#clip0_1224_2)">
<path d="M18.0166 8.40791C18.0166 8.80722 18.0166 9.20652 18.0166 9.60588C18.0058 9.63892 17.9916 9.67126 17.9848 9.7051C17.802 10.6107 17.2631 11.1887 16.37 11.4119C16.1187 11.4747 15.8451 11.4437 15.5851 11.4798C15.4961 11.4921 15.3766 11.5605 15.3451 11.6348C15.3138 11.7085 15.3509 11.8389 15.4024 11.9138C15.4878 12.0377 15.6128 12.1336 15.7144 12.2472C16.3623 12.9712 16.4311 14.0887 15.8436 14.8616C15.6041 15.1767 15.3125 15.4574 15.0184 15.725C14.2408 16.4326 13.0214 16.4254 12.2377 15.7239C12.1153 15.6144 12.0096 15.4839 11.8778 15.3887C11.8141 15.3428 11.6934 15.3232 11.6244 15.3526C11.5548 15.3822 11.4894 15.4811 11.472 15.5605C11.4462 15.6782 11.4669 15.8056 11.4634 15.9288C11.4424 16.6517 11.1363 17.2244 10.5526 17.6495C10.2668 17.8576 9.93548 17.9513 9.59714 18.0267C9.19788 18.0267 8.79865 18.0267 8.39939 18.0267C8.37226 18.0167 8.34592 18.0025 8.3179 17.9971C7.40268 17.8205 6.82007 17.2797 6.59343 16.3793C6.53158 16.1336 6.54605 15.8677 6.53414 15.6106C6.52845 15.4879 6.49298 15.3948 6.37501 15.3425C6.25324 15.2885 6.16015 15.3349 6.07435 15.4193C5.96979 15.5223 5.86695 15.6273 5.75767 15.725C5.03339 16.3728 3.91633 16.4402 3.14273 15.8521C2.83214 15.616 2.54899 15.3336 2.29271 15.0382C1.70255 14.3577 1.60179 13.5869 1.94965 12.7576C2.08452 12.436 2.31989 12.1898 2.56571 11.9526C2.66021 11.8613 2.72462 11.764 2.66189 11.6257C2.60423 11.4987 2.4998 11.4693 2.37292 11.4725C2.24974 11.4755 2.1263 11.4745 2.00317 11.4702C1.08724 11.4375 0.247419 10.7833 0.0610659 9.88673C-0.0271694 9.46232 -0.0196696 9.01254 -0.0127872 8.57498C0.0018157 7.64829 0.669095 6.82408 1.57201 6.61541C1.8424 6.55289 2.1312 6.57389 2.40839 6.53441C2.49804 6.52161 2.61799 6.45561 2.65037 6.38163C2.68245 6.30835 2.64702 6.17696 2.59585 6.10214C2.51092 5.97795 2.38576 5.88208 2.28437 5.76821C1.68217 5.09211 1.56327 4.08045 2.0517 3.31691C2.27573 2.96666 2.58433 2.66286 2.88733 2.37217C3.74714 1.5473 4.98274 1.55591 5.85102 2.3731C5.93648 2.45352 6.00782 2.55517 6.10545 2.61451C6.17983 2.65973 6.30146 2.69048 6.37276 2.65973C6.44458 2.62876 6.50917 2.51939 6.52514 2.4346C6.55077 2.29836 6.53052 2.15397 6.53542 2.01319C6.56727 1.0966 7.22118 0.256509 8.11607 0.0682593C8.52892 -0.0185642 8.96714 -0.0182996 9.39235 -0.00563788C10.2454 0.0197298 10.8685 0.434833 11.2568 1.19648C11.4437 1.56319 11.4787 1.95844 11.4637 2.36141C11.4586 2.50064 11.4851 2.61738 11.632 2.67544C11.7749 2.73195 11.8651 2.65197 11.9553 2.56183C12.0466 2.4706 12.1381 2.37914 12.2344 2.29324C12.9744 1.63258 14.0899 1.57201 14.8775 2.17819C15.1776 2.40919 15.4439 2.68946 15.7015 2.96939C16.3661 3.69142 16.4248 4.80963 15.8445 5.59898C15.7098 5.78216 15.5294 5.93141 15.391 6.11233C15.3404 6.17855 15.3136 6.30694 15.3436 6.37863C15.3738 6.45071 15.482 6.51332 15.5671 6.53348C15.6783 6.55986 15.8004 6.53798 15.9177 6.54133C16.6408 6.56202 17.214 6.86776 17.639 7.45183C17.8471 7.73772 17.9418 8.06899 18.0166 8.40791ZM4.37052 3.17277C4.36311 3.15711 4.35565 3.1415 4.34824 3.12583C4.18668 3.21063 4.00889 3.27469 3.86767 3.38538C3.68877 3.52567 3.53542 3.69994 3.37849 3.86657C3.0901 4.17288 3.09124 4.57011 3.37682 4.87889C3.48437 4.99523 3.60226 5.10248 3.70483 5.22292C4.5147 6.17392 3.99517 7.67247 2.76861 7.91008C2.55782 7.95094 2.3367 7.94255 2.12012 7.94904C1.68561 7.9621 1.39642 8.24948 1.38971 8.68624C1.38627 8.90935 1.38464 9.13267 1.3906 9.35564C1.40145 9.76069 1.69104 10.0493 2.09546 10.0628C2.24798 10.0678 2.40115 10.0599 2.55318 10.0703C3.79487 10.1553 4.50976 11.5509 3.8412 12.5988C3.71674 12.7939 3.53899 12.9558 3.38096 13.1285C3.09032 13.4461 3.08815 13.8421 3.38507 14.1543C3.53877 14.3159 3.69618 14.4744 3.85845 14.6274C4.16449 14.9159 4.56093 14.9152 4.87033 14.6296C4.94793 14.558 5.01989 14.4802 5.09542 14.4063C6.02714 13.4946 7.48977 13.9262 7.84404 15.0369C7.9291 15.3037 7.92429 15.6025 7.93854 15.8877C7.95985 16.3139 8.23827 16.6072 8.6614 16.6162C8.89029 16.621 9.11948 16.6219 9.34827 16.6157C9.75287 16.6047 10.0407 16.3144 10.0538 15.9093C10.0586 15.7626 10.0514 15.6154 10.0602 15.4691C10.1298 14.316 11.3412 13.5755 12.3893 14.0593C12.607 14.1599 12.8047 14.3242 12.98 14.4922C13.4749 14.9663 13.7954 14.9718 14.2835 14.4836C14.3956 14.3715 14.5108 14.2623 14.6189 14.1465C14.9056 13.8394 14.905 13.4435 14.6188 13.1341C14.5152 13.0221 14.4017 12.9189 14.302 12.8037C13.5584 11.9436 13.8922 10.5746 14.9611 10.1873C15.2441 10.0848 15.5693 10.0857 15.8768 10.0676C16.303 10.0424 16.5969 9.76744 16.606 9.34457C16.611 9.11564 16.6117 8.88641 16.6056 8.65757C16.5948 8.25283 16.3047 7.9643 15.9002 7.95098C15.7536 7.94613 15.6064 7.95336 15.4601 7.94463C14.307 7.87558 13.5622 6.66266 14.051 5.61707C14.1691 5.36454 14.3753 5.14611 14.5686 4.93748C14.9168 4.56147 14.9245 4.17455 14.5614 3.80842C14.4209 3.66667 14.2827 3.52232 14.1372 3.38573C13.8308 3.09799 13.4345 3.09879 13.1252 3.38471C13.0132 3.48826 12.911 3.60327 12.7943 3.70091C12.3029 4.1116 11.7475 4.21752 11.1482 3.99641C10.5647 3.78116 10.2007 3.3578 10.089 2.74139C10.0527 2.54127 10.0613 2.33251 10.0555 2.12754C10.0432 1.69298 9.75521 1.40383 9.31849 1.39713C9.09543 1.39373 8.87215 1.39201 8.64918 1.39805C8.24418 1.40895 7.95579 1.69858 7.94233 2.10319C7.93726 2.2557 7.94507 2.40892 7.93474 2.56099C7.86433 3.59683 6.85721 4.31211 5.85358 4.04864C5.4792 3.95035 5.19512 3.72433 4.93907 3.45116C4.78461 3.28611 4.60452 3.17577 4.37052 3.17277Z" fill="#2C2A26" fill-opacity="0.62"/>
<path d="M9.02195 4.90527C10.9584 4.94127 12.6268 6.31267 13.0033 8.19848C13.1293 8.82927 13.1098 9.45813 12.9415 10.0813C12.8305 10.4922 12.4785 10.7306 12.1014 10.6444C11.6983 10.5522 11.4726 10.2053 11.5706 9.7771C11.702 9.20313 11.7137 8.64244 11.5078 8.08135C11.0945 6.95546 9.92729 6.21292 8.75455 6.34007C7.49477 6.47666 6.5143 7.41442 6.35159 8.63829C6.13903 10.2373 7.3453 11.6597 8.94615 11.6772C9.22925 11.6803 9.51602 11.6172 9.79626 11.5607C10.2395 11.4712 10.5958 11.6624 10.6997 12.0676C10.7988 12.454 10.5731 12.8045 10.1466 12.9265C7.83876 13.5867 5.49571 12.1772 4.99484 9.8273C4.51802 7.59027 6.06236 5.34164 8.32361 4.98455C8.55478 4.94798 8.78909 4.93121 9.02195 4.90527Z" fill="#2C2A26" fill-opacity="0.62"/>
</g>
<defs>
<clipPath id="clip0_1224_2">
<rect width="18" height="18" fill="white"/>
</clipPath>
</defs>
</svg>
