<svg width="9" height="10" viewBox="0 0 9 10" fill="none" xmlns="http://www.w3.org/2000/svg">
<g clip-path="url(#clip0_182_563)">
<path d="M-0.0104265 3.00409C0.0310984 2.83708 0.0972986 2.68718 0.231123 2.5758C0.455348 2.38912 0.780973 2.3852 1.00557 2.57335C1.04905 2.60976 1.08992 2.65001 1.12927 2.69136C2.22537 3.8427 3.32115 4.99435 4.41667 6.14627C4.44137 6.17225 4.46272 6.20175 4.5125 6.2623C4.5384 6.21601 4.5508 6.17829 4.57495 6.15286C5.67815 4.99154 6.78282 3.83179 7.88605 2.6705C8.08055 2.46577 8.30317 2.38008 8.57357 2.46782C8.97547 2.59826 9.13857 3.1372 8.8819 3.48723C8.85332 3.52622 8.82217 3.56355 8.78907 3.59835C7.51917 4.93345 6.2491 6.26834 4.97855 7.60279C4.7411 7.85217 4.446 7.90327 4.17817 7.73748C4.11347 7.69742 4.05595 7.64143 4.00235 7.58516C2.76452 6.28613 1.52842 4.98531 0.289699 3.68725C0.152424 3.5434 0.0299482 3.39497 -0.0104771 3.18916C-0.0104265 3.12748 -0.0104265 3.06577 -0.0104265 3.00409Z" fill="#2C2A26"/>
</g>
<defs>
<clipPath id="clip0_182_563">
<rect width="9" height="9" fill="white" transform="matrix(0 1 -1 0 9 0.5)"/>
</clipPath>
</defs>
</svg>
