<svg width="16" height="16" viewBox="0 0 16 16" fill="none" xmlns="http://www.w3.org/2000/svg">
<g clip-path="url(#clip0_339_624)">
<path d="M7.87848 15.9998C7.50527 15.8729 7.3489 15.6077 7.37852 15.2202C7.38565 15.127 7.37644 15.0326 7.38115 14.9391C7.39802 14.6032 7.67086 14.3436 8.00369 14.3438C8.33652 14.3439 8.60961 14.6041 8.62569 14.9395C8.63019 15.033 8.6209 15.1274 8.62815 15.2206C8.65823 15.6084 8.5014 15.8732 8.12802 15.9998C8.04482 15.9998 7.96165 15.9998 7.87848 15.9998Z" fill="#547DE2"/>
<path d="M8.12783 0C8.49354 0.123583 8.655 0.380209 8.62791 0.763417C8.62096 0.861875 8.63016 0.961375 8.62545 1.06012C8.60945 1.39525 8.33583 1.656 8.0035 1.65608C7.67104 1.65617 7.39783 1.39621 7.38104 1.06054C7.37612 0.961833 7.38529 0.862333 7.37837 0.763833C7.35141 0.380708 7.51312 0.124167 7.87833 4.19617e-05C7.9615 2.95001e-07 8.04466 0 8.12783 0Z" fill="#547DE2"/>
<path d="M8.00253 13.4364C6.86724 13.393 5.81761 13.0763 4.82707 12.5477C3.33703 11.7527 2.11261 10.6367 1.02657 9.3585C0.760863 9.04575 0.513279 8.71691 0.268071 8.3875C0.0818627 8.13733 0.0804045 7.86716 0.260904 7.61983C1.43195 6.01508 2.80561 4.62445 4.53195 3.61587C5.64582 2.96512 6.83782 2.56816 8.14295 2.59937C9.33928 2.628 10.434 3.01187 11.4611 3.60504C12.8375 4.4 13.9864 5.46225 15.0067 6.67091C15.258 6.9687 15.4951 7.27929 15.7267 7.59291C15.9634 7.91349 15.9056 8.30662 15.6065 8.5162C15.3042 8.72795 14.9448 8.63275 14.7022 8.30662C13.5703 6.78475 12.263 5.45141 10.5739 4.54508C9.7144 4.08387 8.80053 3.80741 7.81265 3.85183C6.8849 3.89354 6.03565 4.1997 5.23407 4.65204C3.98136 5.35891 2.9492 6.32591 2.01449 7.40633C1.87161 7.5715 1.73282 7.74062 1.60165 7.91508C1.57474 7.95091 1.56557 8.03866 1.58986 8.06908C2.7497 9.52129 4.05499 10.8061 5.75824 11.6143C6.61695 12.0218 7.51995 12.2301 8.47849 12.1257C9.27582 12.0388 10.0097 11.7629 10.7084 11.3808C11.4422 10.9795 12.1018 10.476 12.7209 9.9162C13.0155 9.64987 13.3955 9.65616 13.6376 9.92583C13.863 10.1769 13.8665 10.5546 13.6144 10.7856C12.3531 11.9412 10.9681 12.8873 9.26457 13.2585C8.85057 13.3486 8.42353 13.3787 8.00253 13.4364Z" fill="#547DE2"/>
<path d="M8.00456 5.34473C9.46264 5.34519 10.6523 6.53602 10.6536 7.99648C10.655 9.4636 9.46048 10.6581 7.9951 10.6549C6.53989 10.6518 5.35168 9.45531 5.35352 7.99485C5.35539 6.53539 6.54689 5.34427 8.00456 5.34473ZM9.40577 8.00227C9.40693 7.23298 8.78056 6.59952 8.01414 6.59489C7.23964 6.59023 6.60277 7.22231 6.60143 7.99693C6.6001 8.76531 7.22731 9.39973 7.99327 9.40473C8.76739 9.40981 9.4046 8.77714 9.40577 8.00227Z" fill="#547DE2"/>
<path d="M12.2979 12.9864C12.3065 12.67 12.422 12.477 12.6528 12.3667C12.8829 12.2567 13.1124 12.2795 13.3093 12.4422C13.4486 12.5574 13.5774 12.6889 13.6934 12.8277C13.8917 13.0647 13.8776 13.3974 13.6751 13.6278C13.4747 13.856 13.13 13.9226 12.8873 13.7417C12.7029 13.6042 12.5433 13.4272 12.3955 13.2488C12.3285 13.1679 12.3168 13.041 12.2979 12.9864Z" fill="#547DE2"/>
<path d="M12.9756 3.69782C12.6641 3.68811 12.4714 3.5727 12.3617 3.34103C12.2523 3.11015 12.2753 2.88057 12.4384 2.68353C12.5537 2.54428 12.6847 2.41511 12.823 2.29857C13.0573 2.1012 13.3937 2.11586 13.6219 2.31807C13.8443 2.51503 13.9156 2.85482 13.7409 3.09407C13.5994 3.28782 13.4133 3.45295 13.2287 3.60907C13.1529 3.67328 13.029 3.68049 12.9756 3.69782Z" fill="#547DE2"/>
<path d="M3.72285 3.06351C3.70256 3.3193 3.59369 3.51113 3.37198 3.62505C3.15156 3.7383 2.92289 3.73238 2.72748 3.57659C2.57052 3.45147 2.42477 3.30605 2.29852 3.1498C2.11581 2.92363 2.13498 2.60867 2.3196 2.38738C2.50894 2.16042 2.83698 2.0693 3.07452 2.23567C3.28631 2.38401 3.46031 2.59122 3.63289 2.78834C3.69135 2.85513 3.69448 2.97042 3.72285 3.06351Z" fill="#547DE2"/>
<path d="M3.02767 12.3027C3.3373 12.3115 3.52684 12.4226 3.63892 12.646C3.7505 12.8684 3.74096 13.0969 3.58546 13.2914C3.46013 13.4483 3.3145 13.5942 3.15738 13.7191C2.92096 13.907 2.59225 13.8762 2.37371 13.6707C2.15446 13.4644 2.0948 13.1308 2.27363 12.8916C2.4115 12.7071 2.58788 12.5472 2.76613 12.3994C2.847 12.3324 2.97392 12.3212 3.02767 12.3027Z" fill="#547DE2"/>
</g>
<defs>
<clipPath id="clip0_339_624">
<rect width="16" height="16" fill="white"/>
</clipPath>
</defs>
</svg>
