<svg width="16" height="16" viewBox="0 0 16 16" fill="none" xmlns="http://www.w3.org/2000/svg">
<path d="M0 2.28544C0 1.65329 0.510714 1.14258 1.14286 1.14258H14.8571C15.4893 1.14258 16 1.65329 16 2.28544C16 2.91758 15.4893 3.42829 14.8571 3.42829H1.14286C0.510714 3.42829 0 2.91758 0 2.28544ZM0 7.99972C0 7.36758 0.510714 6.85686 1.14286 6.85686H14.8571C15.4893 6.85686 16 7.36758 16 7.99972C16 8.63186 15.4893 9.14258 14.8571 9.14258H1.14286C0.510714 9.14258 0 8.63186 0 7.99972ZM16 13.714C16 14.3462 15.4893 14.8569 14.8571 14.8569H1.14286C0.510714 14.8569 0 14.3462 0 13.714C0 13.0819 0.510714 12.5712 1.14286 12.5712H14.8571C15.4893 12.5712 16 13.0819 16 13.714Z" fill="#2C2A26"/>
</svg>
