<svg width="32" height="32" viewBox="0 0 32 32" fill="none" xmlns="http://www.w3.org/2000/svg">
<path d="M0 16.9418C0 16.3155 0 15.6892 0 15.0629C0.0234908 14.8359 0.0548118 14.6166 0.0783026 14.3896C0.461986 10.9449 1.77747 7.90724 4.09523 5.33151C6.56176 2.59921 9.61556 0.8925 13.2488 0.250526C13.8517 0.140921 14.4625 0.0861184 15.0654 0C15.6918 0 16.3183 0 16.9447 0C17.4771 0.0704605 18.0174 0.117435 18.5499 0.203553C21.8934 0.759408 24.8063 2.19993 27.2023 4.59559C30.7964 8.18908 32.3781 12.5576 31.924 17.6073C31.6108 21.0364 30.264 24.0584 27.954 26.6184C24.9394 29.9692 21.1495 31.7699 16.6471 31.9813C13.4994 32.13 10.5395 31.3941 7.85375 29.75C3.69588 27.2134 1.15105 23.5495 0.250568 18.7503C0.133114 18.1553 0.0783026 17.5447 0 16.9418ZM15.0184 7.15566C15.0184 6.57632 15.0263 5.98915 15.0106 5.4098C15.0106 5.3002 14.9245 5.15145 14.8305 5.09665C13.5855 4.4077 12.3248 3.73441 11.072 3.06895C10.9859 3.02197 10.8449 3.01415 10.7588 3.05329C8.58197 3.93013 6.74969 5.27671 5.24628 7.0852C5.18363 7.16349 5.14448 7.31224 5.16797 7.41401C5.45769 8.78408 5.74741 10.162 6.06062 11.532C6.09194 11.6651 6.21723 11.8217 6.34251 11.8843C7.2195 12.3306 8.11215 12.7534 8.99697 13.1996C9.16924 13.2857 9.29452 13.2936 9.46679 13.1683C11.2443 11.8609 13.0296 10.5613 14.8149 9.26947C14.9715 9.15987 15.0184 9.04244 15.0184 8.85454C15.0106 8.28303 15.0184 7.71934 15.0184 7.15566ZM17.0152 7.14783C17.0152 7.71934 17.0073 8.29086 17.023 8.86237C17.023 8.98763 17.1013 9.14421 17.1953 9.21467C18.9962 10.5456 20.805 11.853 22.6138 13.1761C22.7547 13.2779 22.8565 13.2779 23.0053 13.2074C23.9058 12.7534 24.8219 12.3228 25.7146 11.8687C25.832 11.8061 25.9495 11.6651 25.9808 11.532C26.2862 10.1855 26.5837 8.83105 26.8578 7.47665C26.8813 7.35138 26.8343 7.16349 26.7482 7.06171C25.2761 5.28454 23.4595 3.95362 21.3218 3.06895C21.22 3.02197 21.0556 3.0298 20.9538 3.08461C19.7009 3.74224 18.4559 4.41553 17.2187 5.09665C17.117 5.15145 17.023 5.30803 17.023 5.42546C17.0073 6.0048 17.0152 6.57632 17.0152 7.14783ZM5.45769 13.685C4.3458 14.8907 3.26522 16.065 2.18464 17.2472C2.122 17.3098 2.09068 17.4351 2.09851 17.5212C2.34908 19.7603 3.09295 21.8271 4.33797 23.7061C4.40844 23.8157 4.57287 23.9096 4.70599 23.9174C6.0293 24.0036 7.34479 24.074 8.6681 24.1288C8.80122 24.1367 8.97348 24.0584 9.05961 23.9644C9.62339 23.3146 10.1793 22.6491 10.7196 21.9759C10.7901 21.8819 10.8293 21.7018 10.7979 21.6001C10.0775 19.5254 9.34933 17.4586 8.62112 15.3917C8.5898 15.2978 8.51149 15.1803 8.42536 15.1412C7.43875 14.648 6.45997 14.1782 5.45769 13.685ZM16.0285 23.0014C14.9245 23.0014 13.8204 22.9936 12.7163 23.0093C12.5832 23.0093 12.411 23.0876 12.3327 23.1893C11.7532 23.8626 11.1894 24.5359 10.6335 25.2327C10.5552 25.3345 10.516 25.5224 10.5474 25.6398C10.9076 26.7985 11.2756 27.9572 11.6593 29.1159C11.6984 29.2255 11.8237 29.3507 11.9411 29.3899C14.3764 30.1336 16.8272 30.2119 19.3016 29.6013C19.4974 29.5543 19.607 29.476 19.6853 29.2959C20.2491 28.059 20.8207 26.822 21.4001 25.5928C21.4941 25.3971 21.4549 25.2797 21.3296 25.1309C20.7815 24.5046 20.2491 23.8626 19.7166 23.2207C19.5913 23.0719 19.466 23.0093 19.2703 23.0093C18.1975 23.0093 17.1091 23.0014 16.0285 23.0014ZM26.5759 13.6928C25.5815 14.1782 24.6183 14.648 23.6631 15.1334C23.5534 15.1882 23.4595 15.3369 23.4125 15.4543C22.6764 17.4899 21.9561 19.5254 21.22 21.5609C21.1574 21.741 21.1809 21.8584 21.2983 22.0072C21.8464 22.6413 22.3711 23.2833 22.9192 23.9096C22.9975 23.9957 23.1697 24.074 23.2794 24.0505C24.7906 23.7609 26.3019 23.4634 27.8131 23.1502C27.9384 23.1267 28.0793 23.0328 28.142 22.9232C29.1129 21.2556 29.7002 19.4549 29.9116 17.5368C29.9194 17.4507 29.8881 17.3255 29.8333 17.2628C28.7606 16.0728 27.6722 14.8907 26.5759 13.6928Z" fill="#232323"/>
</svg>
