<svg width="24" height="24" viewBox="0 0 24 24" fill="none" xmlns="http://www.w3.org/2000/svg">
<g clip-path="url(#clip0_866_5)">
<path d="M11.5294 24.0353C11.1785 23.928 10.9656 23.6706 10.7726 23.3749C9.76335 21.8286 8.52206 20.4707 7.28418 19.1108C6.28318 18.0111 5.286 16.9081 4.43059 15.6876C3.4487 14.2867 2.74153 12.7671 2.48317 11.0624C2.25923 9.5847 2.37629 8.12876 2.82547 6.70429C3.39341 4.90329 4.42123 3.40253 5.86941 2.19976C7.247 1.0557 8.82959 0.345293 10.6084 0.0982346C13.0482 -0.240648 15.3172 0.24747 17.357 1.62647C19.4586 3.04723 20.8202 5.01194 21.3838 7.49623C21.8213 9.42441 21.6672 11.317 20.9454 13.1615C20.3206 14.758 19.334 16.1242 18.2228 17.4052C17.1358 18.6582 16.0041 19.8726 14.9289 21.1355C14.3218 21.8486 13.7795 22.6181 13.2281 23.3768C13.0214 23.6612 12.8197 23.9279 12.4688 24.0352C12.1556 24.0354 11.8425 24.0353 11.5294 24.0353ZM11.9908 21.8245C12.3178 21.395 12.5991 20.9806 12.9251 20.6051C14.1762 19.1635 15.4481 17.7401 16.6995 16.2988C17.6763 15.1739 18.5794 13.9965 19.1488 12.5998C19.8677 10.8365 19.9513 9.03965 19.3641 7.23265C18.752 5.34923 17.5699 3.90018 15.8544 2.90794C14.1521 1.92341 12.3197 1.63741 10.4005 2.04212C8.45371 2.45265 6.87782 3.47906 5.72165 5.09935C4.32365 7.05859 3.93041 9.22894 4.50447 11.5639C4.82917 12.8847 5.4967 14.0425 6.33012 15.1011C6.91994 15.8504 7.54029 16.5774 8.17494 17.2894C9.48118 18.7549 10.8385 20.1762 11.9908 21.8245Z" fill="#0160C9"/>
<path d="M6.12775 9.51877C6.09875 6.86706 8.14463 4.36683 10.8722 3.85365C13.8227 3.29853 16.6768 4.99271 17.5945 7.85883C17.9516 8.9743 17.9634 10.104 17.6397 11.2335C17.4846 11.7746 17.0007 12.0747 16.4945 11.9429C15.9815 11.8094 15.691 11.3244 15.8244 10.7747C16.0006 10.0483 16.0627 9.32441 15.8527 8.59635C15.4387 7.16147 14.5176 6.19435 13.088 5.78683C11.5973 5.36188 10.2506 5.72106 9.16469 6.82547C8.06504 7.94388 7.72816 9.31141 8.20192 10.8084C8.67445 12.3016 9.73257 13.2054 11.2667 13.5375C11.8922 13.6729 12.5099 13.5884 13.1269 13.4556C13.6657 13.3396 14.1387 13.6352 14.2586 14.1421C14.3795 14.6528 14.0942 15.1184 13.5647 15.2744C11.1562 15.9842 8.36704 14.9019 7.04522 12.7588C6.45539 11.8024 6.1488 10.7704 6.12775 9.51877Z" fill="#0160C9"/>
</g>
<defs>
<clipPath id="clip0_866_5">
<rect width="24" height="24" fill="white"/>
</clipPath>
</defs>
</svg>
