<svg width="24" height="24" viewBox="0 0 24 24" fill="none" xmlns="http://www.w3.org/2000/svg">
<path d="M12.6094 0C13.1036 0.0630939 13.6027 0.100594 14.0913 0.193453C17.5209 0.845345 20.183 2.6588 22.1145 5.55231C22.6182 6.3069 23.0055 7.12609 23.3152 7.98001C23.5018 8.4948 23.2893 9.00616 22.8095 9.20575C22.3225 9.4083 21.7855 9.1931 21.5805 8.67189C21.2219 7.76008 20.7956 6.88787 20.2143 6.09564C18.7809 4.14212 16.9046 2.80801 14.5557 2.21996C11.1506 1.36744 8.06402 2.07357 5.38318 4.3501C3.4764 5.96936 2.34324 8.05361 1.98516 10.5303C1.64269 12.8993 2.07164 15.134 3.32855 17.1833C4.86249 19.6843 7.06258 21.2875 9.93555 21.9017C12.45 22.4392 14.8362 22.0271 17.0731 20.7586C17.2427 20.6624 17.4045 20.552 17.576 20.4596C18.0427 20.2081 18.5862 20.3484 18.8449 20.7812C19.1093 21.2238 18.9977 21.7744 18.5429 22.0519C18.0312 22.3641 17.5079 22.6648 16.965 22.9174C15.6508 23.529 14.2624 23.8707 12.8148 23.9674C12.7615 23.971 12.7091 23.9888 12.6564 24C12.2032 24 11.7501 24 11.297 24C11.2366 23.987 11.1767 23.9659 11.1156 23.9621C9.88249 23.8844 8.68352 23.6314 7.54919 23.1482C3.51615 21.4305 1.05005 18.4214 0.190922 14.1145C0.10125 13.6648 0.0624376 13.2051 0 12.75C0 12.2657 0 11.7813 0 11.2969C0.0135938 11.2217 0.0306564 11.1469 0.0402658 11.0711C0.0943127 10.6456 0.125344 10.216 0.202688 9.79478C1.14591 4.65849 5.3836 0.698814 10.5823 0.0870468C10.8052 0.0607967 11.0275 0.0291563 11.25 0C11.7032 0 12.1563 0 12.6094 0Z" fill="#0160C9"/>
<path d="M23.9999 13.4056C23.9091 13.7586 23.8531 14.1253 23.7216 14.4624C23.1257 15.9894 22.0096 16.9346 20.3939 17.184C18.7196 17.4424 17.3459 16.8438 16.3037 15.5019C16.2561 15.4407 16.2082 15.3798 16.1464 15.3007C14.9596 16.6869 13.4689 17.3819 11.6474 17.2763C10.3249 17.1997 9.18606 16.6696 8.25142 15.7321C6.34051 13.8154 6.19032 10.8552 7.87108 8.68817C9.40488 6.7107 12.8231 5.77371 15.46 7.96447C15.4651 7.88492 15.4674 7.81882 15.474 7.75311C15.5239 7.26214 15.9425 6.88442 16.4233 6.89557C16.9105 6.90687 17.308 7.29265 17.34 7.78746C17.3456 7.87306 17.3435 7.95922 17.3435 8.04509C17.3439 9.70077 17.3349 11.3565 17.3473 13.0121C17.3572 14.3326 18.4628 15.3924 19.7814 15.373C21.0194 15.3547 22.0707 14.3236 22.1249 13.0818C22.1317 12.9282 22.1482 12.7655 22.2053 12.6254C22.3549 12.2586 22.6473 12.0608 23.0411 12.0517C23.4348 12.0426 23.7269 12.2308 23.9064 12.5845C23.9413 12.6532 23.969 12.7255 24 12.7961C23.9999 12.9993 23.9999 13.2025 23.9999 13.4056ZM11.9957 15.4205C13.8715 15.4234 15.4115 13.8924 15.421 12.0154C15.4305 10.1307 13.8897 8.58068 12.0042 8.5782C10.1283 8.57576 8.58869 10.1062 8.57875 11.9834C8.56876 13.8676 10.1096 15.4176 11.9957 15.4205Z" fill="#0160C9"/>
</svg>
