<svg width="24" height="24" viewBox="0 0 24 24" fill="none" xmlns="http://www.w3.org/2000/svg">
<g clip-path="url(#clip0_866_14)">
<path d="M18.0641 24.0353C14.0248 24.0353 9.9854 24.0353 5.94605 24.0353C5.38458 23.8438 5.15328 23.4442 5.19205 22.8625C5.2074 22.6321 5.19458 22.3998 5.19458 22.1501C4.62246 22.1501 4.08258 22.1678 3.54416 22.1469C1.6494 22.0732 0.0291635 20.4844 -0.00330704 18.5879C-0.0437776 16.2242 -0.0312484 13.859 -0.00460135 11.4949C0.00663395 10.4978 0.43334 9.64765 1.15775 8.95936C1.8891 8.26453 2.76781 7.92818 3.77416 7.92254C4.24122 7.91995 4.70834 7.92206 5.19463 7.92206C5.19463 7.80383 5.19463 7.71165 5.19463 7.61942C5.19463 5.44283 5.1944 3.26624 5.19475 1.08959C5.19487 0.342298 5.55452 -0.0171136 6.30234 -0.0171725C10.099 -0.0174078 13.8956 -0.0173484 17.6922 -0.0172308C18.4595 -0.017172 18.8155 0.335946 18.8156 1.0973C18.8159 3.27389 18.8158 5.45048 18.8158 7.62712C18.8158 7.71865 18.8158 7.81012 18.8158 7.92512C19.3553 7.92512 19.8712 7.90242 20.3845 7.92942C21.8693 8.00747 22.9679 8.71665 23.6375 10.0407C23.8274 10.4162 23.9019 10.8502 24.0293 11.2574C24.0293 12.1343 24.0293 13.0112 24.0293 13.8881C24.0198 13.9004 24.0052 13.9114 24.0016 13.9252C23.8603 14.4652 23.3408 14.7018 22.9281 14.6242C22.4362 14.5317 22.1519 14.149 22.1508 13.5778C22.1496 12.975 22.1715 12.3712 22.1417 11.7698C22.1266 11.4644 22.0739 11.1379 21.9445 10.8655C21.5895 10.1184 20.9502 9.80053 20.1366 9.80065C14.9079 9.80148 9.67922 9.80106 4.45058 9.80112C4.21575 9.80112 3.98075 9.79577 3.74616 9.80283C2.67387 9.83518 1.87305 10.6134 1.86546 11.6857C1.84963 13.9246 1.85152 16.1638 1.86546 18.4027C1.87099 19.2944 2.43905 20.0463 3.29405 20.2027C3.9074 20.3148 4.54863 20.2745 5.17675 20.3022C5.17675 18.9605 5.17675 17.674 5.17675 16.3744C4.9794 16.3744 4.79887 16.3864 4.62052 16.3719C4.23646 16.3405 3.95611 16.1452 3.81105 15.7867C3.66563 15.4271 3.73505 15.0918 3.99058 14.8042C4.20258 14.5656 4.48363 14.4966 4.79611 14.497C7.34781 14.5003 9.89952 14.4988 12.4513 14.4988C14.6664 14.4988 16.8816 14.4988 19.0967 14.4988C19.8389 14.4988 20.2738 14.8494 20.27 15.4442C20.2663 16.0308 19.835 16.3775 19.1085 16.3779C19.0172 16.378 18.9259 16.3779 18.8318 16.3779C18.8318 17.6908 18.8318 18.9772 18.8318 20.2705C19.3556 20.2705 19.8636 20.2816 20.3709 20.2668C20.7461 20.2558 21.0894 20.1264 21.3911 19.8973C21.8933 19.5161 22.1169 18.9995 22.1542 18.3796C22.1967 17.6731 22.8862 17.2597 23.4998 17.5548C23.7829 17.6909 23.9209 17.9367 24.0293 18.21C24.0293 18.4136 24.0293 18.6171 24.0293 18.8207C24.0141 18.8634 23.9924 18.9048 23.9846 18.9488C23.7299 20.3927 22.9248 21.4028 21.5537 21.9109C21.1176 22.0725 20.6265 22.1069 20.156 22.1479C19.7169 22.1862 19.2718 22.1561 18.8157 22.1561C18.8157 22.413 18.803 22.6396 18.8182 22.8644C18.8571 23.4458 18.6243 23.8439 18.0641 24.0353ZM7.09034 1.87195C7.09034 3.89765 7.09034 5.90395 7.09034 7.90312C10.3812 7.90312 13.655 7.90312 16.924 7.90312C16.924 5.88348 16.924 3.88271 16.924 1.87195C13.6429 1.87195 10.3746 1.87195 7.09034 1.87195ZM16.9267 16.3948C13.6329 16.3948 10.3591 16.3948 7.09258 16.3948C7.09258 18.3242 7.09258 20.2366 7.09258 22.1435C10.38 22.1435 13.6483 22.1435 16.9267 22.1435C16.9267 20.2239 16.9267 18.3171 16.9267 16.3948Z" fill="#0160C9"/>
<path d="M19.7469 13.0878C19.2305 13.0832 18.8097 12.6522 18.8175 12.1358C18.8253 11.6195 19.2591 11.2011 19.7752 11.2121C20.2821 11.223 20.6943 11.6452 20.6929 12.1524C20.6915 12.669 20.2633 13.0924 19.7469 13.0878Z" fill="#0160C9"/>
<path d="M12.0041 20.2762C11.2997 20.2762 10.5953 20.2828 9.89107 20.2739C9.42454 20.2681 9.06525 19.9616 8.97107 19.5172C8.88419 19.1072 9.10278 18.6637 9.49842 18.4942C9.63783 18.4345 9.80013 18.4029 9.95219 18.4022C11.3217 18.3953 12.6913 18.3956 14.0608 18.3994C14.6394 18.401 15.0539 18.7964 15.0566 19.333C15.0593 19.8698 14.6447 20.2714 14.0701 20.2758C13.3815 20.2811 12.6928 20.2771 12.0041 20.2771C12.0041 20.2768 12.0041 20.2765 12.0041 20.2762Z" fill="#0160C9"/>
</g>
<defs>
<clipPath id="clip0_866_14">
<rect width="24" height="24" fill="white"/>
</clipPath>
</defs>
</svg>
