<svg width="24" height="24" viewBox="0 0 24 24" fill="none" xmlns="http://www.w3.org/2000/svg">
<g clip-path="url(#clip0_866_9)">
<path d="M16.8351 24.0352C16.4184 23.9752 16.0002 23.9234 15.5851 23.8537C14.3837 23.6523 13.2355 23.2718 12.12 22.7911C11.6169 22.5744 11.404 22.0483 11.5999 21.5677C11.7953 21.0886 12.3186 20.8552 12.8254 21.0594C13.7989 21.4516 14.7846 21.7994 15.8199 21.9877C17.3425 22.2647 18.8401 22.2375 20.2829 21.5972C20.8028 21.3665 21.2692 21.0527 21.6739 20.6542C22.2645 20.0728 22.3152 19.0598 21.7518 18.4303C21.1225 17.7273 20.401 17.1209 19.561 16.6816C18.4481 16.0995 17.6774 16.2386 16.7455 17.1529C16.2259 17.6627 15.7124 18.1788 15.1959 18.6917C14.7272 19.1571 14.3903 19.2141 13.8074 18.9195C12.3658 18.1909 11.0742 17.2428 9.87512 16.1711C8.20965 14.6826 6.74212 13.0205 5.58659 11.0986C5.39748 10.784 5.22289 10.4599 5.05559 10.1331C4.80718 9.648 4.87048 9.26683 5.25212 8.87453C5.86871 8.24071 6.49583 7.61689 7.10259 6.97389C7.75465 6.28294 7.82271 5.49012 7.42706 4.65171C6.98289 3.71041 6.32559 2.92194 5.55612 2.23677C4.90077 1.65324 3.86112 1.76488 3.27189 2.41783C2.18983 3.61683 1.83759 5.06283 1.85818 6.626C1.87965 8.25418 2.30159 9.79547 2.96336 11.2719C4.2803 14.2103 6.27236 16.6168 8.78059 18.6136C8.96224 18.7582 9.14789 18.9157 9.27689 19.1046C9.51865 19.4586 9.43783 19.9402 9.12777 20.2429C8.80477 20.5582 8.32301 20.6124 7.94536 20.3362C7.54801 20.0456 7.16436 19.7338 6.79342 19.4098C4.40336 17.3225 2.49489 14.8699 1.21883 11.9521C0.33283 9.92618 -0.177523 7.81971 0.022065 5.58788C0.169418 3.93988 0.719948 2.45412 1.83942 1.20453C3.21718 -0.33335 5.49812 -0.444527 6.98689 0.986532C7.79601 1.7643 8.51159 2.62741 9.02306 3.637C9.57301 4.72247 9.74659 5.84388 9.27453 7.00894C9.02636 7.62141 8.62959 8.13183 8.17195 8.59889C7.82683 8.95112 7.48048 9.3023 7.12877 9.64788C7.0323 9.74265 7.00254 9.81183 7.08183 9.94383C8.53801 12.3664 10.4348 14.3817 12.7163 16.0384C13.1712 16.3687 13.6578 16.6553 14.1303 16.9611C14.1555 16.9774 14.1862 16.9854 14.2152 16.9975C14.7558 16.4794 15.2757 15.9473 15.8319 15.4562C16.5458 14.8259 17.3851 14.4611 18.3502 14.4599C19.2007 14.4588 19.9784 14.7358 20.7037 15.1635C21.5585 15.6677 22.3102 16.305 23.0077 17.0058C23.5423 17.5429 23.8569 18.1976 23.9771 18.9461C23.9856 18.9992 24.0062 19.0504 24.0212 19.1025C24.0212 19.3531 24.0212 19.6037 24.0212 19.8542C24.0071 19.9062 23.9874 19.9574 23.9798 20.0102C23.8832 20.6771 23.6327 21.2824 23.1819 21.7808C22.2631 22.7967 21.1058 23.4272 19.7859 23.7495C19.2347 23.8841 18.6648 23.9422 18.1033 24.0352C17.6805 24.0352 17.2578 24.0352 16.8351 24.0352Z" fill="#0160C9"/>
<path d="M12.8507 0.971781C17.7093 1.06425 21.8891 4.56755 22.8279 9.36419C22.9549 10.0127 22.9881 10.6825 23.0247 11.3447C23.0576 11.9388 22.6544 12.3697 22.1149 12.3827C21.5723 12.3958 21.1668 11.9877 21.1542 11.3918C21.1255 10.0355 20.8467 8.74149 20.2272 7.52796C19.5288 6.15978 18.532 5.05807 17.2488 4.21937C16.1238 3.48407 14.8831 3.05943 13.5503 2.90654C13.2323 2.87007 12.9105 2.86455 12.5901 2.85137C12.0178 2.82784 11.6113 2.42513 11.6238 1.88825C11.6361 1.36619 12.0548 0.979368 12.616 0.971957C12.6943 0.970898 12.7725 0.971781 12.8507 0.971781Z" fill="#0160C9"/>
<path d="M14.8083 5.24414C15.0842 5.34749 15.5347 5.46667 15.9382 5.67638C17.3468 6.40849 18.2869 7.54108 18.7151 9.08014C18.8617 9.60726 18.5887 10.1259 18.1074 10.2634C17.5852 10.4126 17.0848 10.1586 16.9259 9.62185C16.6364 8.64397 16.076 7.88608 15.1759 7.40079C14.9174 7.26138 14.6283 7.17738 14.351 7.07402C13.8053 6.87067 13.5564 6.31902 13.7814 5.80255C13.9281 5.46573 14.2656 5.24479 14.8083 5.24414Z" fill="#0160C9"/>
</g>
<defs>
<clipPath id="clip0_866_9">
<rect width="24" height="24" fill="white"/>
</clipPath>
</defs>
</svg>
