<svg width="18" height="18" viewBox="0 0 18 18" fill="none" xmlns="http://www.w3.org/2000/svg">
<g clip-path="url(#clip0_6194_3044)">
<path d="M0 16.9804C0 16.8749 0 16.7695 0 16.664C0.0102305 16.6372 0.0241523 16.6112 0.0300937 16.5835C0.173109 15.9193 0.479953 15.3422 0.967254 14.869C1.16666 14.6754 1.39155 14.508 1.60495 14.3288C0.87082 13.2244 1.22481 12.0413 1.90891 11.4188C2.68225 10.7152 3.81449 10.6304 4.66274 11.2198C5.08584 11.5138 5.37775 11.9072 5.52646 12.4015C5.73318 13.0886 5.60296 13.7267 5.22524 14.3258C5.49527 14.0734 5.74066 13.7999 6.02318 13.5727C6.31209 13.3404 6.63743 13.1533 6.94631 12.9468C6.00511 11.737 6.28896 10.2213 7.18028 9.38316C8.13885 8.48175 9.55016 8.3991 10.5904 9.18815C11.1039 9.57757 11.4351 10.0905 11.5718 10.7222C11.7511 11.551 11.5496 12.2943 11.0316 12.9728C11.7223 13.2968 12.2796 13.7664 12.7659 14.3346C12.458 13.8235 12.3091 13.2844 12.407 12.692C12.5064 12.091 12.8045 11.6102 13.2947 11.2515C14.0986 10.6633 15.1894 10.6896 15.9706 11.316C16.3623 11.63 16.6209 12.0325 16.7386 12.5224C16.8966 13.1806 16.7536 13.7832 16.384 14.3437C16.4317 14.3787 16.468 14.4074 16.5064 14.4331C16.9165 14.7067 17.2494 15.0539 17.5177 15.4678C17.7568 15.8365 17.8877 16.2458 18 16.664C18 16.7695 18 16.8749 18 16.9804C17.9481 17.1217 17.9108 17.2707 17.8413 17.4027C17.6598 17.7476 17.3469 17.9153 16.9805 17.9999C11.6602 17.9999 6.33983 17.9999 1.01953 17.9999C0.88323 17.9509 0.739758 17.9159 0.612 17.8503C0.258926 17.669 0.0875039 17.3524 0 16.9804ZM12.2687 16.5874C12.0589 15.2843 10.7456 13.8741 8.90835 13.9259C7.04609 13.9785 5.88628 15.4694 5.7363 16.5874C7.90931 16.5874 10.0815 16.5874 12.2687 16.5874ZM9.00211 10.056C8.33027 10.0543 7.76904 10.6156 7.7709 11.2874C7.77273 11.9536 8.32085 12.5056 8.9891 12.5142C9.65841 12.5228 10.2239 11.9652 10.2291 11.2916C10.2343 10.621 9.67489 10.0577 9.00211 10.056ZM4.2725 16.5891C4.35952 16.2438 4.44171 15.9176 4.52412 15.5916C3.2985 14.786 1.77852 15.5629 1.51991 16.5891C2.43949 16.5891 3.3582 16.5891 4.2725 16.5891ZM16.4976 16.5866C16.0972 15.3789 14.4864 14.8625 13.4777 15.5945C13.5605 15.9236 13.6427 16.2503 13.7274 16.5866C14.6384 16.5866 15.5623 16.5866 16.4976 16.5866ZM3.42042 12.2356C2.98185 12.2298 2.61109 12.5893 2.60283 13.0282C2.5946 13.4668 2.95189 13.8392 3.39114 13.85C3.83643 13.8609 4.21411 13.4947 4.21748 13.0488C4.22079 12.6099 3.85949 12.2413 3.42042 12.2356ZM15.3972 13.0453C15.3986 12.6064 15.0357 12.2394 14.5967 12.2356C14.1579 12.2317 13.7888 12.5926 13.7826 13.0317C13.7762 13.4773 14.1461 13.8514 14.5918 13.8502C15.0309 13.8491 15.3958 13.4844 15.3972 13.0453Z" fill="#232323"/>
<path d="M0 9.56246C0 9.1992 0 8.83589 0 8.47262C0.0108281 8.41064 0.023871 8.34894 0.0320625 8.28661C0.0748125 7.96194 0.0999493 7.63397 0.161051 7.31285C0.502031 5.52034 1.31773 3.97146 2.60033 2.67655C3.94516 1.31885 5.56112 0.463992 7.44891 0.138585C7.78806 0.0801206 8.13132 0.0455625 8.47269 0C8.82425 0 9.17582 0 9.52738 0C9.58433 0.010582 9.64097 0.0237302 9.69834 0.0312536C10.0288 0.0746013 10.3627 0.0997733 10.6895 0.161894C12.4822 0.502594 14.0302 1.31913 15.3247 2.60248C16.682 3.94798 17.5369 5.56348 17.8618 7.45137C17.92 7.78971 17.9546 8.13213 18.0001 8.47266C18.0001 8.83593 18.0001 9.19923 18.0001 9.5625C17.9775 9.73533 17.9524 9.90787 17.9329 10.0811C17.8883 10.4777 17.5578 10.7569 17.1711 10.7218C16.7807 10.6863 16.4984 10.3376 16.5357 9.93656C16.5425 9.86354 16.5503 9.79059 16.5591 9.70284C16.1661 9.70284 15.7921 9.70432 15.4181 9.70235C15.1599 9.70098 14.9509 9.59734 14.8095 9.37902C14.5105 8.91714 14.83 8.31688 15.3888 8.30007C15.7741 8.28847 16.16 8.29786 16.5413 8.29786C16.5486 8.27072 16.5549 8.25975 16.5538 8.24952C16.4217 6.96066 15.9901 5.78148 15.262 4.70953C15.2034 4.62326 15.1477 4.64031 15.069 4.6632C14.7154 4.76592 14.3609 4.86552 14.0051 4.96058C13.7919 5.01753 13.5759 5.06398 13.3561 5.11636C13.4237 5.52839 13.5072 5.92383 13.55 6.32359C13.6168 6.946 13.6687 7.57065 13.7021 8.19566C13.7236 8.59848 13.4123 8.91439 13.0285 8.92839C12.6346 8.94276 12.3325 8.64334 12.3002 8.22955C12.2487 7.57044 12.1934 6.91133 12.122 6.25416C12.0889 5.94935 12.014 5.64912 11.9593 5.35363C11.1935 5.41129 10.4544 5.46694 9.70274 5.5235C9.70274 5.91008 9.70671 6.29019 9.70151 6.67019C9.69715 6.99005 9.51131 7.24693 9.22866 7.34266C8.77127 7.49756 8.31087 7.17363 8.29941 6.6793C8.29048 6.29381 8.29761 5.90797 8.29761 5.52308C7.54777 5.46715 6.81486 5.41248 6.07778 5.3575C6.06635 5.40415 6.05573 5.44335 6.04719 5.48297C5.85545 6.37288 5.77325 7.27534 5.73374 8.18307C5.71511 8.61089 5.40077 8.91105 5.0007 8.89295C4.61116 8.8753 4.30144 8.54993 4.33389 8.13653C4.39657 7.33785 4.48404 6.54103 4.5688 5.74421C4.59074 5.53809 4.64077 5.33496 4.67497 5.14656C4.06238 4.97587 3.47242 4.80867 2.87958 4.65226C2.83722 4.64108 2.7553 4.696 2.72331 4.74209C2.28284 5.37662 1.94544 6.06491 1.73507 6.8066C1.5988 7.28708 1.51657 7.78286 1.41311 8.2582C1.46 8.28411 1.4651 8.28935 1.47027 8.28942C1.79209 8.29248 2.11416 8.28854 2.43573 8.29937C2.92141 8.31572 3.23902 8.76814 3.09076 9.22152C2.99595 9.51149 2.73611 9.69743 2.40606 9.70189C2.08652 9.70618 1.76692 9.70281 1.43729 9.70281C1.44759 9.792 1.4554 9.8556 1.46222 9.91934C1.5063 10.3306 1.22576 10.6859 0.828808 10.7217C0.434215 10.7574 0.109652 10.4758 0.065707 10.0635C0.0478476 9.89603 0.0221133 9.72946 0 9.56246ZM11.5519 3.98289C11.1326 3.00115 10.6789 2.10312 9.71223 1.56962C9.71223 2.42993 9.71223 3.25888 9.71223 4.111C10.3216 4.06856 10.9202 4.02687 11.5519 3.98289ZM8.28598 4.11135C8.28598 3.25832 8.28598 2.42687 8.28598 1.56772C7.31953 2.10846 6.87653 3.00611 6.47244 3.98429C7.09253 4.02775 7.6841 4.0692 8.28598 4.11135ZM5.76953 2.13567C5.05448 2.47138 4.40866 2.90837 3.80693 3.47519C4.24016 3.57785 4.6415 3.67295 5.03216 3.76552C5.28187 3.21356 5.52364 2.67915 5.76953 2.13567ZM12.9892 3.76214C13.3749 3.6695 13.77 3.57458 14.195 3.47249C13.5877 2.91175 12.957 2.47465 12.2541 2.14924C12.4993 2.68738 12.7403 3.21599 12.9892 3.76214Z" fill="#232323"/>
</g>
<defs>
<clipPath id="clip0_6194_3044">
<rect width="18" height="18" fill="white"/>
</clipPath>
</defs>
</svg>
