<svg width="202" height="116" viewBox="0 0 202 116" fill="none" xmlns="http://www.w3.org/2000/svg">
<g id="Frame" clip-path="url(#clip0_225_1460)">
<g id="Group">
<path id="Vector" d="M0.267792 43.4868C2.43866 43.4338 4.60954 43.3809 6.78041 43.4338C7.0981 43.4338 7.46874 43.8044 7.68053 44.1221C11.7046 49.4164 15.6757 54.7108 19.6997 60.0051C19.9115 60.2699 20.1763 60.5875 20.494 61.0111C20.7587 60.5875 20.9176 60.2169 21.0764 59.8993C23.6709 54.7108 26.3183 49.5223 28.8598 44.3338C29.2304 43.6456 29.601 43.3809 30.3953 43.3809C32.3544 43.4338 34.3664 43.3809 36.4843 43.3809C36.3255 43.8044 36.2196 44.1221 36.0607 44.3868C31.9837 53.546 27.9067 62.7053 23.8297 71.8645C23.2473 73.1352 21.2352 73.3469 20.3351 72.1822C16.364 66.8878 12.34 61.6464 8.36885 56.352C8.15706 56.0873 7.94527 55.8226 7.57463 55.3461C7.57463 61.3287 7.57463 66.9937 7.57463 72.8175C5.03312 72.8175 2.59751 72.8175 0.214844 72.8175C0.267792 63.0759 0.267792 53.2813 0.267792 43.4868Z" fill="#232323"/>
<path id="Vector_2" d="M31.084 72.8706C31.2428 72.4471 31.3487 72.1294 31.4546 71.8647C35.3728 62.7055 39.3439 53.5462 43.2091 44.387C43.5268 43.6458 43.8974 43.3281 44.7446 43.3281C46.7037 43.3811 48.7157 43.3811 50.6748 43.3281C51.3102 43.3281 51.6808 43.487 51.9455 44.1223C55.8108 53.4403 59.7289 62.7584 63.6471 72.0765C63.753 72.2883 63.8059 72.5 63.9118 72.8177C61.2644 72.8177 58.67 72.8177 56.1284 72.7647C55.9167 72.7647 55.599 72.3942 55.4931 72.1294C54.9636 70.8058 54.487 69.4822 53.9046 68.2116C53.7987 67.8939 53.3222 67.5763 53.0045 67.5763C49.2452 67.5233 45.4859 67.5763 41.7266 67.5233C41.1441 67.5233 40.8794 67.7351 40.7205 68.2645C40.244 69.5352 39.7675 70.8588 39.185 72.0765C39.0792 72.3412 38.7085 72.7118 38.4967 72.7118C36.0611 72.8706 33.6255 72.8706 31.084 72.8706ZM51.469 61.6995C50.1453 58.2582 48.8746 54.9228 47.6038 51.6403C47.4979 51.6403 47.445 51.6403 47.3391 51.6403C46.0154 54.9757 44.7446 58.2582 43.4209 61.6995C46.1212 61.6995 48.7157 61.6995 51.469 61.6995Z" fill="#232323"/>
<path id="Vector_3" d="M157.736 58.5755C155.459 60.6933 153.288 62.7051 151.117 64.7699C150.905 64.9817 150.852 65.4582 150.852 65.7759C150.852 67.7348 150.852 69.6937 150.852 71.5996C150.852 71.9703 150.852 72.3408 150.852 72.7644C150.058 72.7644 149.423 72.7644 148.734 72.7644C148.734 62.8639 148.734 53.0164 148.734 43.116C149.423 43.116 150.058 43.116 150.852 43.116C150.852 49.3633 150.852 55.5577 150.852 62.0169C151.276 61.6463 151.435 61.4874 151.594 61.3286C157.206 55.5048 162.872 49.7339 168.484 43.9101C169.49 42.8513 170.602 43.1689 172.084 43.0631C167.584 47.7221 163.295 52.1164 159.006 56.6166C163.507 61.858 168.007 67.0465 172.561 72.3409C172.773 71.8644 172.985 71.5467 173.143 71.229C177.273 62.2286 181.403 53.2282 185.586 44.2278C186.116 43.116 186.857 42.6924 188.022 43.116C188.34 43.2219 188.551 43.6454 188.71 43.9631C192.628 52.487 196.599 61.0109 200.518 69.5878C200.994 70.5937 201.471 71.6526 202 72.8173C201.312 72.8173 200.888 72.7644 200.412 72.8173C199.829 72.8703 199.512 72.6585 199.247 72.0761C198.241 69.7996 197.182 67.5759 196.176 65.2993C195.858 64.6111 195.488 64.3993 194.746 64.3993C189.716 64.4523 184.686 64.4523 179.656 64.3993C178.862 64.3993 178.491 64.664 178.174 65.4052C177.22 67.6289 176.161 69.7996 175.208 72.0232C174.944 72.6585 174.573 72.7644 173.938 72.8703C171.29 73.2938 169.543 72.2879 167.902 70.1702C164.831 66.3053 161.442 62.7051 158.212 58.9991C157.947 58.7873 157.736 58.5755 157.736 58.5755ZM179.444 62.5463C184.686 62.5463 189.663 62.5463 194.852 62.5463C192.311 56.9343 189.769 51.3752 187.122 45.5514C184.527 51.3752 182.039 56.8813 179.444 62.5463Z" fill="#232323"/>
<path id="Vector_4" d="M88.9552 43.1689C89.6435 43.1689 90.2789 43.1689 91.0202 43.1689C91.0202 43.5396 91.0731 43.9631 91.0731 44.3337C91.0731 49.681 91.0202 55.0283 91.126 60.3227C91.126 61.8051 91.3378 63.3404 91.7085 64.7699C92.6086 68.0524 94.7795 70.0643 98.1152 70.7526C100.18 71.1761 102.245 71.1232 104.31 70.5408C107.222 69.6937 109.075 67.7877 109.817 64.9288C110.187 63.4993 110.452 62.0169 110.452 60.5874C110.505 55.2401 110.505 49.8398 110.505 44.4925C110.505 44.069 110.505 43.6984 110.505 43.2219C111.246 43.2219 111.882 43.2219 112.676 43.2219C112.676 43.5396 112.729 43.9102 112.729 44.2278C112.729 49.7869 112.782 55.293 112.729 60.8521C112.729 62.2286 112.517 63.6052 112.199 64.9288C110.929 69.9584 107.063 72.9762 101.663 73.0291C99.8625 73.0291 98.0093 72.8703 96.315 72.3938C92.185 71.1761 90.0671 68.1054 89.2729 64.0287C89.0611 62.9698 88.9552 61.911 88.9552 60.8521C88.9022 55.293 88.9552 49.734 88.9552 44.1219C88.9022 43.8043 88.9552 43.4866 88.9552 43.1689Z" fill="#232323"/>
<path id="Vector_5" d="M119.771 68.9526C120.089 68.4231 120.354 67.9466 120.725 67.4172C120.936 67.576 121.148 67.6819 121.307 67.8408C125.437 71.0703 130.096 71.8645 135.073 70.382C137.721 69.6408 139.15 67.629 139.098 65.2465C139.098 63.2347 138.144 61.6993 136.291 60.9581C134.12 60.058 131.844 59.4757 129.62 58.7874C127.978 58.258 126.337 57.8344 124.749 57.1991C122.154 56.0873 120.619 54.1284 120.513 51.2165C120.407 48.3046 121.572 46.0809 124.06 44.5456C128.19 42.0043 136.079 42.4808 139.998 45.6574C139.786 46.1868 139.521 46.7163 139.256 47.3516C138.886 47.1398 138.568 46.981 138.303 46.8221C134.915 44.9691 131.314 44.3867 127.502 45.3397C126.019 45.7103 124.696 46.3986 123.743 47.7222C121.942 50.1576 122.472 53.546 125.172 54.9225C127.184 55.9814 129.514 56.4579 131.685 57.1991C133.485 57.7815 135.285 58.205 137.033 58.8933C139.627 59.9522 141.215 61.9111 141.268 64.823C141.374 67.7878 140.104 70.0114 137.562 71.4939C132.85 74.2469 124.325 73.2939 120.301 69.6408C120.142 69.4291 119.983 69.2173 119.771 68.9526Z" fill="#232323"/>
<path id="Vector_6" d="M73.7062 72.7646C72.912 72.7646 72.3296 72.7646 71.5354 72.7646C71.5354 63.5524 71.5354 54.3403 71.5354 45.0751C67.8819 45.0751 64.3874 45.0751 60.8398 45.0751C60.8398 44.3869 60.8398 43.8045 60.8398 43.1162C68.6762 43.1162 76.4595 43.1162 84.2959 43.1162C84.2959 43.6986 84.2959 44.3339 84.2959 45.0222C80.8013 45.0222 77.3067 45.0222 73.6533 45.0222C73.7062 54.3403 73.7062 63.5524 73.7062 72.7646Z" fill="#232323"/>
</g>
</g>
<defs>
<clipPath id="clip0_225_1460">
<rect width="202" height="116" fill="white"/>
</clipPath>
</defs>
</svg>
