<svg width="202" height="116" viewBox="0 0 202 116" fill="none" xmlns="http://www.w3.org/2000/svg">
<g id="Frame" clip-path="url(#clip0_225_1477)">
<g id="Group">
<path id="Vector" d="M202 56.9779C198.031 56.9779 194.022 56.9779 190.013 56.9779C190.013 51.8868 190.013 46.8358 190.013 41.7446C191.656 41.7446 193.3 41.7446 195.064 41.7446C195.064 45.3926 195.064 49.1208 195.064 52.9291C197.47 52.9291 199.755 52.9291 202 52.9291C202 54.252 202 55.615 202 56.9779Z" fill="#232323"/>
<path id="Vector_2" d="M127.952 56.9775C127.15 54.3718 126.388 51.8463 125.546 49.0402C125.306 49.7216 125.105 50.1626 124.985 50.6437C124.384 52.4877 123.782 54.3718 123.221 56.2559C123.061 56.8572 122.74 57.0577 122.138 57.0176C120.735 56.9775 119.372 57.0176 117.969 56.9775C117.688 56.9775 117.287 56.6969 117.207 56.4564C115.644 51.6459 114.12 46.8353 112.557 42.0248C112.557 41.9847 112.597 41.9046 112.637 41.7041C114.2 41.7041 115.764 41.664 117.368 41.7442C117.608 41.7442 117.929 42.1451 118.049 42.4257C118.811 44.7508 119.492 47.0358 120.214 49.3609C120.294 49.5613 120.374 49.7617 120.535 50.1626C121.377 47.597 122.178 45.1917 122.9 42.7865C123.141 41.9446 123.542 41.5839 124.464 41.664C125.306 41.7442 126.148 41.7442 126.989 41.664C127.791 41.5839 128.152 41.8645 128.393 42.6662C129.074 45.1517 129.876 47.6371 130.718 50.363C131.48 48.038 132.161 45.9133 132.843 43.8288C133.524 41.7041 133.524 41.7041 135.729 41.7041C136.571 41.7041 137.413 41.7041 138.415 41.7041C138.215 42.4257 138.055 43.027 137.854 43.6283C136.531 47.8375 135.168 52.0467 133.845 56.2559C133.685 56.8172 133.404 57.0577 132.803 57.0176C131.159 56.9374 129.595 56.9775 127.952 56.9775Z" fill="#232323"/>
<path id="Vector_3" d="M146.995 41.7446C151.124 41.7446 155.174 41.7446 159.343 41.7446C159.343 42.9873 159.343 44.2301 159.343 45.593C156.978 45.593 154.572 45.593 152.127 45.593C152.127 46.2344 152.127 46.7155 152.127 47.3569C154.252 47.3569 156.376 47.3569 158.501 47.3569C158.501 48.6798 158.501 49.8423 158.501 51.0851C156.376 51.0851 154.292 51.0851 152.127 51.0851C152.127 51.7665 152.127 52.3278 152.127 53.0493C154.572 53.0493 157.058 53.0493 159.624 53.0493C159.624 54.4123 159.624 55.615 159.624 56.8978C155.414 56.8978 151.245 56.8978 146.995 56.8978C146.995 51.8467 146.995 46.8358 146.995 41.7446Z" fill="#232323"/>
<path id="Vector_4" d="M169.085 56.8978C169.085 51.8066 169.085 46.7957 169.085 41.7446C170.809 41.7446 172.453 41.7446 174.217 41.7446C174.217 45.4327 174.217 49.1208 174.217 52.889C176.542 52.889 178.787 52.889 181.072 52.889C181.072 54.2921 181.072 55.5749 181.072 56.8978C177.103 56.8978 173.134 56.8978 169.085 56.8978Z" fill="#232323"/>
<path id="Vector_5" d="M76.2344 56.9777C76.2344 51.8465 76.2344 46.8356 76.2344 41.5039C79.2813 41.7043 82.3282 41.544 85.2148 42.1453C89.0234 42.907 91.1082 46.5149 90.587 50.5236C90.1059 54.1716 87.0991 56.8575 83.2503 56.9777C80.9651 57.0178 78.6398 56.9777 76.2344 56.9777ZM77.838 55.5346C79.6822 55.5346 81.4462 55.6548 83.1701 55.4945C86.4576 55.2139 88.7027 53.0091 88.9433 50.0025C89.2239 46.8356 87.5401 44.0695 84.5733 43.4682C82.4084 43.0272 80.1232 43.1475 77.838 43.0272C77.838 47.3166 77.838 51.3655 77.838 55.5346Z" fill="#232323"/>
<path id="Vector_6" d="M57.1511 41.5439C61.8017 41.5439 65.2094 44.8712 65.1693 49.361C65.1293 53.7707 61.7215 57.098 57.111 57.098C52.5006 57.098 49.0527 53.8108 49.0527 49.2809C49.0928 44.7911 52.4605 41.5439 57.1511 41.5439ZM57.1511 55.6548C60.7994 55.6548 63.5256 52.9288 63.5256 49.321C63.5256 45.7131 60.7593 42.9871 57.111 43.0272C53.4627 43.0673 50.7366 45.7932 50.7366 49.361C50.7366 52.9288 53.5028 55.6548 57.1511 55.6548Z" fill="#232323"/>
<path id="Vector_7" d="M31.332 41.5439C36.0227 41.5439 39.4304 44.7911 39.4304 49.2809C39.4304 53.7707 35.9826 57.098 31.3721 57.1381C26.7617 57.1381 23.2737 53.7707 23.3138 49.321C23.3539 44.8311 26.7216 41.584 31.332 41.5439ZM31.4122 55.6548C35.0605 55.6147 37.8268 52.8888 37.7867 49.321C37.7466 45.7532 34.9402 43.0272 31.332 43.0272C27.6437 43.0673 24.9576 45.7932 24.9976 49.4813C25.0377 53.009 27.8441 55.6548 31.4122 55.6548Z" fill="#232323"/>
<path id="Vector_8" d="M11.1665 49.3608C11.808 49.3608 12.2089 49.3608 12.7701 49.3608C12.7701 51.245 12.7701 53.0489 12.7301 54.8528C12.7301 55.0934 12.4895 55.4141 12.249 55.5744C8.07949 58.581 0.382004 57.4184 -0.860819 50.7639C-1.74282 46.1137 1.70501 41.7843 6.39567 41.5838C8.76104 41.4636 10.966 41.9045 12.8102 43.7486C12.4895 44.1093 12.1688 44.4301 11.8481 44.8309C9.96377 43.1473 7.79886 42.6662 5.43348 43.2675C2.26629 44.0292 0.261731 47.0358 0.742824 50.2428C1.22392 53.53 3.9902 55.7749 7.39794 55.6546C7.75876 55.6546 8.15967 55.6145 8.52049 55.5744C10.7255 55.2537 11.1665 54.7727 11.1665 52.5678C11.1665 51.4855 11.1665 50.4432 11.1665 49.3608Z" fill="#232323"/>
<path id="Vector_9" d="M100.57 52.7292C98.5655 52.7292 97.002 51.2458 97.002 49.2413C97.002 47.3169 98.5655 45.6732 100.49 45.6331C102.414 45.593 104.058 47.1966 104.058 49.1611C104.138 51.1656 102.575 52.7292 100.57 52.7292Z" fill="#232323"/>
<path id="Vector_10" d="M48.291 74.3765C48.291 71.7305 48.291 69.1647 48.291 66.5588C49.6942 66.5588 51.0974 66.3984 52.4605 66.5989C54.5853 66.8795 55.8281 68.5633 55.7079 70.6882C55.6277 72.7328 54.1042 74.2162 51.8591 74.3765C50.6965 74.4166 49.5338 74.3765 48.291 74.3765ZM49.2131 73.5747C50.2154 73.5747 51.1375 73.6549 52.0596 73.5346C53.6632 73.3342 54.7056 72.1715 54.8259 70.608C54.9461 69.1647 54.0641 67.7615 52.5407 67.4408C51.4582 67.2002 50.2956 67.2804 49.173 67.2403C49.2131 69.4854 49.2131 71.49 49.2131 73.5747Z" fill="#232323"/>
<path id="Vector_11" d="M44.3216 74.4969C44.0009 74.2162 43.6 74.0158 43.3594 73.6951C41.9161 71.9311 40.5129 70.127 38.8692 68.363C38.8692 70.0869 38.8692 71.8108 38.8692 73.5748C38.8692 74.0559 38.9093 74.5771 38.0674 74.2964C38.0674 71.7707 38.0674 69.2049 38.0674 66.3584C38.5485 66.6791 38.9494 66.7994 39.1899 67.1201C40.4728 68.6837 41.7157 70.2873 42.9986 71.8509C43.159 72.0914 43.3594 72.2919 43.7603 72.7329C43.7603 70.8085 43.7202 69.1247 43.8004 67.4809C43.8004 67.1602 44.081 66.8796 44.2414 66.5589C44.4018 66.8796 44.6423 67.2003 44.6423 67.521C44.6824 69.7661 44.6423 72.0513 44.6423 74.2964C44.5221 74.3365 44.4419 74.4167 44.3216 74.4969Z" fill="#232323"/>
<path id="Vector_12" d="M88.542 71.7302C89.1433 72.6122 89.7046 73.3739 90.2659 74.1758C90.1857 74.2559 90.1456 74.3361 90.0654 74.4163C89.7447 74.2559 89.424 74.1357 89.1433 73.9352C88.983 73.8149 88.8627 73.6145 88.7825 73.4541C88.0208 71.6901 86.6176 71.6099 84.9338 71.9708C84.9338 72.6924 84.9338 73.4541 84.9338 74.2158C84.8536 74.296 84.7333 74.3361 84.6531 74.4163C84.4527 74.2158 84.1319 73.9753 84.0919 73.7749C84.0518 71.3694 84.0518 69.004 84.0518 66.5184C85.3748 66.5184 86.6176 66.4382 87.8203 66.5585C89.0631 66.6787 89.9452 67.4806 90.1456 68.5229C90.4663 69.9261 90.0253 70.768 88.542 71.7302ZM84.9739 71.1689C86.0162 71.0888 86.9784 71.1288 87.9005 70.9685C88.9028 70.8081 89.424 70.0464 89.3839 69.0842C89.3438 68.1621 88.7424 67.4004 87.7802 67.3202C86.8581 67.24 85.936 67.2801 84.9739 67.2801C84.9739 68.6031 84.9739 69.8058 84.9739 71.1689Z" fill="#232323"/>
<path id="Vector_13" d="M136.691 66.5188C137.974 66.5188 139.097 66.4787 140.179 66.5188C141.783 66.599 142.825 67.6413 142.865 69.1247C142.906 70.6081 141.943 71.6905 140.3 71.8108C139.418 71.891 138.576 71.8108 137.533 71.8108C137.533 72.5324 137.573 73.1338 137.493 73.7352C137.453 73.9356 137.213 74.1361 137.052 74.3366C136.932 74.1361 136.651 73.9757 136.651 73.7753C136.691 71.4099 136.691 69.0044 136.691 66.5188ZM137.614 71.2094C138.696 71.1293 139.618 71.1293 140.54 70.9689C141.502 70.8085 141.943 70.127 141.943 69.1648C141.943 68.1625 141.422 67.5211 140.5 67.3607C139.578 67.2404 138.576 67.3206 137.614 67.3206C137.614 68.6436 137.614 69.8063 137.614 71.2094Z" fill="#232323"/>
<path id="Vector_14" d="M104.458 74.2561C103.737 74.6169 103.456 74.1358 103.336 73.6547C103.055 72.4921 102.334 72.1312 101.171 72.2916C100.85 72.3317 100.489 72.3317 100.169 72.2916C98.9258 72.0912 98.0438 72.4119 97.683 73.775C97.6028 74.0556 97.1618 74.2561 96.8812 74.4966C96.801 74.4164 96.7208 74.3363 96.6406 74.2561C96.7208 74.0155 96.801 73.775 96.8812 73.5344C97.8434 71.4096 98.8056 69.2848 99.8078 67.2C99.9281 66.9194 100.289 66.5586 100.529 66.5586C100.77 66.5586 101.131 66.8793 101.291 67.16C102.293 69.2848 103.256 71.4497 104.258 73.5745C104.298 73.8151 104.378 74.0155 104.458 74.2561ZM98.7254 71.5299C99.9682 71.5299 101.091 71.5299 102.334 71.5299C101.732 70.2069 101.171 68.9641 100.529 67.4807C99.888 68.9641 99.3267 70.2069 98.7254 71.5299Z" fill="#232323"/>
<path id="Vector_15" d="M145.752 66.5185C147.035 66.5185 148.198 66.4384 149.32 66.5185C150.964 66.6388 151.886 67.6812 151.886 69.2046C151.886 70.688 151.004 71.6502 149.36 71.8106C148.478 71.8907 147.556 71.8106 146.554 71.8106C146.554 72.7327 146.554 73.4944 146.554 74.2561C146.474 74.2962 146.353 74.3764 146.273 74.4165C146.073 74.216 145.752 73.9755 145.752 73.775C145.752 71.4097 145.752 69.0042 145.752 66.5185ZM146.634 71.1691C147.636 71.0889 148.598 71.129 149.521 70.9687C150.563 70.7682 151.124 70.0466 151.044 69.0443C150.964 68.1222 150.362 67.4006 149.4 67.3204C148.518 67.2402 147.596 67.3204 146.674 67.3204C146.634 68.6033 146.634 69.7659 146.634 71.1691Z" fill="#232323"/>
<path id="Vector_16" d="M123.382 67.5209C122.179 67.4408 121.177 67.2403 120.255 67.3606C119.814 67.4007 119.252 68.0421 119.092 68.5232C118.892 69.2048 119.493 69.6057 120.134 69.766C120.856 70.0066 121.618 70.1669 122.379 70.4075C123.261 70.7282 123.943 71.2895 123.903 72.3319C123.863 73.3742 123.261 74.0157 122.259 74.2562C120.976 74.577 119.693 74.4968 118.571 73.8152C118.33 73.6549 118.29 73.254 118.21 73.1337C119.493 73.3341 120.575 73.5747 121.698 73.6148C122.379 73.6549 122.941 73.254 123.021 72.4922C123.101 71.7305 122.58 71.4098 121.979 71.2093C121.217 70.9688 120.415 70.7683 119.653 70.5278C118.771 70.2471 118.25 69.6859 118.25 68.6435C118.25 67.6011 118.811 66.9998 119.733 66.7191C120.856 66.3583 122.019 66.3984 123.101 66.9196C123.181 66.9597 123.261 67.3205 123.382 67.5209Z" fill="#232323"/>
<path id="Vector_17" d="M65.0091 66.6389C65.0091 68.3228 65.0893 70.0066 65.0091 71.6904C64.9289 73.4143 63.7262 74.4166 62.0023 74.4567C59.9977 74.4968 58.795 73.5747 58.6346 71.7305C58.5144 70.207 58.5945 68.6435 58.5945 67.0799C58.5945 66.9196 58.8752 66.7191 58.9955 66.5588C59.1558 66.7191 59.3964 66.9196 59.3964 67.0799C59.4365 68.443 59.3964 69.8462 59.4365 71.2494C59.4765 72.7328 60.1581 73.5346 61.3608 73.6549C63.0447 73.8553 64.087 72.9733 64.1271 71.2494C64.1672 69.8863 64.1672 68.5633 64.1271 67.2002C64.1672 66.5587 64.3677 66.3583 65.0091 66.6389Z" fill="#232323"/>
<path id="Vector_18" d="M73.3478 67.4806C72.0649 67.4004 71.0627 67.2 70.1005 67.3203C69.6595 67.3603 69.0581 68.0419 68.9779 68.4829C68.9378 68.8437 69.4991 69.4451 69.9401 69.6856C70.6617 70.0464 71.5037 70.1266 72.2654 70.4073C73.1875 70.728 73.7888 71.2893 73.7087 72.3316C73.6686 73.3339 73.0672 73.9353 72.1451 74.2159C70.8221 74.5767 69.5392 74.4966 68.3365 73.7749C68.136 73.6546 68.0558 73.2537 67.9355 73.0533C69.1784 73.2537 70.3009 73.4943 71.3834 73.5745C72.105 73.6146 72.7064 73.1735 72.8267 72.4118C72.9068 71.61 72.3055 71.2893 71.664 71.0888C70.9424 70.8483 70.2207 70.728 69.5392 70.4874C68.6171 70.1667 67.9756 69.5654 68.0558 68.4829C68.136 67.4004 68.7775 66.7189 69.7396 66.5986C70.7419 66.4783 71.7843 66.6788 72.8267 66.7991C73.0271 66.8392 73.1875 67.2802 73.3478 67.4806Z" fill="#232323"/>
<path id="Vector_19" d="M132.522 66.4385C132.722 66.639 133.043 66.8795 133.083 67.08C133.123 68.6435 133.163 70.2071 133.043 71.7306C132.923 73.5347 131.72 74.4167 129.756 74.4167C127.992 74.3766 126.829 73.4144 126.709 71.6905C126.588 70.167 126.628 68.6435 126.628 67.1201C126.628 66.8795 126.989 66.639 127.19 66.3984C127.31 66.4786 127.39 66.5187 127.51 66.5989C127.51 68.1624 127.47 69.6859 127.51 71.2495C127.551 72.813 128.433 73.6549 129.916 73.6549C131.319 73.6549 132.161 72.813 132.201 71.3697C132.241 69.8062 132.201 68.2827 132.201 66.7192C132.321 66.5989 132.442 66.5187 132.522 66.4385Z" fill="#232323"/>
<path id="Vector_20" d="M160.105 73.8551C159.904 74.0155 159.704 74.3362 159.503 74.3362C157.98 74.3763 156.416 74.3763 154.812 74.3763C154.812 71.7303 154.812 69.2046 154.812 66.6387C155.654 66.4784 155.695 66.4784 155.695 67.2401C155.695 69.3248 155.695 71.4096 155.695 73.5745C157.138 73.5745 158.501 73.5745 159.864 73.5745C159.984 73.6547 160.024 73.7749 160.105 73.8551Z" fill="#232323"/>
<path id="Vector_21" d="M160.746 66.3584C161.067 66.5989 161.468 66.7994 161.708 67.1201C162.47 68.2828 163.192 69.5256 163.954 70.7283C165.277 69.4454 165.597 67.4008 167.201 66.3985C167.321 66.4787 167.401 66.5588 167.522 66.639C166.88 67.6814 166.279 68.7639 165.597 69.7661C164.796 70.9288 164.194 72.1315 164.435 73.6149C164.475 73.8554 164.154 74.1361 163.994 74.4167C163.873 74.1361 163.593 73.8955 163.633 73.655C163.833 72.1716 163.272 70.9689 162.47 69.8062C161.789 68.8039 161.187 67.7616 160.586 66.7192C160.586 66.5589 160.666 66.4386 160.746 66.3584Z" fill="#232323"/>
<path id="Vector_22" d="M78.038 74.216C78.038 71.9709 78.038 69.6857 78.038 67.4807C77.2362 66.8392 75.9131 67.8816 75.1113 66.5586C77.4366 66.5586 79.4813 66.5586 81.5259 66.5586C81.6061 67.2802 81.6061 67.2802 80.684 67.2802C80.1628 67.2802 79.6015 67.2802 78.92 67.2802C78.92 69.2046 78.92 71.0488 78.92 72.893C78.92 73.2137 79.0002 73.5344 78.8799 73.8151C78.7997 74.0957 78.5191 74.2561 78.3186 74.4966C78.2384 74.3763 78.1182 74.2962 78.038 74.216Z" fill="#232323"/>
<path id="Vector_23" d="M107.826 73.6147C109.35 73.6147 110.713 73.6147 112.116 73.6147C112.156 73.6949 112.236 73.8151 112.276 73.8953C112.076 74.0557 111.875 74.3363 111.635 74.3764C110.272 74.4165 108.949 74.4165 107.586 74.3764C107.345 74.3764 106.984 73.9755 106.984 73.7349C106.944 71.5299 106.944 69.365 106.984 67.16C106.984 66.9596 107.265 66.719 107.385 66.5186C107.545 66.7591 107.826 66.9996 107.826 67.2402C107.826 69.3249 107.826 71.4097 107.826 73.6147Z" fill="#232323"/>
<path id="Vector_24" d="M34.3788 66.639C34.3788 68.9242 34.3788 71.2094 34.3788 73.4946C34.3788 73.7752 34.3387 74.0157 34.0981 74.4567C33.8977 74.2563 33.5769 74.0157 33.5769 73.8153C33.5369 71.5702 33.5369 69.3251 33.5769 67.0399C33.5769 66.7994 33.8977 66.5989 34.058 66.3984C34.1783 66.4786 34.2585 66.5588 34.3788 66.639Z" fill="#232323"/>
<path id="Vector_25" d="M93.2735 70.4073C93.2735 69.3249 93.2334 68.2424 93.2735 67.2C93.2735 66.9595 93.514 66.759 93.6343 66.5586C93.7947 66.7991 94.0753 66.9996 94.0753 67.2401C94.1154 69.4051 94.1154 71.5299 94.0753 73.6948C94.0753 73.9353 93.7947 74.1759 93.6343 74.4164C93.4739 74.1759 93.2334 73.9353 93.2334 73.6547C93.2334 72.5322 93.2735 71.4898 93.2735 70.4073Z" fill="#232323"/>
</g>
</g>
<defs>
<clipPath id="clip0_225_1477">
<rect width="202" height="116" fill="white"/>
</clipPath>
</defs>
</svg>
