<svg width="202" height="116" viewBox="0 0 202 116" fill="none" xmlns="http://www.w3.org/2000/svg">
<g id="Frame" clip-path="url(#clip0_225_1510)">
<g id="Group">
<path id="Vector" d="M-0.601833 40.7701C-0.316345 40.5322 -0.030858 40.2943 0.207049 40.0564C7.29668 33.015 14.3387 25.9259 21.3808 18.8845C21.9042 18.3611 22.4276 18.0757 23.2364 18.0757C37.9867 18.1233 52.7369 18.0757 67.4872 18.0757C67.8678 18.0757 68.2009 18.0757 68.6767 18.0757C68.6767 44.719 68.6767 71.3147 68.6767 98.0056C68.2009 98.0056 67.7726 98.0056 67.3444 98.0056C45.1239 98.0056 22.9034 98.0056 0.682863 98.0056C0.25463 98.0056 -0.1736 98.0056 -0.649414 98.0532C-0.601833 78.9747 -0.601833 59.8961 -0.601833 40.7701ZM63.6331 92.9624C63.6331 69.6971 63.6331 46.4793 63.6331 23.214C50.9764 23.214 38.4149 23.214 25.7107 23.214C25.7107 30.3506 25.7107 37.3921 25.7107 44.5762C18.5735 44.5762 11.5314 44.5762 4.48937 44.5762C4.48937 60.7525 4.48937 76.8337 4.48937 92.9624C24.2357 92.9624 43.9344 92.9624 63.6331 92.9624ZM20.5719 39.4379C20.5719 35.2511 20.5719 31.1594 20.5719 27.4008C16.6226 31.3498 12.5306 35.4414 8.53379 39.4379C12.3879 39.4379 16.4799 39.4379 20.5719 39.4379Z" fill="#232323"/>
<path id="Vector_2" d="M192.293 54.1388C192.293 57.3265 192.293 60.5142 192.293 63.6543C192.293 64.4155 192.103 64.701 191.294 64.701C188.725 64.701 188.725 64.701 188.725 62.1794C188.725 58.1829 188.772 54.234 188.725 50.2375C188.725 49.2859 189.058 49.1432 189.914 49.0481C192.388 48.715 193.721 49.5714 194.625 51.9503C195.624 54.6146 197.099 57.0886 198.431 59.8005C198.526 59.5151 198.574 59.4199 198.574 59.3247C198.526 56.2798 198.479 53.1873 198.431 50.1423C198.431 49.3335 198.669 49.0956 199.478 49.0956C202 49.0956 202 49.0956 202 51.5696C202 55.6137 202 59.6578 202 63.7019C202 64.5107 201.762 64.6058 200.953 64.7486C198.336 65.1768 196.909 64.2252 196.005 61.7512C195.101 59.2772 193.768 56.9935 192.579 54.6622C192.531 54.4243 192.388 54.234 192.293 54.1388Z" fill="#232323"/>
<path id="Vector_3" d="M141.381 56.5653C143.332 57.4693 144.141 58.8015 143.951 60.7521C143.713 63.0834 142.143 64.5108 139.431 64.6535C137.099 64.7486 134.768 64.7011 132.436 64.7011C131.865 64.7011 131.675 64.4156 131.675 63.8923C131.675 59.2297 131.675 54.5195 131.675 49.8569C131.675 49.286 131.913 49.0957 132.484 49.0957C134.672 49.1433 136.861 49.0481 139.05 49.1433C141.952 49.286 143.57 51.0464 143.427 53.6155C143.38 54.9001 142.714 55.8517 141.381 56.5653ZM135.386 61.5134C136.576 61.5134 137.718 61.561 138.812 61.5134C139.716 61.4658 140.239 60.9425 140.335 60.0385C140.43 59.1821 139.906 58.4684 138.955 58.3733C137.813 58.2781 136.623 58.3257 135.434 58.3257C135.386 59.3724 135.386 60.3715 135.386 61.5134ZM135.386 54.9477C136.528 54.9477 137.622 54.9953 138.717 54.9477C139.383 54.9001 139.811 54.4244 139.811 53.7107C139.859 52.9495 139.478 52.3785 138.764 52.331C137.67 52.2358 136.528 52.2834 135.386 52.2834C135.386 53.2349 135.386 53.9962 135.386 54.9477Z" fill="#232323"/>
<path id="Vector_4" d="M92.6104 28.495C92.6104 29.9223 92.5628 31.3496 92.6104 32.777C92.658 33.5858 92.4677 33.9188 91.5636 33.9188C88.6612 33.8237 89.0418 34.347 89.0418 31.3972C89.0418 27.4007 89.0418 23.3566 89.0418 19.3601C89.0418 18.5038 89.2797 18.1707 90.1838 18.2183C92.3725 18.3134 94.5613 18.1707 96.75 18.361C99.938 18.5989 101.746 21.3584 100.89 24.3558C100.509 25.6879 99.5097 26.5443 98.225 27.2104C100.414 28.7329 100.794 31.1593 101.746 33.3003C101.794 33.443 101.461 33.9188 101.27 33.9664C100.461 34.0615 99.6525 34.0615 98.8436 33.9664C98.5105 33.9188 98.1299 33.5382 97.9396 33.2051C97.4637 32.2536 97.1307 31.2069 96.6073 30.2554C95.7984 28.6377 94.4661 28.1144 92.6104 28.495ZM92.658 25.117C93.8 25.117 94.8468 25.2122 95.8935 25.0694C96.9403 24.9267 97.4162 24.2606 97.4162 23.2615C97.4162 22.3099 96.8452 21.5487 95.846 21.4536C94.7992 21.3584 93.7524 21.406 92.6104 21.406C92.658 22.7381 92.658 23.9276 92.658 25.117Z" fill="#232323"/>
<path id="Vector_5" d="M108.598 57.0414C108.74 55.9471 108.788 55.0432 108.978 54.2344C109.787 50.6661 112.452 48.6202 115.973 48.8105C119.637 49.0009 122.016 51.1894 122.587 54.8529C122.92 56.8987 122.824 58.8969 122.063 60.8C120.921 63.6547 118.59 65.0344 115.211 64.9393C112.404 64.8441 110.12 63.1789 109.264 60.4194C108.883 59.2776 108.788 58.0405 108.598 57.0414ZM119.303 56.8511C119.018 55.8044 118.875 54.7101 118.447 53.7586C117.971 52.6167 116.972 52.0458 115.687 52.0458C114.498 52.0458 113.499 52.5691 112.975 53.711C112.024 55.8044 111.976 57.9454 112.975 60.0388C113.499 61.1806 114.45 61.704 115.735 61.704C117.02 61.704 117.971 61.0379 118.447 59.8961C118.875 58.9445 119.018 57.8978 119.303 56.8511Z" fill="#232323"/>
<path id="Vector_6" d="M151.754 64.7012C151.849 64.3205 151.944 64.0351 152.039 63.7496C153.657 59.087 155.275 54.4245 156.94 49.7619C157.035 49.4764 157.511 49.1434 157.844 49.0958C158.891 49.0006 159.938 49.0006 160.985 49.0958C161.318 49.1434 161.794 49.4288 161.889 49.7143C163.554 54.3769 165.172 59.0394 166.79 63.702C166.885 63.9875 166.932 64.273 167.075 64.6536C165.933 64.6536 164.934 64.7487 163.935 64.606C163.602 64.5584 163.173 64.0351 163.031 63.6069C162.793 62.798 162.365 62.5126 161.556 62.5602C160.081 62.6553 158.606 62.6077 157.131 62.5602C156.512 62.5602 156.084 62.7029 155.989 63.369C155.846 64.4633 155.18 64.7963 154.133 64.6536C153.324 64.606 152.61 64.7012 151.754 64.7012ZM157.416 59.3725C158.748 59.3725 160.033 59.3725 161.365 59.3725C160.699 57.2791 160.081 55.2808 159.367 53.1399C158.701 55.3284 158.082 57.3267 157.416 59.3725Z" fill="#232323"/>
<path id="Vector_7" d="M157.321 33.9188C156.322 33.9188 155.275 33.9664 154.276 33.8712C153.895 33.8237 153.467 33.4431 153.277 33.11C152.468 31.8254 151.849 30.4457 151.04 29.1611C150.327 28.1144 149.375 27.3531 147.853 27.4483C147.853 29.3038 147.805 31.0642 147.853 32.8721C147.853 33.6334 147.662 33.9664 146.853 33.9664C144.236 33.9664 144.236 34.014 144.236 31.3496C144.236 27.3532 144.284 23.3091 144.236 19.3126C144.236 18.4562 144.522 18.2183 145.331 18.2183C148.328 18.2659 147.805 17.8377 147.853 20.7399C147.853 21.8818 147.853 23.0236 147.853 24.1655C148.947 24.3558 149.803 24.0227 150.374 23.2615C151.278 22.0721 152.087 20.7399 152.753 19.4077C153.229 18.5038 153.753 18.0756 154.799 18.1707C155.561 18.2659 156.322 18.1707 157.369 18.1707C155.561 20.8826 155.085 24.1179 151.992 25.7355C155.18 27.4959 155.751 30.9215 157.559 33.5858C157.464 33.7285 157.416 33.8237 157.321 33.9188Z" fill="#232323"/>
<path id="Vector_8" d="M106.504 95.4837C107.979 93.533 109.216 91.8202 110.548 90.0599C110.12 90.1075 109.739 90.155 109.359 90.2026C105.98 90.5357 103.554 88.1568 103.791 84.7788C103.982 81.6863 105.837 79.8783 108.978 79.688C109.596 79.6404 110.263 79.6404 110.881 79.688C113.926 80.0211 115.639 81.9717 115.734 85.0167C115.782 87.0149 115.306 88.8229 114.259 90.4881C113.26 92.0581 112.166 93.533 111.071 95.0555C110.881 95.2934 110.548 95.4837 110.263 95.4837C109.073 95.5313 107.979 95.4837 106.504 95.4837ZM109.692 87.2052C111.167 87.2052 112.166 86.3488 112.166 85.0167C112.166 83.6845 111.167 82.733 109.739 82.733C108.312 82.733 107.36 83.6369 107.312 85.0167C107.36 86.3013 108.312 87.2052 109.692 87.2052Z" fill="#232323"/>
<path id="Vector_9" d="M131.104 90.0598C130.628 90.1073 130.105 90.2025 129.629 90.2501C126.917 90.4879 124.728 88.7752 124.395 86.0633C123.872 82.3047 125.965 79.8306 129.724 79.6879C130.58 79.6403 131.485 79.7355 132.341 79.9258C134.577 80.4016 135.957 82.0192 136.195 84.3029C136.433 86.3487 136.1 88.2994 135.006 90.0122C133.959 91.725 132.769 93.3426 131.58 95.0078C131.389 95.2457 131.056 95.4836 130.771 95.4836C129.629 95.5311 128.487 95.4836 127.059 95.4836C128.487 93.5329 129.772 91.7725 131.104 90.0598ZM130.247 87.2051C131.77 87.2051 132.674 86.3487 132.674 84.969C132.674 83.5892 131.675 82.6853 130.247 82.7329C128.82 82.7329 127.868 83.6844 127.868 85.0641C127.868 86.3963 128.82 87.2051 130.247 87.2051Z" fill="#232323"/>
<path id="Vector_10" d="M123.3 26.116C123.3 23.8323 123.728 21.7389 125.298 20.0737C127.63 17.6472 130.485 17.6473 133.482 18.3609C135.1 18.7415 135.1 18.7891 134.577 20.3592C134.101 21.8816 134.101 21.8816 132.626 21.4534C129.01 20.4543 126.726 22.3574 126.964 26.2112C126.964 26.4966 127.011 26.7345 127.059 27.02C127.297 30.0174 129.247 31.3971 132.15 30.6834C134.196 30.2077 134.148 30.2077 134.862 32.2059C135.1 32.872 135.005 33.1575 134.291 33.3953C132.626 33.9663 130.96 34.2517 129.2 33.9663C125.869 33.4429 123.68 30.9689 123.395 27.4006C123.347 27.02 123.347 26.5442 123.3 26.116Z" fill="#232323"/>
<path id="Vector_11" d="M96.0833 48.6675C97.2728 48.9529 98.4148 49.1908 99.6043 49.4763C100.175 49.619 100.27 49.9045 100.128 50.4278C99.5568 52.6164 99.5567 52.6164 97.4156 52.1882C94.418 51.6173 92.705 52.7591 92.3244 55.7565C92.1816 56.7556 92.2292 57.8023 92.4195 58.7539C92.8478 60.8473 94.0849 61.7513 96.226 61.6561C96.6067 61.6561 96.9873 61.6085 97.3204 61.5609C99.4616 61.0852 99.5092 61.0852 100.08 63.2737C100.128 63.5116 99.8898 64.0825 99.6995 64.1777C97.6059 65.0341 95.4647 65.272 93.276 64.6059C90.9921 63.8922 89.6122 62.2746 88.9937 60.0385C88.4227 58.1354 88.4227 56.1847 88.8985 54.234C89.755 50.6657 92.4195 48.6675 96.0833 48.6675Z" fill="#232323"/>
<path id="Vector_12" d="M165.362 18.2658C166.647 18.2658 167.741 18.2182 168.836 18.3134C169.121 18.3134 169.454 18.694 169.597 19.027C170.501 20.7398 171.358 22.5002 172.214 24.2605C172.309 24.4509 172.404 24.6412 172.547 24.879C173.499 22.976 174.498 21.1204 175.354 19.2649C175.687 18.5037 176.163 18.2182 177.02 18.2658C177.876 18.3134 178.733 18.2658 179.827 18.2658C179.494 18.8843 179.304 19.3125 179.066 19.6931C178.162 21.3583 177.353 23.0711 176.401 24.6887C174.926 27.2103 174.117 29.8747 174.403 32.7769C174.498 33.6333 174.212 33.9663 173.261 33.9663C170.834 33.9187 170.787 33.9663 170.787 31.5399C170.787 29.3037 170.12 27.2579 169.026 25.3072C167.932 23.309 166.885 21.3107 165.838 19.3601C165.695 19.027 165.6 18.7416 165.362 18.2658Z" fill="#232323"/>
<path id="Vector_13" d="M151.659 82.9232C150.945 82.9232 150.136 82.9232 149.375 82.9232C148.138 82.9232 146.948 82.9232 145.711 82.9232C145.092 82.9232 144.854 82.6854 144.854 82.1144C144.902 79.4025 144.617 79.8783 146.996 79.8783C149.803 79.8307 152.61 79.8783 155.418 79.8783C156.702 79.8783 156.75 80.0686 156.274 81.2104C154.514 85.3021 152.801 89.4413 151.088 93.5806C150.136 95.8643 150.802 95.4361 148.233 95.4836C147.757 95.4836 147.281 95.4836 146.615 95.4836C148.28 91.2493 149.946 87.1576 151.659 82.9232Z" fill="#232323"/>
<path id="Vector_14" d="M91.4209 84.2557C90.9927 84.3984 90.612 84.5412 90.2314 84.6839C89.5176 85.0645 89.1846 84.8266 88.8991 84.0654C88.0426 81.6389 87.8999 82.1623 90.1362 81.2583C91.3258 80.7825 92.5153 80.3068 93.7048 79.8786C94.6089 79.5455 94.8944 79.7359 94.8944 80.6874C94.8944 85.35 94.8944 90.0125 94.8944 94.6275C94.8944 95.2936 94.6089 95.4839 93.9903 95.4839C91.4209 95.5315 91.4209 95.5315 91.4209 93.0099C91.4209 90.1553 91.4209 87.3006 91.4209 84.2557Z" fill="#232323"/>
<path id="Vector_15" d="M175.64 56.8034C175.64 54.5673 175.64 52.2836 175.64 50.0474C175.64 49.3813 175.83 49.0959 176.544 49.0959C179.303 49.0483 179.303 49.0007 179.303 51.7602C179.303 55.7567 179.303 59.7056 179.303 63.7021C179.303 64.4634 179.113 64.7488 178.304 64.7488C175.687 64.7488 175.687 64.7488 175.687 62.1796C175.64 60.3717 175.64 58.5638 175.64 56.8034Z" fill="#232323"/>
<path id="Vector_16" d="M114.307 26.1162C114.307 28.3523 114.259 30.6361 114.307 32.8722C114.307 33.681 114.069 33.9189 113.26 33.9189C110.738 33.9189 110.738 33.9189 110.738 31.4449C110.738 27.4484 110.786 23.4043 110.738 19.4078C110.738 18.4562 111.024 18.1708 111.975 18.2184C114.354 18.2659 114.354 18.2184 114.354 20.5496C114.307 22.4052 114.307 24.2607 114.307 26.1162Z" fill="#232323"/>
</g>
</g>
<defs>
<clipPath id="clip0_225_1510">
<rect width="202" height="116" fill="white"/>
</clipPath>
</defs>
</svg>
