<svg width="202" height="116" viewBox="0 0 202 116" fill="none" xmlns="http://www.w3.org/2000/svg">
<g id="Frame" clip-path="url(#clip0_225_1528)">
<g id="Group">
<path id="Vector" d="M103.985 -0.195312C104.2 0.0198262 104.415 0.288743 104.631 0.503882C123.511 19.3823 142.391 38.2607 161.324 57.1392C161.593 57.4081 161.97 57.6232 162.185 57.7308C142.606 77.2546 123.188 96.6171 103.662 116.195C102.855 115.28 101.995 114.312 100.973 113.129C100.005 114.258 99.144 115.28 98.391 116.195C78.8117 96.6171 59.3938 77.2546 39.8145 57.677C40.0296 57.5156 40.4061 57.3543 40.6751 57.0854C59.5551 38.2607 78.4352 19.3823 97.2614 0.55767C97.5303 0.288746 97.7455 0.0198262 97.9607 -0.195312C98.0145 -0.195312 98.0682 -0.195312 98.1758 -0.195312C99.0902 0.772812 100.005 1.74094 100.973 2.76284C101.995 1.68715 102.855 0.719027 103.77 -0.195312C103.877 -0.195312 103.931 -0.195312 103.985 -0.195312ZM101.027 5.66721C83.5989 23.0934 66.0636 40.6273 48.6897 57.9459C66.1174 75.3722 83.6527 92.906 101.08 110.332C118.454 92.9597 135.99 75.4797 153.417 58.0535C135.936 40.5735 118.454 23.0397 101.027 5.66721ZM45.6775 57.9997C63.6969 39.9818 81.6625 22.0178 99.6819 4.05367C99.144 3.46204 98.6599 2.97799 98.2296 2.6015C79.6723 21.1572 61.1688 39.6054 42.7191 57.9997C61.115 76.3941 79.6185 94.8422 98.1758 113.398C98.5523 112.968 99.0364 112.43 99.5743 111.838C81.6625 93.9816 63.6969 76.0176 45.6775 57.9997ZM159.227 58.0535C140.777 39.6591 122.273 21.1572 103.824 2.70906C103.447 3.08555 102.909 3.56962 102.318 4.21504C120.283 22.1791 138.249 40.0894 156.376 58.2148C138.41 76.1789 120.445 94.143 102.587 111.946C103.017 112.484 103.447 113.021 103.824 113.452C122.381 94.8422 140.885 76.3941 159.227 58.0535Z" fill="#232323"/>
<path id="Vector_2" d="M100.866 27.1812C103.179 29.4939 105.653 31.968 108.02 34.3345C105.653 36.701 103.179 39.1751 100.812 41.5417C98.4455 39.1751 96.0249 36.7548 93.6582 34.3883C96.0249 32.0218 98.4992 29.5477 100.866 27.1812Z" fill="#232323"/>
<path id="Vector_3" d="M66.8714 56.2249C66.1721 58.2151 65.4729 60.1516 64.8812 62.1955C64.6122 63.0024 64.1819 63.11 63.4827 63.11C62.7296 63.11 62.4069 62.841 62.1917 62.1418C61.3311 59.4523 60.4167 56.8166 59.5561 54.1272C59.4485 53.8044 59.3947 53.5355 59.2871 53.2127C61.0622 52.89 61.1159 52.89 61.6 54.3961C62.2455 56.3325 62.891 58.2151 63.5903 60.4205C63.8054 59.9364 63.913 59.7212 64.0206 59.4523C64.666 57.5697 65.3653 55.687 65.957 53.7506C66.1721 53.1052 66.6025 53.0514 67.1403 53.0514C67.6782 53.0514 68.001 53.1589 68.2161 53.7506C68.9154 55.9022 69.6147 58.0538 70.4215 60.4743C70.6366 59.9364 70.798 59.6674 70.8518 59.3985C71.4435 57.731 71.9814 56.0098 72.5193 54.3423C73.0034 52.89 73.0034 52.89 74.7246 53.2127C74.4019 54.2347 74.0792 55.2567 73.7026 56.2249C73.0034 58.2689 72.3041 60.3129 71.6586 62.4107C71.4435 63.11 71.0132 63.0562 70.4753 63.0562C69.9374 63.0562 69.3995 63.1637 69.1843 62.4107C68.5389 60.3129 67.7858 58.2689 67.0866 56.1711C67.0328 56.1711 66.9252 56.2249 66.8714 56.2249Z" fill="#232323"/>
<path id="Vector_4" d="M116.302 59.3985C116.302 57.3546 116.302 55.3106 116.302 53.2128C116.948 53.2128 117.485 53.2128 118.077 53.2128C118.077 56.4939 118.077 59.7213 118.077 63.0024C117.109 63.2714 116.463 63.0562 115.872 62.3032C114.419 60.4206 112.913 58.6455 111.192 56.8705C111.192 58.9145 111.192 61.0122 111.192 63.11C110.493 63.11 109.955 63.11 109.363 63.11C109.363 59.8289 109.363 56.6015 109.363 53.3204C110.278 53.0514 110.923 53.2128 111.569 54.0196C113.021 55.9022 114.581 57.7311 116.087 59.5599C116.087 59.4523 116.195 59.3985 116.302 59.3985Z" fill="#232323"/>
<path id="Vector_5" d="M122.273 53.1592C122.811 53.1592 123.348 53.1592 123.994 53.1592C123.994 54.0737 123.994 54.9343 123.994 55.7949C123.994 56.9783 123.94 58.2154 124.048 59.3988C124.155 60.9049 125.123 61.6579 126.576 61.6041C127.974 61.5504 128.835 60.7973 128.942 59.2912C129.05 57.7313 128.996 56.1714 128.996 54.6653C128.996 52.9979 128.996 52.9979 130.986 53.2668C130.879 55.6335 130.933 58.0003 130.664 60.367C130.395 62.3572 128.727 63.3254 126.361 63.2716C124.209 63.2178 122.542 62.142 122.38 60.2056C122.111 57.8927 122.273 55.526 122.273 53.1592Z" fill="#232323"/>
<path id="Vector_6" d="M86.6659 62.949C84.8371 63.2717 84.7833 63.2717 84.1378 61.7118C83.8689 60.9588 83.4385 60.7436 82.6855 60.7974C81.7173 60.8512 80.7491 60.8512 79.7809 60.7974C78.974 60.7436 78.6513 61.0664 78.3824 61.7656C77.7907 63.2717 77.7369 63.2717 76.0156 62.949C76.0694 62.7338 76.1232 62.4649 76.2308 62.2497C77.4679 59.4527 78.7589 56.6556 79.996 53.8586C80.265 53.2669 80.5877 53.0518 81.2332 53.0518C81.8787 53.0518 82.309 53.1593 82.5779 53.8586C83.9227 56.8708 85.3212 59.883 86.6659 62.949ZM79.5119 59.2375C80.8029 59.2375 81.8787 59.2375 83.1158 59.2375C82.5241 57.839 81.9862 56.6019 81.287 55.042C80.6415 56.6019 80.1036 57.839 79.5119 59.2375Z" fill="#232323"/>
<path id="Vector_7" d="M133.408 54.6654C133.408 54.1275 133.408 53.6972 133.408 53.1055C133.946 53.1055 134.484 53.1055 135.022 53.1055C136.851 53.1055 138.68 53.1055 140.562 53.1055C141.907 53.1055 141.907 53.1055 141.746 54.6654C140.992 54.6654 140.186 54.7191 139.379 54.6654C138.68 54.6116 138.518 54.8805 138.518 55.5798C138.572 57.6776 138.518 59.7753 138.518 61.8731C138.518 62.1958 138.518 62.5724 138.518 63.0027C137.873 63.0027 137.335 63.0027 136.636 63.0027C136.636 61.5504 136.636 60.0981 136.636 58.6458C136.636 57.6238 136.582 56.6018 136.636 55.526C136.689 54.8267 136.42 54.6116 135.721 54.6654C135.022 54.7191 134.215 54.6654 133.408 54.6654Z" fill="#232323"/>
<path id="Vector_8" d="M106.405 61.4427C106.405 62.0882 106.405 62.5185 106.405 63.0564C104.146 63.0564 101.994 63.0564 99.789 63.0564C99.6276 63.0564 99.3587 62.6798 99.3587 62.5185C99.3049 59.5601 99.3049 56.6554 99.3587 53.697C99.3587 53.4819 99.6814 53.2129 99.8966 53.1591C100.273 53.0516 100.703 53.1591 101.241 53.1591C101.241 55.9562 101.241 58.6456 101.241 61.4965C102.963 61.4427 104.63 61.4427 106.405 61.4427Z" fill="#232323"/>
<path id="Vector_9" d="M91.2908 53.1593C91.2908 55.9564 91.2908 58.6458 91.2908 61.4429C93.0121 61.4429 94.6796 61.4429 96.4008 61.4429C96.4008 61.9808 96.4008 62.4111 96.4008 63.0566C95.4326 63.0566 94.4106 63.0566 93.4424 63.0566C92.3666 63.0566 91.2908 63.0028 90.2688 63.0566C89.5696 63.1103 89.4082 62.8414 89.4082 62.1421C89.462 59.5065 89.462 56.8708 89.4082 54.2351C89.4082 53.2669 89.6772 52.9442 90.5916 53.1055C90.7529 53.1593 90.9681 53.1593 91.2908 53.1593Z" fill="#232323"/>
<path id="Vector_10" d="M76.7143 69.2947C76.7143 69.9402 76.7681 70.4243 76.7143 70.8546C76.7143 71.0697 76.4991 71.2311 76.3916 71.4463C76.284 71.2849 76.0688 71.1235 76.0688 70.9621C76.015 69.9401 76.0688 68.9719 76.0688 67.7886C77.306 68.1113 77.5749 69.3485 78.5969 69.9939C78.5969 69.3485 78.5431 68.8644 78.5969 68.3803C78.5969 68.2189 78.8121 68.0575 78.9197 67.8962C79.0272 68.0037 79.2424 68.1651 79.2424 68.2727C79.2962 69.3485 79.2424 70.3705 79.2424 71.6076C78.059 71.1773 77.7901 69.9939 76.7143 69.2947Z" fill="#232323"/>
<path id="Vector_11" d="M83.1693 71.5001C83.1693 70.6395 83.1155 69.9403 83.1693 69.2948C83.2231 68.7569 82.6314 67.8425 83.8686 67.7887C85.6436 67.7349 86.558 68.219 86.7194 69.4024C86.827 70.3706 86.2891 71.1774 85.3209 71.3926C84.7292 71.5001 84.0299 71.4464 83.1693 71.5001ZM84.2451 68.219C84.1913 68.3266 84.0837 68.4342 84.0299 68.5417C84.0299 69.241 84.0299 69.994 84.0299 71.016C84.783 70.7471 85.4284 70.5857 85.9125 70.263C86.1277 70.1016 86.1277 69.241 85.9663 69.0796C85.4284 68.6493 84.783 68.488 84.2451 68.219Z" fill="#232323"/>
<path id="Vector_12" d="M112.269 70.3168C112.485 70.6933 112.646 70.9623 112.807 71.285C112.754 71.3388 112.7 71.4464 112.646 71.5001C112.054 71.0698 111.463 70.6933 110.979 70.3168C110.602 70.8009 110.387 71.1236 110.118 71.4464C110.01 71.0161 109.903 70.6395 109.849 70.2092C109.795 69.9403 109.795 69.6175 109.849 69.3486C109.903 68.8645 109.957 67.9501 110.064 67.9501C110.763 67.8425 111.57 67.8425 112.216 68.0576C113.076 68.3266 113.076 69.2948 112.269 70.3168ZM110.548 69.8327C111.301 69.7789 112.054 69.994 112.108 69.1334C112.162 68.4879 111.57 68.3804 111.086 68.488C110.172 68.5417 110.71 69.241 110.548 69.8327Z" fill="#232323"/>
<path id="Vector_13" d="M124.479 71.446C123.888 71.1771 123.296 70.693 122.704 70.693C122.112 70.693 121.521 71.1771 120.66 71.6074C121.252 70.2627 121.682 69.1869 122.22 68.1111C122.489 67.627 122.919 67.7346 123.188 68.2187C123.672 69.2407 124.103 70.2627 124.587 71.2847C124.533 71.3384 124.533 71.3922 124.479 71.446Z" fill="#232323"/>
<path id="Vector_14" d="M93.7115 69.1871C93.6577 69.6174 93.6577 70.0477 93.6039 70.4242C93.4425 71.2311 92.7971 71.5 92.0978 71.5C91.3985 71.5 90.7531 71.2311 90.6455 70.5318C90.4841 69.7788 90.5379 68.9719 90.5379 68.2189C90.5379 68.1113 90.7531 67.9499 90.8606 67.8424C90.9682 67.9499 91.1834 68.1113 91.1834 68.2189C91.2372 68.7568 91.1834 69.2947 91.2372 69.8864C91.2372 70.478 91.5599 70.9621 92.1516 70.8008C92.4743 70.6932 92.8508 70.2091 92.9584 69.8326C93.1198 69.4023 92.9584 68.8644 93.0122 68.3803C93.0122 68.1651 93.2274 68.0037 93.3349 67.7886C93.4425 68.0037 93.6039 68.1651 93.6577 68.3803C93.7115 68.6492 93.6577 68.9182 93.7115 69.1871Z" fill="#232323"/>
<path id="Vector_15" d="M99.4676 70.3165C99.0911 70.1551 98.6608 70.0475 98.2842 69.8324C97.9077 69.5634 97.4774 69.2407 97.3698 68.918C97.316 68.649 97.7463 68.0036 98.0691 67.9498C98.607 67.8422 99.2524 68.0035 99.8441 68.0573C99.8979 68.0573 99.9517 68.3263 99.8979 68.3801C99.7903 68.4876 99.629 68.4876 99.4676 68.5414C99.0373 68.649 98.5532 68.7566 98.1229 68.8104C98.4994 69.0255 98.9297 69.2407 99.2524 69.5096C99.5752 69.7786 100.167 70.2089 100.113 70.4778C100.059 70.8544 99.5752 71.3385 99.1987 71.4998C98.7683 71.6612 98.1767 71.4461 97.6926 71.3923C97.585 71.3923 97.4774 71.1233 97.3698 71.0157C97.5312 70.962 97.7463 70.8544 97.9077 70.8544C98.3918 70.8544 98.9297 70.9082 99.4138 70.9619C99.4138 70.6392 99.4138 70.4779 99.4676 70.3165Z" fill="#232323"/>
<path id="Vector_16" d="M128.782 70.8545C129.374 70.8545 129.804 70.8545 130.235 70.8545C130.396 70.8545 130.504 71.0159 130.665 71.1234C130.504 71.231 130.342 71.4462 130.235 71.4462C129.697 71.5 129.159 71.5 128.621 71.4462C128.46 71.4462 128.191 71.1772 128.191 71.0158C128.137 70.1014 128.137 69.2408 128.191 68.3264C128.191 68.165 128.406 68.0037 128.513 67.8423C128.621 68.0037 128.836 68.165 128.836 68.3264C128.782 69.0794 128.782 69.8863 128.782 70.8545Z" fill="#232323"/>
<path id="Vector_17" d="M106.352 68.2726C106.029 68.3264 105.653 68.434 105.169 68.5416C105.169 68.9719 105.222 69.4022 105.169 69.8325C105.115 70.3704 104.9 70.9083 104.792 71.4462C104.685 70.9083 104.523 70.3704 104.469 69.7788C104.416 69.3484 104.469 68.9719 104.469 68.5416C104.039 68.434 103.716 68.3802 103.34 68.3264C103.663 67.681 105.33 67.5734 106.352 68.2726Z" fill="#232323"/>
<path id="Vector_18" d="M72.1419 69.6711C72.1419 70.1014 72.1957 70.5318 72.1419 70.9083C72.1419 71.0696 71.9268 71.231 71.8192 71.3924C71.7116 71.231 71.4427 71.1234 71.4427 70.9621C71.3889 70.0476 71.3889 69.1332 71.4427 68.2726C71.4427 68.1112 71.6578 67.9499 71.8192 67.8423C71.9268 68.0037 72.1419 68.165 72.1419 68.3264C72.1419 68.7567 72.1419 69.2408 72.1419 69.6711Z" fill="#232323"/>
<path id="Vector_19" d="M117.271 69.7249C117.271 70.1552 117.325 70.5855 117.271 70.9621C117.271 71.1234 117.056 71.2848 116.948 71.4462C116.841 71.2848 116.572 71.1772 116.572 71.0158C116.518 70.1014 116.518 69.187 116.572 68.2188C116.572 68.0574 116.787 67.9499 116.894 67.8423C117.002 68.0037 117.271 68.1112 117.271 68.2726C117.325 68.7567 117.271 69.2408 117.271 69.7249Z" fill="#232323"/>
</g>
</g>
<defs>
<clipPath id="clip0_225_1528">
<rect width="202" height="116" fill="white"/>
</clipPath>
</defs>
</svg>
