<svg width="202" height="116" viewBox="0 0 202 116" fill="none" xmlns="http://www.w3.org/2000/svg">
<g id="Frame">
<path id="Vector" d="M92.544 0C95.028 0.303268 97.5649 0.555988 99.9961 0.960345C111.623 2.98213 121.665 7.88496 130.333 15.5677C131.443 16.5786 132.553 17.5895 133.874 18.8026C131.76 19.4092 129.91 19.9651 128.06 20.42C127.849 20.4706 127.479 20.2179 127.268 19.9651C118.917 12.3329 109.034 7.48061 97.6177 5.86318C81.4979 3.53813 66.9108 7.27842 54.2263 17.0841C43.5502 25.3734 36.8909 36.0889 34.7768 49.0283C31.87 66.4662 36.8909 81.7813 49.6811 94.5691C57.7146 102.606 67.5979 107.66 79.0667 109.53C95.6094 112.26 110.566 108.671 123.674 98.6126C133.821 90.8288 140.164 80.6693 142.912 68.488C143.07 67.8815 143.282 67.6287 143.916 67.4771C145.554 67.0728 147.14 66.5673 148.99 66.0619C148.62 67.8815 148.356 69.5494 147.933 71.1669C142.278 93.356 124.255 110.187 100.736 114.484C80.6523 118.123 62.8412 113.22 47.7256 99.9773C37.208 90.7782 31.0243 79.2035 29.1217 65.7586C24.735 34.8758 46.0871 7.5817 75.9485 1.3647C78.7496 0.758168 81.6565 0.555993 84.5105 0.151636C84.8276 0.101091 85.1447 0.0505447 85.5147 0C87.8401 0 90.1656 0 92.544 0Z" fill="#0160C9"/>
<path id="Vector_2" d="M105.017 60.0452C103.537 55.1424 102.057 50.3912 100.577 45.4883C103.378 44.7807 106.127 43.9215 108.928 43.5171C112.68 42.9611 115.957 45.1851 117.12 48.6727C118.283 52.2108 116.961 55.6984 113.579 57.3663C111.729 58.2762 109.615 58.7311 107.606 59.3881C106.761 59.5903 105.968 59.7925 105.017 60.0452ZM106.285 58.2256C108.135 57.6696 109.879 57.2147 111.57 56.6587C111.993 56.5576 112.363 56.3049 112.733 56.1027C115.27 54.6369 116.327 52.1097 115.481 49.2792C114.689 46.5498 112.416 44.6796 109.509 44.8818C107.184 45.084 104.964 45.7411 102.586 46.2465C103.907 50.4417 105.07 54.2831 106.285 58.2256Z" fill="#0160C9"/>
<path id="Vector_3" d="M68.7607 64.7477C70.6106 66.1124 72.249 67.376 73.8874 68.6396C72.8303 69.2967 71.9847 69.2462 71.0334 68.4374C70.082 67.5782 68.9721 66.7695 67.8623 66.0618C67.5451 65.8597 67.0166 65.7586 66.5938 65.8597C65.114 66.2135 63.6341 66.6684 62.0485 67.1233C62.5242 68.6396 62.947 70.1054 63.4227 71.6723C62.947 71.8239 62.4185 71.9756 61.7843 72.1777C60.3044 67.3255 58.8246 62.5743 57.3447 57.6209C60.1987 57.0143 62.8413 55.7507 65.7482 55.7002C68.0737 55.7002 69.7649 56.7616 70.5577 58.7329C71.4562 60.9063 71.0862 62.827 69.3421 64.3433C69.2364 64.495 69.025 64.596 68.7607 64.7477ZM59.4588 58.4802C60.2516 61.0074 60.9387 63.3324 61.7314 65.8091C63.687 65.152 65.5896 64.6971 67.3337 63.939C69.2364 63.0797 69.7649 61.4623 69.1307 59.5921C68.4965 57.8231 66.9109 56.8122 64.9026 57.2165C63.1056 57.4693 61.3615 58.0252 59.4588 58.4802Z" fill="#0160C9"/>
<path id="Vector_4" d="M96.5078 62.3213C94.9223 62.9783 94.9223 62.9783 93.9181 61.8664C93.231 61.1082 92.5968 59.9457 91.7512 59.6929C90.9055 59.4402 89.7956 60.0973 88.7915 60.4006C87.3116 60.8049 85.8318 61.2598 84.3519 61.6136C83.612 61.7653 83.3477 62.1191 83.2949 62.7762C83.242 63.5343 83.1363 64.242 83.0306 64.9496C82.8192 66.3648 82.8192 66.3648 81.1279 66.567C81.445 64.2925 81.7622 62.0685 82.1321 59.8446C82.5549 56.913 83.0306 53.9308 83.4534 50.9992C83.5063 50.4938 83.6648 50.14 84.2462 50.0389C84.7219 49.9378 85.1447 49.6851 85.6203 50.1905C89.2143 54.2846 92.8082 58.2777 96.5078 62.3213ZM90.7998 58.4293C88.7915 56.1548 86.8888 54.0319 84.8804 51.7574C84.4576 54.7396 84.0876 57.5195 83.6648 60.4006C86.096 59.7435 88.3687 59.0864 90.7998 58.4293Z" fill="#0160C9"/>
<path id="Vector_5" d="M136.833 35.4307C137.203 35.2791 137.362 35.2285 137.573 35.178C137.837 35.0769 138.154 35.0263 138.524 34.9253C138.736 35.4812 138.894 36.0372 139.053 36.5427C139.74 38.7161 140.374 40.8895 141.061 43.1135C141.167 43.3662 141.22 43.6695 141.325 43.9222C142.752 47.3087 146.346 48.1174 149.253 45.7418C150.733 44.5287 150.839 42.9113 150.416 41.2433C149.676 38.615 148.83 35.9867 148.09 33.4089C147.985 33.0551 147.879 32.7518 147.773 32.2969C148.302 32.1453 148.778 32.0442 149.359 31.8926C149.835 33.3584 150.31 34.8242 150.733 36.2394C151.262 38.1096 151.896 39.9797 152.266 41.9004C152.741 44.5287 151.42 46.7527 148.83 47.7636C147.826 48.168 146.716 48.4207 145.606 48.5218C143.122 48.7239 141.167 47.6625 140.268 45.4891C138.947 42.2542 137.996 38.8172 136.833 35.4307Z" fill="#0160C9"/>
<path id="Vector_6" d="M169.813 27.3954C169.76 27.9514 169.707 28.3052 169.654 28.7095C168.227 28.7095 166.906 28.5579 165.585 28.7601C164.686 28.9117 163.735 29.3666 162.942 29.872C161.991 30.4786 161.621 31.3884 161.938 32.5004C162.255 33.5618 163.101 34.0673 164.158 34.1178C165.849 34.1683 167.487 34.1178 169.179 34.1683C170.764 34.2189 172.244 34.5727 173.037 36.1396C173.83 37.7065 173.618 39.5261 172.191 40.6381C169.601 42.7609 166.589 43.2664 163.312 42.3566C162.149 42.0533 162.836 41.3457 162.942 40.7392C165.215 41.5984 167.435 41.5479 169.601 40.5875C170.183 40.3348 170.711 39.981 171.134 39.5261C172.35 38.2625 171.768 36.2912 170.077 35.9374C168.861 35.6847 167.54 35.7858 166.272 35.7352C165.426 35.6847 164.528 35.7858 163.682 35.6847C162.044 35.5331 160.828 34.7749 160.299 33.208C159.771 31.5906 160.194 30.1753 161.515 29.1139C163.893 27.1426 166.695 26.7888 169.813 27.3954Z" fill="#0160C9"/>
<path id="Vector_7" d="M130.597 52.8703C129.963 53.022 129.488 53.1736 128.959 53.3252C127.479 48.4729 125.999 43.7217 124.52 38.8694C125.101 38.7178 125.577 38.5662 126.158 38.4146C127.638 43.2163 129.065 47.9675 130.597 52.8703Z" fill="#0160C9"/>
<path id="Vector_8" d="M106.285 58.2275C105.07 54.285 103.907 50.4436 102.639 46.299C105.017 45.7935 107.29 45.1364 109.562 44.9342C112.469 44.7321 114.742 46.5517 115.535 49.3316C116.327 52.1116 115.323 54.6894 112.786 56.1552C112.416 56.3573 112.046 56.5595 111.623 56.7112C109.879 57.1661 108.135 57.6715 106.285 58.2275Z" fill="white"/>
<path id="Vector_9" d="M59.458 58.4788C61.3607 58.0239 63.1048 57.4678 64.8489 57.1645C66.8573 56.8107 68.4957 57.7711 69.0771 59.5403C69.7113 61.4106 69.1828 63.0788 67.2801 63.8875C65.536 64.6458 63.6333 65.1513 61.6778 65.7579C60.9907 63.3315 60.2508 61.0063 59.458 58.4788Z" fill="white"/>
<path id="Vector_10" d="M90.8 58.4291C88.3689 59.1367 86.0962 59.7433 83.665 60.451C84.0879 57.5697 84.4578 54.7895 84.8806 51.8071C86.889 54.0313 88.7917 56.1543 90.8 58.4291Z" fill="white"/>
</g>
</svg>
