<svg width="202" height="116" viewBox="0 0 202 116" fill="none" xmlns="http://www.w3.org/2000/svg">
<g id="Frame">
<g id="Group">
<path id="Vector" d="M0 30.2548C5.42939 24.8258 10.8588 19.3969 16.2882 13.968C16.8222 13.434 17.3562 13.167 18.1128 13.167C78.9932 13.167 139.918 13.167 200.798 13.167C201.154 13.167 201.51 13.167 202 13.167C202 13.6565 202 14.0125 202 14.3685C202 37.8197 202 61.2708 202 84.722C202 85.4785 201.777 86.0125 201.243 86.5465C196.037 91.7084 190.83 96.9148 185.667 102.121C185.178 102.611 184.688 102.833 183.976 102.833C123.007 102.833 62.0374 102.833 1.11258 102.833C0.756554 102.833 0.400529 102.789 0 102.744C0 78.5811 0 54.4179 0 30.2548ZM21.317 17.3944C21.317 38.7986 21.317 60.1583 21.317 81.607C21.7176 81.607 22.0736 81.607 22.4296 81.607C80.5063 81.607 138.627 81.607 196.704 81.607C197.639 81.607 197.906 81.34 197.906 80.4056C197.861 59.7578 197.906 39.1101 197.906 18.4179C197.906 18.0619 197.861 17.7059 197.861 17.3054C138.939 17.3944 80.1502 17.3944 21.317 17.3944Z" fill="#232323"/>
<path id="Vector_2" d="M52.5586 49.434C52.5586 53.7949 52.5586 58.1559 52.5586 62.5613C50.8675 62.5613 49.2653 62.5613 47.5742 62.5613C47.5742 54.8184 47.5742 47.12 47.5742 39.2882C48.9538 39.2882 50.3334 39.2437 51.6685 39.3327C51.9355 39.3327 52.2471 39.7331 52.4251 40.0446C54.9618 44.2276 57.4539 48.4105 59.9906 52.549C60.2131 52.905 60.4356 53.2165 60.7027 53.706C61.2812 52.7715 61.7707 51.926 62.2603 51.0805C64.4409 47.387 66.6216 43.7381 68.8022 40.0446C69.1138 39.4661 69.4698 39.2437 70.1373 39.2437C71.2944 39.2882 72.496 39.2437 73.6976 39.2437C73.6976 47.031 73.6976 54.7294 73.6976 62.5168C72.051 62.5168 70.4489 62.5168 68.7132 62.5168C68.7132 58.0669 68.7132 53.6615 68.7132 49.256C68.6242 49.2115 68.5797 49.2115 68.4907 49.167C68.3127 49.3895 68.1792 49.5675 68.0457 49.8345C66.1321 52.994 64.2629 56.1979 62.3493 59.3574C61.6372 60.5589 59.5901 60.5589 58.878 59.3574C57.0534 56.3314 55.1843 53.3055 53.3596 50.324C53.1816 50.0125 52.9591 49.701 52.7811 49.3895C52.6921 49.3895 52.6031 49.3895 52.5586 49.434Z" fill="#232323"/>
<path id="Vector_3" d="M140.497 55.1742C142.232 57.6661 143.879 60.0246 145.659 62.6056C143.657 62.6056 141.876 62.6501 140.096 62.5611C139.829 62.5611 139.518 62.1606 139.295 61.8936C138.094 60.2026 136.937 58.4671 135.691 56.7762C135.423 56.4202 134.889 56.1532 134.489 56.1532C133.376 56.0642 132.264 56.1532 131.151 56.1087C130.484 56.0642 130.261 56.3312 130.306 56.9987C130.35 58.5116 130.306 60.0246 130.306 61.5376C130.306 61.8491 130.261 62.2051 130.261 62.6056C128.57 62.6056 126.968 62.6501 125.366 62.5611C125.188 62.5611 124.876 61.9381 124.876 61.6266C124.832 57.6217 124.876 53.6167 124.876 49.6118C124.876 46.5858 124.876 43.5598 124.876 40.5339C124.876 40.1779 124.876 39.8219 124.876 39.3324C125.232 39.2879 125.544 39.2434 125.811 39.2434C129.06 39.2434 132.353 39.1989 135.601 39.2434C137.738 39.2434 139.74 39.6884 141.565 40.8454C146.46 43.9158 146.46 51.4807 141.52 54.5067C141.253 54.7292 140.942 54.9072 140.497 55.1742ZM130.35 51.8367C132.531 51.7477 134.578 51.7477 136.581 51.5252C138.227 51.3027 139.295 50.2793 139.607 48.5883C140.052 46.0963 138.85 44.1828 136.314 43.8713C134.533 43.6488 132.709 43.7379 130.884 43.7379C130.706 43.7379 130.35 44.0938 130.35 44.2718C130.35 46.6748 130.35 49.1223 130.35 51.8367Z" fill="#232323"/>
<path id="Vector_4" d="M112.415 62.6059C110.59 62.6059 108.899 62.6504 107.253 62.5614C106.986 62.5614 106.63 62.2054 106.496 61.9384C105.962 60.7369 105.472 59.5354 104.983 58.2895C104.805 57.7555 104.493 57.5775 103.915 57.5775C100.8 57.5775 97.7289 57.5775 94.6137 57.5775C94.0796 57.5775 93.7681 57.7555 93.5456 58.2895C93.1006 59.4909 92.5665 60.6479 92.1215 61.8494C91.899 62.3834 91.6319 62.6504 91.0089 62.6059C89.4513 62.5614 87.9382 62.6059 86.2471 62.6059C86.4251 62.1164 86.5586 61.8049 86.6921 61.4489C89.8518 54.329 93.0561 47.2091 96.2158 40.0892C96.5273 39.4217 96.8833 39.1992 97.5509 39.1992C98.797 39.2437 100.043 39.1547 101.289 39.2437C101.645 39.2437 102.135 39.5552 102.268 39.8667C105.606 47.2091 108.899 54.596 112.148 61.9384C112.281 62.1164 112.326 62.2499 112.415 62.6059ZM102.98 53.439C101.779 50.5021 100.622 47.6986 99.331 44.6727C98.0404 47.7431 96.8833 50.5466 95.7262 53.439C98.1739 53.439 100.488 53.439 102.98 53.439Z" fill="#232323"/>
<path id="Vector_5" d="M159.456 56.2425C162.037 57.889 164.751 58.7789 167.689 58.6454C168.534 58.6009 169.424 58.3784 170.225 58.156C171.026 57.889 171.56 57.266 171.649 56.376C171.738 55.4415 171.204 54.8185 170.403 54.4625C169.558 54.1065 168.712 53.8395 167.822 53.5725C166.086 53.083 164.306 52.6825 162.571 52.104C160.613 51.4365 158.966 50.2796 158.343 48.0991C157.364 44.8951 158.788 41.5577 161.992 40.1337C166.532 38.1312 171.026 38.5317 175.477 40.6232C175.699 40.7122 175.966 41.2907 175.877 41.5132C175.477 42.6702 174.943 43.8272 174.453 45.0731C174.097 44.9396 173.83 44.8061 173.519 44.6726C171.605 43.7382 169.602 43.2042 167.466 43.3377C166.932 43.3822 166.398 43.4267 165.864 43.5602C164.395 43.9162 163.594 44.7171 163.55 45.8296C163.505 46.8531 164.084 47.5651 165.552 48.0101C166.888 48.4551 168.267 48.7221 169.647 49.1226C170.848 49.4786 172.05 49.7901 173.207 50.2351C175.521 51.1696 176.99 52.816 177.079 55.397C177.212 57.9779 176.189 60.0249 174.008 61.3599C173.073 61.9384 172.005 62.4279 170.982 62.6504C166.754 63.5849 162.704 63.0954 158.832 61.1374C157.586 60.5144 157.586 60.4699 158.165 59.2239C158.565 58.2449 159.01 57.266 159.456 56.2425Z" fill="#232323"/>
</g>
</g>
</svg>
