<svg width="202" height="116" viewBox="0 0 202 116" fill="none" xmlns="http://www.w3.org/2000/svg">
<path d="M92.5449 0C95.029 0.303268 97.5659 0.555988 99.9971 0.960345C111.624 2.98213 121.666 7.88496 130.334 15.5677C131.444 16.5786 132.554 17.5895 133.875 18.8026C131.761 19.4092 129.911 19.9651 128.061 20.42C127.85 20.4706 127.48 20.2179 127.269 19.9651C118.918 12.3329 109.035 7.48061 97.6187 5.86318C81.4989 3.53813 66.9118 7.27842 54.2273 17.0841C43.5512 25.3734 36.8919 36.0889 34.7778 49.0283C31.871 66.4662 36.8919 81.7813 49.682 94.5691C57.7155 102.606 67.5988 107.66 79.0677 109.53C95.6103 112.26 110.567 108.671 123.675 98.6126C133.822 90.8288 140.165 80.6693 142.913 68.488C143.071 67.8815 143.283 67.6287 143.917 67.4771C145.555 67.0728 147.141 66.5673 148.991 66.0619C148.621 67.8815 148.357 69.5494 147.934 71.1669C142.279 93.356 124.256 110.187 100.737 114.484C80.6533 118.123 62.8422 113.22 47.7265 99.9773C37.209 90.7782 31.0253 79.2035 29.1227 65.7586C24.7359 34.8758 46.0881 7.5817 75.9494 1.3647C78.7506 0.758168 81.6575 0.555993 84.5115 0.151636C84.8286 0.101091 85.1457 0.0505447 85.5156 0C87.8411 0 90.1666 0 92.5449 0Z" fill="#0160C9"/>
<path d="M105.018 60.0452C103.538 55.1424 102.058 50.3912 100.578 45.4883C103.379 44.7807 106.128 43.9215 108.929 43.5171C112.681 42.9611 115.958 45.1851 117.121 48.6727C118.284 52.2108 116.962 55.6984 113.58 57.3663C111.73 58.2762 109.616 58.7311 107.607 59.3881C106.762 59.5903 105.969 59.7925 105.018 60.0452ZM106.286 58.2256C108.136 57.6696 109.88 57.2147 111.571 56.6587C111.994 56.5576 112.364 56.3049 112.734 56.1027C115.271 54.6369 116.328 52.1097 115.482 49.2792C114.69 46.5498 112.417 44.6796 109.51 44.8818C107.185 45.084 104.965 45.7411 102.586 46.2465C103.908 50.4417 105.071 54.2831 106.286 58.2256Z" fill="#0160C9"/>
<path d="M68.7598 64.7477C70.6096 66.1124 72.248 67.376 73.8864 68.6396C72.8294 69.2967 71.9837 69.2462 71.0324 68.4374C70.0811 67.5782 68.9712 66.7695 67.8613 66.0618C67.5442 65.8597 67.0157 65.7586 66.5928 65.8597C65.113 66.2135 63.6331 66.6684 62.0476 67.1233C62.5232 68.6396 62.9461 70.1054 63.4217 71.6723C62.9461 71.8239 62.4175 71.9756 61.7833 72.1777C60.3035 67.3255 58.8236 62.5743 57.3438 57.6209C60.1978 57.0143 62.8403 55.7507 65.7472 55.7002C68.0727 55.7002 69.764 56.7616 70.5567 58.7329C71.4552 60.9063 71.0852 62.827 69.3411 64.3433C69.2354 64.495 69.024 64.596 68.7598 64.7477ZM59.4578 58.4802C60.2506 61.0074 60.9377 63.3324 61.7305 65.8091C63.686 65.152 65.5886 64.6971 67.3328 63.939C69.2354 63.0797 69.764 61.4623 69.1297 59.5921C68.4955 57.8231 66.9099 56.8122 64.9016 57.2165C63.1046 57.4693 61.3605 58.0252 59.4578 58.4802Z" fill="#0160C9"/>
<path d="M96.5069 62.3213C94.9213 62.9783 94.9213 62.9783 93.9171 61.8664C93.2301 61.1082 92.5958 59.9457 91.7502 59.6929C90.9046 59.4402 89.7947 60.0973 88.7905 60.4006C87.3106 60.8049 85.8308 61.2598 84.3509 61.6136C83.611 61.7653 83.3467 62.1191 83.2939 62.7762C83.241 63.5343 83.1353 64.242 83.0296 64.9496C82.8182 66.3648 82.8182 66.3648 81.127 66.567C81.4441 64.2925 81.7612 62.0685 82.1312 59.8446C82.554 56.913 83.0296 53.9308 83.4525 50.9992C83.5053 50.4938 83.6639 50.14 84.2452 50.0389C84.7209 49.9378 85.1437 49.6851 85.6194 50.1905C89.2133 54.2846 92.8072 58.2777 96.5069 62.3213ZM90.7989 58.4293C88.7905 56.1548 86.8878 54.0319 84.8794 51.7574C84.4566 54.7396 84.0867 57.5195 83.6639 60.4006C86.095 59.7435 88.3677 59.0864 90.7989 58.4293Z" fill="#0160C9"/>
<path d="M136.832 35.4307C137.202 35.2791 137.361 35.2285 137.572 35.178C137.836 35.0769 138.153 35.0263 138.523 34.9253C138.735 35.4812 138.893 36.0372 139.052 36.5427C139.739 38.7161 140.373 40.8895 141.06 43.1135C141.166 43.3662 141.219 43.6695 141.324 43.9222C142.751 47.3087 146.345 48.1174 149.252 45.7418C150.732 44.5287 150.838 42.9113 150.415 41.2433C149.675 38.615 148.829 35.9867 148.089 33.4089C147.984 33.0551 147.878 32.7518 147.772 32.2969C148.301 32.1453 148.777 32.0442 149.358 31.8926C149.834 33.3584 150.309 34.8242 150.732 36.2394C151.261 38.1096 151.895 39.9797 152.265 41.9004C152.74 44.5287 151.419 46.7527 148.829 47.7636C147.825 48.168 146.715 48.4207 145.605 48.5218C143.121 48.7239 141.166 47.6625 140.267 45.4891C138.946 42.2542 137.995 38.8172 136.832 35.4307Z" fill="#0160C9"/>
<path d="M169.813 27.3954C169.76 27.9514 169.707 28.3052 169.654 28.7095C168.227 28.7095 166.906 28.5579 165.585 28.7601C164.686 28.9117 163.735 29.3666 162.942 29.872C161.991 30.4786 161.621 31.3884 161.938 32.5004C162.255 33.5618 163.101 34.0673 164.158 34.1178C165.849 34.1683 167.487 34.1178 169.179 34.1683C170.764 34.2189 172.244 34.5727 173.037 36.1396C173.83 37.7065 173.618 39.5261 172.191 40.6381C169.601 42.7609 166.589 43.2664 163.312 42.3566C162.149 42.0533 162.836 41.3457 162.942 40.7392C165.215 41.5984 167.435 41.5479 169.601 40.5875C170.183 40.3348 170.711 39.981 171.134 39.5261C172.35 38.2625 171.768 36.2912 170.077 35.9374C168.861 35.6847 167.54 35.7858 166.272 35.7352C165.426 35.6847 164.528 35.7858 163.682 35.6847C162.044 35.5331 160.828 34.7749 160.299 33.208C159.771 31.5906 160.194 30.1753 161.515 29.1139C163.893 27.1426 166.695 26.7888 169.813 27.3954Z" fill="#0160C9"/>
<path d="M130.597 52.8703C129.963 53.022 129.488 53.1736 128.959 53.3252C127.479 48.4729 125.999 43.7217 124.52 38.8694C125.101 38.7178 125.577 38.5662 126.158 38.4146C127.638 43.2163 129.065 47.9675 130.597 52.8703Z" fill="#0160C9"/>
<path d="M106.285 58.2275C105.07 54.285 103.907 50.4436 102.639 46.299C105.017 45.7935 107.29 45.1364 109.562 44.9342C112.469 44.7321 114.742 46.5517 115.535 49.3316C116.327 52.1116 115.323 54.6894 112.786 56.1552C112.416 56.3573 112.046 56.5595 111.623 56.7112C109.879 57.1661 108.135 57.6715 106.285 58.2275Z" fill="white"/>
<path d="M59.459 58.4788C61.3617 58.0239 63.1058 57.4678 64.8499 57.1645C66.8582 56.8107 68.4967 57.7711 69.078 59.5403C69.7122 61.4106 69.1837 63.0788 67.2811 63.8875C65.537 64.6458 63.6343 65.1513 61.6788 65.7579C60.9917 63.3315 60.2518 61.0063 59.459 58.4788Z" fill="white"/>
<path d="M90.7991 58.4291C88.3679 59.1367 86.0953 59.7433 83.6641 60.451C84.0869 57.5697 84.4568 54.7895 84.8797 51.8071C86.888 54.0313 88.7907 56.1543 90.7991 58.4291Z" fill="white"/>
</svg>
