<svg width="16" height="16" viewBox="0 0 16 16" fill="none" xmlns="http://www.w3.org/2000/svg">
<g id="Group">
<path id="Vector" d="M0.49292 5.05566C5.51149 5.05566 10.501 5.05566 15.5113 5.05566C15.5113 5.13453 15.5113 5.2051 15.5113 5.27567C15.5113 7.99873 15.5113 10.7218 15.5113 13.449C15.5113 14.2501 14.9758 14.8686 14.1829 14.9932C14.0667 15.0098 13.9463 15.0222 13.826 15.0222C9.83269 15.0222 5.83942 15.0222 1.84615 15.0222C1.04085 15.0222 0.53028 14.5283 0.49292 13.7188C0.488769 13.6565 0.48877 13.5943 0.48877 13.532C0.48877 10.7674 0.48877 8.00288 0.48877 5.23416C0.492921 5.17604 0.49292 5.12208 0.49292 5.05566ZM12.5184 7.76212C12.5184 7.57532 12.5184 7.38853 12.5184 7.20589C12.5184 7.19759 12.5184 7.18513 12.5184 7.17683C12.5101 6.93607 12.369 6.79079 12.1282 6.79079C11.7505 6.78664 11.3727 6.78664 10.995 6.79079C10.7542 6.79079 10.6048 6.92777 10.6006 7.17268C10.5923 7.55457 10.5923 7.93646 10.6006 8.31836C10.6048 8.55081 10.7376 8.6961 10.9659 8.70025C11.3686 8.7127 11.7712 8.7127 12.1739 8.6961C12.4063 8.68779 12.5101 8.55911 12.5142 8.3225C12.5225 8.13156 12.5184 7.94476 12.5184 7.76212ZM7.81115 12.9094C8.00209 12.9094 8.19304 12.9135 8.38398 12.9094C8.64135 12.9052 8.77003 12.7931 8.77418 12.5316C8.78248 12.1497 8.78248 11.7678 8.77418 11.386C8.77003 11.141 8.62889 10.9999 8.38398 10.9958C8.00209 10.9875 7.6202 10.9875 7.23831 10.9958C6.9934 10.9999 6.86057 11.1452 6.86057 11.3943C6.85641 11.7678 6.85641 12.1373 6.86057 12.5109C6.86057 12.7682 7.00585 12.9094 7.26736 12.9135C7.45001 12.9094 7.6285 12.9094 7.81115 12.9094ZM12.5184 11.9588C12.5184 11.7678 12.5225 11.5769 12.5184 11.386C12.5142 11.1493 12.3814 10.9999 12.1489 10.9958C11.7546 10.9875 11.3644 10.9875 10.9701 10.9958C10.7542 10.9999 10.6131 11.1327 10.6089 11.3444C10.5965 11.7512 10.5965 12.1622 10.6089 12.569C10.6172 12.7765 10.7667 12.9052 10.9784 12.9094C11.3727 12.9135 11.7629 12.9135 12.1573 12.9094C12.3856 12.9052 12.5101 12.7765 12.5184 12.5524C12.5225 12.3531 12.5184 12.1539 12.5184 11.9588ZM6.86057 7.73306C6.86057 7.91986 6.86057 8.10666 6.86057 8.2893C6.86472 8.54251 6.9934 8.69194 7.24661 8.6961C7.63265 8.7044 8.02285 8.7044 8.40889 8.6961C8.6455 8.68779 8.76588 8.57572 8.77003 8.33911C8.78248 7.94061 8.78248 7.54212 8.77003 7.14777C8.76588 6.91947 8.61644 6.78663 8.38814 6.78663C8.00624 6.78248 7.62435 6.78248 7.24246 6.78663C7.0017 6.79078 6.86472 6.93192 6.85641 7.17683C6.85641 7.35947 6.86057 7.54627 6.86057 7.73306ZM3.16617 11.9505C3.16617 12.1373 3.16202 12.3241 3.16617 12.5109C3.17032 12.7641 3.31145 12.9094 3.56052 12.9094C3.92165 12.9135 4.28279 12.9135 4.64808 12.9094C4.90544 12.9052 5.07563 12.7558 5.08393 12.5026C5.09639 12.1207 5.09224 11.7388 5.08393 11.3569C5.07563 11.1369 4.9345 10.9999 4.71449 10.9958C4.32015 10.9875 3.92995 10.9875 3.53561 10.9958C3.30315 10.9999 3.17447 11.1535 3.17032 11.3901C3.16202 11.5769 3.16617 11.7637 3.16617 11.9505ZM4.12505 6.78248C3.94241 6.78248 3.76391 6.78248 3.58127 6.78248C3.57297 6.78248 3.56051 6.78248 3.55221 6.78248C3.31145 6.79078 3.17032 6.93192 3.16617 7.17268C3.16202 7.55042 3.16202 7.92816 3.16617 8.30591C3.16617 8.53421 3.29485 8.68779 3.52316 8.69195C3.9092 8.7044 4.29939 8.7044 4.68544 8.69195C4.91789 8.68364 5.07563 8.53006 5.07978 8.29345C5.09224 7.90741 5.08809 7.51721 5.07563 7.13117C5.06733 6.91116 4.91789 6.78663 4.69789 6.78248C4.50694 6.78248 4.316 6.78248 4.12505 6.78248Z" fill="#A5A5A5"/>
<path id="Vector_2" d="M15.4659 4.05934C10.4722 4.05934 5.48685 4.05934 0.51809 4.05934C0.51809 3.40348 0.489033 2.75592 0.526392 2.11252C0.555449 1.57289 0.995456 0.946085 1.82566 0.979293C2.19925 0.991746 2.57284 0.983445 2.94228 0.983445C2.99209 0.983445 3.0419 0.983445 3.11247 0.983445C3.11247 1.10798 3.11247 1.2159 3.11247 1.31968C3.11247 1.64761 3.11247 1.97138 3.11247 2.29931C3.11247 2.63969 3.29511 2.8514 3.58568 2.8514C3.86795 2.8514 4.0506 2.64385 4.0506 2.30762C4.0506 1.92987 4.0506 1.55213 4.0506 1.17439C4.0506 1.11628 4.0506 1.06231 4.0506 0.995898C6.54535 0.995898 9.02765 0.995898 11.5266 0.995898C11.5307 1.04986 11.5349 1.10797 11.5349 1.16194C11.5349 1.56459 11.5307 1.97138 11.539 2.37403C11.5432 2.60649 11.676 2.78083 11.8794 2.83894C12.0662 2.89291 12.2862 2.82649 12.3817 2.65215C12.4398 2.55667 12.4647 2.42799 12.4688 2.31592C12.4813 1.93402 12.473 1.54798 12.473 1.16609C12.473 1.11212 12.473 1.05401 12.473 0.983445C12.9379 0.983445 13.3821 0.970991 13.8221 0.987595C14.0421 0.995897 14.2704 1.03326 14.4696 1.11213C14.976 1.31137 15.3413 1.66006 15.4493 2.22459C15.4534 2.2495 15.4576 2.27441 15.4576 2.30346C15.4659 2.88045 15.4659 3.46575 15.4659 4.05934Z" fill="#A5A5A5"/>
</g>
</svg>
