<svg width="56" height="56" viewBox="0 0 56 56" fill="none" xmlns="http://www.w3.org/2000/svg">
<g id="Group 2076">
<rect id="Rectangle 1265" width="56" height="56" rx="6" fill="#D9D9D9" fill-opacity="0.36"/>
<g id="Group">
<path id="Vector" d="M25.9569 43.9916C25.4102 43.7757 25.2279 43.3689 25.2362 42.796C25.2611 41.4675 25.2445 40.1473 25.2445 38.8189C25.2445 38.6943 25.2445 38.5698 25.2445 38.4037C24.938 38.4037 24.6564 38.4037 24.3748 38.4037C23.7949 38.3954 23.3973 38.0384 23.3973 37.4655C23.389 35.8879 23.3559 34.3187 23.4387 32.7411C23.5133 31.3794 24.1677 30.2586 25.2031 29.3701C25.2362 29.3452 25.2694 29.3286 25.3025 29.3037C27.158 31.0888 29.9329 31.039 31.7304 29.2954C32.5504 29.9596 33.1302 30.7899 33.4036 31.8029C33.5444 32.326 33.6107 32.8823 33.619 33.422C33.6521 34.7089 33.6272 35.9876 33.6272 37.2745C33.6272 38.0467 33.2793 38.3954 32.5173 38.3954C32.2853 38.3954 32.0451 38.3954 31.7718 38.3954C31.7718 38.5449 31.7718 38.6611 31.7718 38.7857C31.7718 40.1224 31.7552 41.4592 31.7801 42.796C31.7883 43.3689 31.5978 43.7757 31.0594 43.9916C29.3448 43.9916 27.655 43.9916 25.9569 43.9916Z" fill="black"/>
<path id="Vector_2" d="M34.331 43.9916C33.7843 43.7757 33.5938 43.3689 33.6104 42.796C33.6352 41.9906 33.6186 41.1769 33.6104 40.3715C33.6104 40.1805 33.6683 40.0892 33.8506 40.0062C34.828 39.5246 35.4327 38.7441 35.4575 37.6399C35.499 35.9461 35.4824 34.244 35.4327 32.5419C35.4078 31.7116 35.1262 30.9228 34.7286 30.1091C36.7166 31.0058 38.4892 30.7318 40.0879 29.2954C40.85 29.9015 41.4133 30.6654 41.6949 31.5953C41.8688 32.1765 41.96 32.7909 41.9765 33.3888C42.0179 34.6923 41.9931 35.9959 41.9848 37.3077C41.9848 38.055 41.6286 38.4037 40.8748 38.4037C40.6429 38.4037 40.4027 38.4037 40.1211 38.4037C40.1211 38.5532 40.1211 38.6694 40.1211 38.7857C40.1211 40.1224 40.1045 41.4592 40.1293 42.796C40.1376 43.3689 39.9471 43.7757 39.4087 43.9916C37.7189 43.9916 36.0291 43.9916 34.331 43.9916Z" fill="black"/>
<path id="Vector_3" d="M17.5823 43.9916C17.0356 43.7757 16.8534 43.3689 16.8617 42.796C16.8865 41.4675 16.87 40.1473 16.87 38.8189C16.87 38.6943 16.87 38.5698 16.87 38.4037C16.5635 38.4037 16.2818 38.4037 15.9919 38.4037C15.4121 38.3954 15.0145 38.0384 15.0145 37.4655C15.0062 35.9045 14.9731 34.3353 15.0476 32.7743C15.1139 31.4126 15.7683 30.2918 16.7954 29.395C16.8368 29.3618 16.8782 29.3369 16.9197 29.312C18.5101 30.7401 20.2661 31.0141 22.2376 30.1257C22.2127 30.2004 22.2044 30.2419 22.1879 30.2835C21.7157 31.2715 21.5169 32.3177 21.5169 33.4137C21.5252 34.7089 21.5252 36.0042 21.5169 37.2994C21.5086 38.5615 22.0553 39.4748 23.1984 40.0394C23.2813 40.0809 23.3724 40.2138 23.3724 40.3134C23.3889 41.2184 23.3807 42.1151 23.3807 43.0201C23.3807 43.5266 23.099 43.8172 22.6683 43.9999C20.9785 43.9916 19.2804 43.9916 17.5823 43.9916Z" fill="black"/>
<path id="Vector_4" d="M23.8362 15.9859C23.8362 15.5293 23.8362 15.0975 23.8362 14.6658C23.8362 14.0763 23.8279 13.4867 23.8444 12.8972C23.861 12.3243 24.358 11.9092 24.9213 12.0171C25.8739 12.1998 26.8182 12.4074 27.7707 12.6149C28.1932 12.7063 28.45 13.0301 28.4831 13.4535C28.5162 13.8189 28.3009 14.2257 27.9447 14.3502C27.721 14.425 27.456 14.4333 27.224 14.3918C26.727 14.317 26.2383 14.1925 25.6999 14.0846C25.6999 14.234 25.6999 14.3502 25.6999 14.4582C25.6999 15.8365 25.7082 17.2148 25.6999 18.593C25.6833 20.2453 24.4326 21.4908 22.8339 21.4493C21.2021 21.416 19.9596 19.963 20.1418 18.3107C20.3075 16.7498 21.8316 15.6206 23.3889 15.9029C23.5214 15.9278 23.6622 15.9527 23.8362 15.9859Z" fill="black"/>
<path id="Vector_5" d="M34.0823 14.0845C34.0823 15.5873 34.0906 17.0403 34.074 18.485C34.074 18.784 34.0492 19.0912 33.9746 19.3735C33.5853 20.8597 32.0777 21.7398 30.6116 21.3662C29.1123 20.9759 28.2094 19.4814 28.5739 17.9952C28.9384 16.509 30.4211 15.5956 31.9286 15.9361C32.0115 15.9527 32.086 15.9776 32.2103 16.0025C32.2103 15.8696 32.2103 15.7617 32.2103 15.6537C32.2103 14.7736 32.2103 13.8935 32.2103 13.0134C32.2103 12.2994 32.7156 11.8925 33.4196 12.042C34.3308 12.2329 35.242 12.4156 36.1449 12.6149C36.5756 12.7145 36.8407 13.0632 36.8572 13.4867C36.8738 13.8852 36.6253 14.2755 36.2277 14.3834C36.0289 14.4332 35.797 14.4249 35.5899 14.3917C35.1094 14.3087 34.6124 14.1924 34.0823 14.0845Z" fill="black"/>
<path id="Vector_6" d="M22.7596 26.1569C22.7348 27.6431 21.5337 28.7972 20.0593 28.764C18.6262 28.7308 17.4666 27.5185 17.4997 26.0738C17.5328 24.6042 18.7174 23.4584 20.1835 23.4833C21.6165 23.5082 22.7845 24.7121 22.7596 26.1569Z" fill="black"/>
<path id="Vector_7" d="M25.8662 26.1237C25.8662 24.6624 27.0507 23.4834 28.5086 23.4834C29.9665 23.4834 31.1427 24.679 31.1344 26.1403C31.1178 27.5933 29.9582 28.7641 28.5086 28.7641C27.0507 28.7641 25.8662 27.585 25.8662 26.1237Z" fill="black"/>
<path id="Vector_8" d="M34.2402 26.1238C34.2402 24.6625 35.4165 23.4751 36.8743 23.4834C38.3322 23.4834 39.5084 24.6791 39.5002 26.1404C39.4919 27.5934 38.3239 28.7641 36.8826 28.7724C35.4248 28.7641 34.2402 27.5851 34.2402 26.1238Z" fill="black"/>
</g>
</g>
</svg>
