<svg width="56" height="56" viewBox="0 0 56 56" fill="none" xmlns="http://www.w3.org/2000/svg">
<g id="Group 2078">
<rect id="Rectangle 1265" width="56" height="56" rx="6" fill="#D9D9D9" fill-opacity="0.36"/>
<g id="Group">
<path id="Vector" d="M27.9625 32.3247C27.4194 32.3247 26.8848 32.3162 26.3416 32.3247C26.1804 32.3247 26.0955 32.2908 26.0446 32.1296C25.0432 29.2797 24.1352 26.4044 23.4563 23.4527C22.7944 20.5943 23.3799 18.0073 24.8905 15.5645C25.6033 14.4195 26.401 13.3423 27.326 12.3669C27.7843 11.8834 28.2086 11.8749 28.6499 12.3584C30.3132 14.165 31.6795 16.1583 32.4433 18.5162C32.9609 20.1193 32.8676 21.7224 32.5366 23.3424C31.9256 26.345 30.9497 29.2373 29.9398 32.1211C29.8804 32.2993 29.7871 32.3332 29.6173 32.3332C29.0657 32.3162 28.5141 32.3247 27.9625 32.3247Z" fill="black"/>
<path id="Vector_2" d="M25.5439 32.3247C24.585 32.3247 23.6939 32.3247 22.7944 32.3247C21.793 32.3247 21.5808 32.3926 20.7831 32.9608C20.1382 32.5368 19.4253 32.3586 18.6446 32.4943C17.2953 32.7234 16.4976 33.6224 16.4297 34.988C16.4297 35.0474 16.4297 35.1152 16.4212 35.1746C16.3618 35.7768 15.6744 36.1161 15.2246 35.7259C13.9602 34.6318 13.0352 33.3086 13.0012 31.5783C12.9588 29.4409 14.0196 27.8802 15.8781 26.9472C18.4494 25.6495 20.8765 26.1584 23.1593 27.7445C23.6939 28.1177 24.0758 28.5672 24.2965 29.2034C24.6189 30.1279 25.0263 31.027 25.3997 31.9345C25.4506 32.0448 25.493 32.1635 25.5439 32.3247Z" fill="black"/>
<path id="Vector_3" d="M30.415 32.3249C30.5254 32.0365 30.6187 31.8075 30.7121 31.57C31.1194 30.5691 31.5183 29.5767 31.9341 28.5759C31.9765 28.4826 32.0359 28.3893 32.1123 28.3214C33.6483 26.9219 35.4304 26.167 37.535 26.2264C39.9621 26.3027 42.1516 27.8973 42.7965 30.0772C43.2548 31.6209 42.9153 33.0373 42.0158 34.3181C41.6763 34.8016 41.252 35.2172 40.8447 35.6498C40.624 35.8872 40.3355 35.9381 40.03 35.8109C39.733 35.6837 39.5802 35.4462 39.5632 35.1154C39.419 32.8168 37.2719 31.7057 35.2946 32.9101C35.2692 32.9271 35.2352 32.9356 35.1843 32.961C34.6073 32.3758 33.869 32.2909 33.0797 32.3079C32.2056 32.3418 31.3485 32.3249 30.415 32.3249Z" fill="black"/>
<path id="Vector_4" d="M25.4501 38.3721C24.89 39.1016 24.313 39.7886 23.5322 40.2636C23.0825 40.5435 22.5733 40.7386 22.0726 40.9252C21.7501 41.0439 21.4192 40.9676 21.1815 40.6792C20.9439 40.3908 20.9779 40.077 21.1391 39.7547C21.5634 38.898 21.8859 38.0074 22.0387 37.0575C22.0471 37.0066 22.0726 36.9557 22.0896 36.9048C26.0187 36.9048 29.9479 36.9048 33.894 36.9048C33.9619 37.2271 34.0043 37.5494 34.1061 37.8548C34.3353 38.4994 34.5814 39.144 34.8444 39.7717C34.9802 40.094 35.0142 40.3824 34.7935 40.6623C34.5729 40.9422 34.2674 41.0015 33.9364 40.9337C32.9435 40.7301 32.1628 40.1533 31.4754 39.4493C31.1444 39.1101 30.8644 38.7284 30.5334 38.3382C30.6013 38.7454 30.6607 39.127 30.7286 39.5087C30.9832 41.1203 30.3552 42.3841 29.1332 43.3849C28.1403 44.2077 27.8433 44.1992 26.8504 43.3934C25.3907 42.2144 24.9155 40.7047 25.3483 38.8895C25.3823 38.7199 25.4162 38.5418 25.4501 38.3721Z" fill="black"/>
<path id="Vector_5" d="M27.9534 36.1332C26.1119 36.1332 24.2704 36.1417 22.4289 36.1332C21.3596 36.1248 20.6298 35.1578 20.9353 34.157C21.1305 33.5039 21.7245 33.0882 22.4543 33.0882C24.5589 33.0882 26.672 33.0882 28.7766 33.0882C30.372 33.0882 31.9759 33.0798 33.5713 33.0882C34.3436 33.0882 34.9546 33.6226 35.0819 34.369C35.2007 35.073 34.7849 35.794 34.0975 36.0315C33.8938 36.0993 33.6647 36.1248 33.444 36.1248C31.6195 36.1417 29.7864 36.1332 27.9534 36.1332Z" fill="black"/>
</g>
</g>
</svg>
