<svg width="56" height="56" viewBox="0 0 56 56" fill="none" xmlns="http://www.w3.org/2000/svg">
<g id="Group 2081">
<rect id="Rectangle 1265" width="56" height="56" rx="6" fill="#D9D9D9" fill-opacity="0.36"/>
<g id="Group">
<path id="Vector" d="M43.9995 33.066C43.3565 33.066 42.7051 33.0577 42.0621 33.0577C39.1143 33.0577 36.1665 33.0577 33.227 33.0577C33.1018 33.0577 32.9765 33.0577 32.8262 33.0577C32.8262 27.5531 32.8262 22.0736 32.8262 16.5523C31.9995 16.5523 31.2062 16.5523 30.3711 16.5523C30.3711 15.007 30.3711 13.5035 30.3711 12C34.9055 12 39.4483 12 43.9995 12C43.9995 19.0248 43.9995 26.0412 43.9995 33.066Z" fill="black"/>
<path id="Vector_2" d="M43.9999 37.5682C43.908 37.5766 43.8162 37.5849 43.7243 37.5849C40.1836 37.5849 36.6512 37.5849 33.1105 37.5849C33.027 37.5849 32.9435 37.5849 32.835 37.5849C32.835 36.6995 32.835 35.8308 32.835 34.9454C32.9018 34.9371 32.9769 34.9287 33.0437 34.9287C36.6345 34.9287 40.2254 34.9287 43.8162 34.9287C43.8746 34.9287 43.9414 34.9371 43.9999 34.9371C43.9999 35.8225 43.9999 36.6912 43.9999 37.5682Z" fill="black"/>
<path id="Vector_3" d="M28.5023 12C28.5023 13.5035 28.5023 15.007 28.5023 16.5356C27.241 16.5356 26.0215 16.5356 24.7519 16.5356C24.8103 15.6085 24.5932 14.6646 24.9523 13.7625C25.3115 12.8604 25.9881 12.3007 26.932 12.0668C26.9988 12.0501 27.0656 12.0251 27.1325 12C27.5835 12 28.0429 12 28.5023 12Z" fill="black"/>
<path id="Vector_4" d="M17.6367 18.4316C22.0626 18.4316 26.4801 18.4316 30.9144 18.4316C30.9144 25.4314 30.9144 32.4228 30.9144 39.4392C26.4885 39.4392 22.071 39.4392 17.6367 39.4392C17.6367 32.4395 17.6367 25.4397 17.6367 18.4316ZM28.4175 25.7237C28.4175 25.0889 28.4175 24.4875 28.4175 23.8861C25.6701 23.8861 22.9311 23.8861 20.2087 23.8861C20.2087 24.5126 20.2087 25.1056 20.2087 25.7237C22.9478 25.7237 25.6701 25.7237 28.4175 25.7237ZM21.4447 29.4658C23.3737 29.4658 25.2693 29.4658 27.1649 29.4658C27.1649 28.8394 27.1649 28.238 27.1649 27.6449C25.2442 27.6449 23.3486 27.6449 21.4447 27.6449C21.4447 28.2547 21.4447 28.8477 21.4447 29.4658Z" fill="black"/>
<path id="Vector_5" d="M15.7254 39.4557C13.7959 39.3972 12.5262 40.2409 12 42.2205C12 42.0451 12 41.9449 12 41.8363C12 34.9952 12 28.1542 12 21.3048C12 19.8681 12.8771 18.7321 14.2386 18.4732C14.7147 18.3813 15.2075 18.4147 15.7254 18.3896C15.7254 25.4228 15.7254 32.4142 15.7254 39.4557Z" fill="black"/>
<path id="Vector_6" d="M30.932 41.3355C30.932 42.246 30.932 43.1063 30.932 43.9834C30.8485 43.9917 30.7649 44.0001 30.6898 44.0001C25.5541 44.0001 20.4267 44.0001 15.291 44.0001C14.3224 44.0001 13.671 43.1648 13.9382 42.2877C14.1052 41.7531 14.481 41.4357 15.0405 41.3522C15.1741 41.3355 15.3077 41.3271 15.4414 41.3271C20.4769 41.3271 25.5207 41.3271 30.5562 41.3271C30.6731 41.3355 30.7817 41.3355 30.932 41.3355Z" fill="black"/>
</g>
</g>
</svg>
