<svg width="56" height="56" viewBox="0 0 56 56" fill="none" xmlns="http://www.w3.org/2000/svg">
<g id="Group 2079">
<rect id="Rectangle 1265" width="56" height="56" rx="6" fill="#D9D9D9" fill-opacity="0.36"/>
<g id="Group">
<path id="Vector" d="M28.5376 12C29.4723 12.1289 30.4168 12.1884 31.3318 12.4066C32.9354 12.7933 33.6536 13.7155 33.6339 15.3914C33.6241 16.3036 33.4667 17.2159 33.4077 18.1282C33.3585 18.981 33.2601 19.8437 33.3585 20.6767C33.5946 22.6401 34.9425 23.8598 36.92 23.8796C38.0317 23.8896 39.1435 23.7111 40.2552 23.6417C40.9537 23.602 41.6523 23.5623 42.3409 23.602C43.315 23.6714 44.0036 24.197 44.4169 25.0993C44.8301 25.9918 44.9481 26.9537 44.9875 27.9156C45.1449 33.0026 43.4133 37.3261 39.7731 40.8662C39.5764 41.0645 39.3796 41.1438 39.0943 41.1141C36.4084 40.8662 33.7225 40.6282 31.0268 40.4001C28.6459 40.1919 26.265 39.9836 23.8742 39.7754C21.9361 39.6068 19.9881 39.4382 18.0499 39.2498C17.9318 39.2399 17.7842 39.1308 17.7055 39.0317C17.0168 38.1888 16.1314 37.7921 15.0492 37.8615C14.8032 37.8715 14.6851 37.802 14.5572 37.6037C12.6388 34.4801 11.7139 31.0788 12.078 27.4197C12.7568 20.6767 16.2495 15.9566 22.4181 13.2693C24.3661 12.4264 26.4224 12.0892 28.5376 12ZM43.8266 28.7089C43.8266 26.7454 42.2327 25.139 40.2946 25.1489C38.3465 25.1588 36.7724 26.7454 36.7626 28.7089C36.7527 30.6624 38.3564 32.2688 40.2946 32.2688C42.2426 32.2688 43.8266 30.6723 43.8266 28.7089ZM20.2635 28.7188C20.2635 26.7554 18.6894 25.1588 16.7414 25.1489C14.7934 25.139 13.1995 26.7454 13.1995 28.6989C13.1995 30.6624 14.7737 32.2589 16.7217 32.2688C18.6599 32.2886 20.2537 30.6822 20.2635 28.7188ZM28.4983 13.2693C26.5503 13.2792 24.9663 14.8757 24.9761 16.8391C24.9761 18.8025 26.5798 20.3991 28.518 20.3991C30.4856 20.3891 32.0598 18.7728 32.05 16.7895C32.0303 14.8559 30.4266 13.2693 28.4983 13.2693ZM16.6528 20.3197C16.6528 22.2831 18.2467 23.8796 20.1947 23.8796C22.1328 23.8796 23.7267 22.2633 23.7267 20.3098C23.7267 18.3464 22.1328 16.7598 20.1848 16.7598C18.2171 16.7598 16.643 18.3464 16.6528 20.3197ZM24.9761 28.7287C24.9761 30.6723 26.5601 32.2787 28.4884 32.2787C30.4561 32.2886 32.05 30.6822 32.05 28.6989C32.05 26.7454 30.4463 25.139 28.4983 25.1489C26.5503 25.1588 24.9663 26.7554 24.9761 28.7287ZM38.8483 40.0134C40.1273 39.1705 40.6881 37.4748 40.1962 35.9874C39.7043 34.4801 38.2285 33.4587 36.6642 33.548C35.0704 33.6372 33.7028 34.8073 33.3781 36.3642C33.1027 37.7128 33.7028 39.3391 34.6571 39.8349C34.8834 39.5473 35.1097 39.2696 35.336 38.9821C34.2341 37.6831 34.2046 36.3344 35.2278 35.3726C36.1526 34.4999 37.589 34.5198 38.4843 35.4122C39.4976 36.4138 39.3993 37.7723 38.199 39.0812C38.4154 39.3886 38.6319 39.696 38.8483 40.0134ZM23.0872 39.0912C23.9529 37.921 23.9136 36.2154 23.0084 34.9858C22.0738 33.7166 20.4013 33.2108 18.9353 33.7761C17.5875 34.2818 16.584 35.7097 16.6725 37.0087C17.0464 37.0087 17.4202 37.0087 17.8039 37.0087C17.9417 35.918 18.4926 35.1346 19.5552 34.8371C20.4701 34.5793 21.2966 34.8272 21.9164 35.5511C22.6838 36.4336 22.6936 37.4252 22.1328 38.4565C22.4673 38.6747 22.7822 38.8829 23.0872 39.0912ZM26.5995 39.1407C28.1343 37.7525 29.4526 37.9012 30.7021 39.6266C31.0464 39.4779 31.3908 39.3192 31.7548 39.1606C31.0858 37.8318 30.0626 37.0881 28.6065 37.0385C27.4062 36.9988 26.4421 37.4946 25.6845 38.4565C26.019 38.7044 26.3142 38.9226 26.5995 39.1407Z" fill="black"/>
<path id="Vector_2" d="M22.6045 42.9982C22.6537 42.2842 22.693 41.6 22.7422 40.8662C23.5391 40.9356 24.3065 40.9951 25.0739 41.0645C27.199 41.2529 29.3241 41.4413 31.4492 41.6298C33.8695 41.838 36.2897 42.0562 38.7001 42.2644C40.5104 42.4231 42.3109 42.5817 44.1211 42.7404C44.2293 42.7503 44.3474 42.7503 44.4458 42.7701C44.8098 42.8395 45.0263 43.1073 44.9967 43.4444C44.9672 43.7816 44.7114 44.0097 44.3376 43.9997C43.5702 43.9799 42.7929 43.9402 42.0255 43.9006C39.015 43.7617 35.9946 43.6229 32.984 43.4841C29.5898 43.3254 26.1955 43.1767 22.8013 43.0279C22.7619 43.0279 22.7226 43.018 22.6045 42.9982Z" fill="black"/>
<path id="Vector_3" d="M12.2949 41.2529C12.8754 40.6579 13.4165 40.0828 13.997 39.5473C14.8037 38.7937 16.0335 38.873 16.7222 39.706C16.8206 39.825 16.8895 40.0134 16.8895 40.172C16.8501 41.0942 16.7911 42.0264 16.7222 42.9486C16.7124 43.0973 16.6042 43.2758 16.4861 43.375C15.7089 44.079 14.4987 44.0195 13.81 43.2163C13.2788 42.5916 12.8065 41.9272 12.2949 41.2529Z" fill="black"/>
<path id="Vector_4" d="M19.0732 42.8096C18.6698 42.8096 18.3058 42.8096 17.8926 42.8096C17.9516 42.0064 18.0008 41.2429 18.05 40.4595C18.4534 40.4991 18.8174 40.5289 19.2208 40.5586C19.1716 41.3222 19.1224 42.056 19.0732 42.8096Z" fill="black"/>
<path id="Vector_5" d="M20.4015 40.6577C20.8147 40.6974 21.1689 40.7271 21.5723 40.7668C21.5231 41.5006 21.4739 42.2046 21.4247 42.9583C21.0311 42.9384 20.6671 42.9186 20.2539 42.8988C20.3031 42.1551 20.3523 41.4312 20.4015 40.6577Z" fill="black"/>
<path id="Vector_6" d="M42.6463 28.7188C42.6463 30.0277 41.5837 31.0987 40.2752 31.0887C38.9765 31.0788 37.9238 30.0079 37.9337 28.689C37.9435 27.3999 38.9962 26.3389 40.285 26.3389C41.5936 26.3389 42.6463 27.3999 42.6463 28.7188Z" fill="black"/>
<path id="Vector_7" d="M16.7117 26.3389C18.0104 26.329 19.0828 27.4 19.0828 28.7089C19.0828 30.0179 18.0202 31.0888 16.7216 31.0888C15.4327 31.0888 14.38 30.0278 14.3702 28.7387C14.3603 27.4198 15.4131 26.3389 16.7117 26.3389Z" fill="black"/>
<path id="Vector_8" d="M30.8689 16.8291C30.8787 18.138 29.8161 19.2189 28.5175 19.2189C27.2188 19.2189 26.1562 18.1479 26.1562 16.839C26.1562 15.54 27.209 14.4789 28.488 14.469C29.7965 14.4492 30.859 15.5102 30.8689 16.8291Z" fill="black"/>
<path id="Vector_9" d="M17.8242 20.3099C17.8242 18.9911 18.8769 17.9399 20.1854 17.9399C21.4743 17.9499 22.527 19.001 22.5368 20.2901C22.5467 21.5891 21.4743 22.6799 20.1854 22.6799C18.8868 22.6997 17.8242 21.6288 17.8242 20.3099Z" fill="black"/>
<path id="Vector_10" d="M30.8691 28.7287C30.8593 30.0376 29.7967 31.0987 28.4882 31.0887C27.1896 31.0788 26.1368 29.998 26.1565 28.6791C26.1664 27.39 27.2289 26.3389 28.5177 26.3389C29.8164 26.3389 30.8691 27.4098 30.8691 28.7287Z" fill="black"/>
</g>
</g>
</svg>
