<svg width="56" height="56" viewBox="0 0 56 56" fill="none" xmlns="http://www.w3.org/2000/svg">
<g id="Group 2077">
<rect id="Rectangle 1265" width="56" height="56" rx="6" fill="#D9D9D9" fill-opacity="0.36"/>
<g id="Group">
<path id="Vector" d="M44.6258 27.2991C44.5143 27.9235 44.4446 28.5549 44.2842 29.1654C43.0711 33.7028 40.1779 36.6168 35.6602 37.9419C34.9491 38.15 34.2937 37.9558 33.7081 37.7407C33.8336 36.5405 34.0358 35.3749 34.0428 34.2093C34.0567 33.0437 33.8685 31.8712 33.7709 30.6502C34.4471 30.4351 35.221 30.4212 36.0018 30.5877C36.7966 30.7612 37.4938 31.1427 38.1003 31.6839C38.2816 31.8504 38.5116 32.003 38.7417 32.0655C39.2088 32.1973 39.6689 31.9614 39.892 31.559C40.1221 31.1289 40.0524 30.6293 39.6689 30.2616C38.7975 29.4083 37.7657 28.8324 36.5805 28.548C35.465 28.2843 34.3565 28.2913 33.248 28.5965C33.1713 28.6173 33.0876 28.6312 32.9831 28.652C32.2301 27.0563 31.4841 25.4675 30.7242 23.8579C31.0937 23.8024 31.4423 23.7677 31.7769 23.6914C32.3765 23.5527 32.8924 23.2474 33.3316 22.8242C33.7778 22.394 33.8057 21.7696 33.4083 21.3325C33.0319 20.9162 32.3765 20.8399 31.9443 21.2493C31.3377 21.8112 30.4732 21.7974 29.8039 21.2631C29.4205 20.9579 29.1904 20.6179 28.9952 20.2016C28.6466 19.4523 28.2771 18.7031 27.9355 17.9468C27.7124 17.4473 27.3569 17.1836 26.8061 17.1836C26.332 17.1836 25.8649 17.1836 25.3769 17.1836C25.3769 16.8368 25.342 16.5245 25.3839 16.2193C25.4536 15.7267 25.7673 15.4214 26.2274 15.2618C27.7891 14.7068 29.3996 14.3946 31.0379 14.2142C33.6523 13.9298 36.2667 13.9298 38.8811 14.2073C40.4498 14.3738 41.9905 14.6721 43.4964 15.1647C44.0263 15.3382 44.4237 15.6087 44.6119 16.1499C44.6258 19.8617 44.6258 23.5804 44.6258 27.2991ZM39.7108 23.8094C40.5544 23.8024 41.4886 23.4139 42.1021 22.7895C42.5064 22.3732 42.5274 21.7349 42.1509 21.3186C41.7674 20.9024 41.133 20.8607 40.6798 21.2215C39.892 21.8529 39.3482 21.8529 38.5814 21.2285C38.1142 20.8538 37.4659 20.8954 37.0824 21.3325C36.7129 21.7557 36.7408 22.394 37.1661 22.7964C37.8493 23.4694 38.679 23.7955 39.7108 23.8094Z" fill="black"/>
<path id="Vector_2" d="M31.9507 34.5009C31.867 37.734 30.4726 40.7798 27.6979 43.2011C26.9868 43.8255 26.1223 43.9018 25.2648 43.9643C20.0917 44.3459 15.5322 41.6886 13.3222 37.0264C11.9488 34.1263 10.5893 31.2262 9.21585 28.3262C8.86029 27.57 8.93001 27.1745 9.52958 26.5917C11.1888 24.9821 13.12 23.7541 15.1558 22.6857C17.6865 21.3605 20.3079 20.2574 23.1105 19.6469C23.8565 19.4873 24.6164 19.3902 25.3763 19.293C25.8852 19.2236 26.3036 19.4387 26.5197 19.9036C28.0535 23.1574 29.6012 26.4044 31.0931 29.6791C31.7136 31.0528 31.9507 32.6138 31.9507 34.5009ZM21.6046 38.9135C24.4142 38.8371 26.945 37.1165 27.907 34.5565C28.1441 33.9182 27.9071 33.3215 27.3214 33.0995C26.7567 32.8844 26.192 33.1689 25.9201 33.7794C25.7807 34.0916 25.6343 34.4108 25.446 34.6952C24.3027 36.4089 22.246 37.0957 20.1893 36.4574C19.5479 36.2632 18.9623 36.5199 18.7671 37.0819C18.5649 37.6646 18.8647 38.2752 19.5201 38.4556C20.1963 38.6498 20.9074 38.7608 21.6046 38.9135ZM17.6516 29.6652C16.1667 29.7068 14.8351 30.6018 14.3331 31.9617C14.2704 32.1351 14.2285 32.3433 14.2564 32.5306C14.3192 33.0232 14.6817 33.3631 15.1697 33.4394C15.6229 33.5088 16.076 33.2591 16.2782 32.7873C16.5222 32.2114 16.9336 31.8715 17.561 31.8368C17.7771 31.8299 17.9933 31.8992 18.2094 31.9409C18.788 32.0519 19.3249 31.7397 19.4782 31.1916C19.6246 30.6643 19.3388 30.1023 18.795 29.9219C18.4255 29.804 18.0351 29.7485 17.6516 29.6652ZM22.1554 28.4511C22.1345 29.1518 22.4621 29.6028 22.9223 29.7138C23.4521 29.8456 23.9332 29.6167 24.1772 29.1032C24.5885 28.2568 25.1462 27.9932 26.0317 28.2291C26.6452 28.3886 27.2099 28.0834 27.3772 27.5145C27.5445 26.9456 27.2308 26.3905 26.6243 26.1963C25.202 25.7314 23.6055 26.2171 22.7201 27.4173C22.4552 27.7781 22.2809 28.2083 22.1554 28.4511Z" fill="black"/>
</g>
</g>
</svg>
