<svg width="56" height="56" viewBox="0 0 56 56" fill="none" xmlns="http://www.w3.org/2000/svg">
<g id="Group 2075">
<rect id="Rectangle 1265" width="56" height="56" rx="6" fill="#D9D9D9" fill-opacity="0.36"/>
<g id="Group">
<path id="Vector" d="M12 27.3717C12.1061 26.5623 12.1959 25.7448 12.3183 24.9355C12.3754 24.5431 12.4733 24.1589 12.5876 23.7828C12.6203 23.6765 12.7427 23.5703 12.8488 23.513C14.1872 22.7936 15.6399 22.3767 17.1171 22.0742C18.6269 21.7636 20.1367 21.4938 21.6465 21.1668C23.7113 20.7172 25.5557 19.7852 27.2777 18.5753C27.4328 18.469 27.5797 18.3546 27.7592 18.2319C28.4121 18.7633 29.065 19.3029 29.7261 19.8424C28.9916 20.382 28.2816 20.8888 27.5879 21.4202C24.7151 23.603 22.0383 26.0146 19.6878 28.7696C18.0148 30.7316 16.5213 32.8163 15.5338 35.2198C15.3298 35.7103 15.1747 36.2171 15.0033 36.7158C14.9625 36.8302 14.9299 36.9447 14.8727 37.1327C14.6116 36.7158 14.3749 36.3643 14.1709 36.0046C13.1834 34.3041 12.5386 32.4811 12.2204 30.5436C12.1387 30.0531 12.1143 29.5544 12.0571 29.0557C12.0408 28.9168 12.0245 28.7696 12 28.6306C12 28.2055 12 27.7886 12 27.3717Z" fill="black"/>
<path id="Vector_2" d="M27.498 43.992C29.2201 39.8717 30.0525 35.4981 31.1298 31.198C31.4807 29.8082 31.8888 28.4348 32.3376 27.0696C32.6314 26.1948 33.1374 25.4264 33.9372 24.8296C34.1249 25.1893 34.3208 25.5245 34.4922 25.876C35.7572 28.4184 36.5733 31.108 37.1119 33.8876C37.5118 35.9232 37.7403 37.9751 37.8628 40.0516C37.8872 40.4358 37.7811 40.6647 37.4629 40.8936C35.4062 42.3897 33.1293 43.3461 30.6238 43.7794C30.0035 43.8857 29.367 43.9266 28.7385 44.0002C28.3305 43.992 27.9143 43.992 27.498 43.992Z" fill="black"/>
<path id="Vector_3" d="M44 28.9989C43.9184 29.6038 43.8613 30.2169 43.747 30.8137C43.1758 33.9857 41.772 36.7243 39.5522 39.0624C39.5277 39.0869 39.4869 39.1114 39.4298 39.1523C39.0136 33.8876 37.9771 28.8108 35.3818 24.0856C35.9939 23.9712 36.5652 23.8567 37.1446 23.7505C38.2791 23.5461 39.2257 24.0039 40.1072 24.6334C41.3477 25.5245 42.3352 26.6608 43.3145 27.8135C43.543 28.0833 43.7715 28.353 44 28.6228C44 28.7454 44 28.8681 44 28.9989Z" fill="black"/>
<path id="Vector_4" d="M30.9747 20.9463C31.6929 21.7801 32.3947 22.5977 33.1129 23.4315C32.8599 23.6522 32.6559 23.8157 32.46 24.0038C31.4154 25.0011 30.8196 26.2601 30.4442 27.609C29.8484 29.7427 29.3424 31.8927 28.812 34.0428C28.1019 36.8877 27.4327 39.7408 26.3799 42.4876C26.233 42.8719 26.0453 43.2479 25.8902 43.6321C25.8168 43.812 25.7107 43.8283 25.5556 43.8038C24.2009 43.5913 22.8951 43.2152 21.6464 42.6675C19.6469 41.7927 17.8923 40.5665 16.3906 38.9887C16.2601 38.8497 16.2029 38.7353 16.2356 38.5309C16.4886 36.7814 17.1986 35.2036 18.0963 33.6994C19.8265 30.7891 22.0953 28.3366 24.5681 26.0475C26.5513 24.2081 28.6732 22.5323 30.9747 20.9463Z" fill="black"/>
<path id="Vector_5" d="M26.3555 17.2755C25.7434 17.6434 25.1395 18.0276 24.5192 18.3791C23.0828 19.1885 21.524 19.589 19.9163 19.8752C17.9984 20.2185 16.0887 20.5701 14.2361 21.1832C13.9831 21.2649 13.7301 21.363 13.3955 21.4775C13.6077 21.0442 13.7791 20.6682 13.975 20.3166C15.4766 17.6352 17.5577 15.526 20.2346 14.0218C20.3244 13.9728 20.4794 13.9564 20.5692 13.9973C22.585 14.8638 24.4784 15.9511 26.282 17.1856C26.3065 17.1937 26.3147 17.2101 26.3555 17.2755Z" fill="black"/>
<path id="Vector_6" d="M43.8618 25.9002C43.1354 25.2053 42.458 24.4859 41.699 23.8482C41.1359 23.3741 40.5075 22.9735 39.8628 22.622C38.7121 21.9925 37.4716 21.9925 36.2147 22.2704C35.7169 22.3849 35.2272 22.5157 34.7376 22.6547C34.5907 22.6955 34.5009 22.6874 34.3948 22.5566C33.7337 21.7145 33.0564 20.8889 32.3545 20.0223C33.0727 19.6217 33.8235 19.1721 34.5907 18.7633C36.2066 17.905 37.9775 17.5861 39.773 17.3572C39.8628 17.349 39.9934 17.4063 40.0587 17.4799C42.0826 19.8179 43.3476 22.5157 43.821 25.5732C43.8291 25.6876 43.8454 25.8021 43.8618 25.9002Z" fill="black"/>
<path id="Vector_7" d="M31.1788 12.3135C33.9209 12.8857 36.3285 14.0629 38.3851 15.8288C37.1364 16.213 35.8306 16.5073 34.6228 17.0141C33.3986 17.521 32.2642 18.2404 31.0645 18.8781C30.4279 18.3385 29.7424 17.7663 29.0977 17.2267C29.6853 16.5073 30.3382 15.8451 30.8197 15.0767C31.3257 14.2673 31.1788 13.2863 31.1788 12.3135Z" fill="black"/>
<path id="Vector_8" d="M29.6043 12.0763C29.5635 12.7875 29.6206 13.4906 29.4574 14.1364C29.3513 14.5615 28.9595 14.9376 28.6576 15.2891C28.3801 15.6079 28.0455 15.8777 27.7598 16.1393C25.9725 15.0766 24.2097 14.0302 22.4551 12.9837C24.7076 12.1581 27.0661 11.8392 29.6043 12.0763Z" fill="black"/>
</g>
</g>
</svg>
