<svg width="56" height="56" viewBox="0 0 56 56" fill="none" xmlns="http://www.w3.org/2000/svg">
<g id="Group 2074">
<rect id="Rectangle 1265" width="56" height="56" rx="6" fill="#D9D9D9" fill-opacity="0.16"/>
<g id="Group">
<path id="Vector" d="M12 28.9418C12 28.3155 12 27.6892 12 27.0629C12.0235 26.8359 12.0548 26.6166 12.0783 26.3896C12.462 22.9449 13.7775 19.9072 16.0952 17.3315C18.5618 14.5992 21.6156 12.8925 25.2488 12.2505C25.8517 12.1409 26.4625 12.0861 27.0654 12C27.6918 12 28.3183 12 28.9447 12C29.4771 12.0705 30.0174 12.1174 30.5499 12.2036C33.8934 12.7594 36.8063 14.1999 39.2023 16.5956C42.7964 20.1891 44.3781 24.5576 43.924 29.6073C43.6108 33.0364 42.264 36.0584 39.954 38.6184C36.9394 41.9692 33.1495 43.7699 28.6471 43.9813C25.4994 44.13 22.5395 43.3941 19.8538 41.75C15.6959 39.2134 13.151 35.5495 12.2506 30.7503C12.1331 30.1553 12.0783 29.5447 12 28.9418ZM27.0184 19.1557C27.0184 18.5763 27.0263 17.9891 27.0106 17.4098C27.0106 17.3002 26.9245 17.1514 26.8305 17.0966C25.5855 16.4077 24.3248 15.7344 23.072 15.0689C22.9859 15.022 22.8449 15.0141 22.7588 15.0533C20.582 15.9301 18.7497 17.2767 17.2463 19.0852C17.1836 19.1635 17.1445 19.3122 17.168 19.414C17.4577 20.7841 17.7474 22.162 18.0606 23.532C18.0919 23.6651 18.2172 23.8217 18.3425 23.8843C19.2195 24.3306 20.1122 24.7534 20.997 25.1996C21.1692 25.2857 21.2945 25.2936 21.4668 25.1683C23.2443 23.8609 25.0296 22.5613 26.8149 21.2695C26.9715 21.1599 27.0184 21.0424 27.0184 20.8545C27.0106 20.283 27.0184 19.7193 27.0184 19.1557ZM29.0152 19.1478C29.0152 19.7193 29.0073 20.2909 29.023 20.8624C29.023 20.9876 29.1013 21.1442 29.1953 21.2147C30.9962 22.5456 32.805 23.853 34.6138 25.1761C34.7547 25.2779 34.8565 25.2779 35.0053 25.2074C35.9058 24.7534 36.8219 24.3228 37.7146 23.8687C37.832 23.8061 37.9495 23.6651 37.9808 23.532C38.2862 22.1855 38.5837 20.8311 38.8578 19.4766C38.8813 19.3514 38.8343 19.1635 38.7482 19.0617C37.2761 17.2845 35.4595 15.9536 33.3218 15.0689C33.22 15.022 33.0556 15.0298 32.9538 15.0846C31.7009 15.7422 30.4559 16.4155 29.2187 17.0966C29.117 17.1514 29.023 17.308 29.023 17.4255C29.0073 18.0048 29.0152 18.5763 29.0152 19.1478ZM17.4577 25.685C16.3458 26.8907 15.2652 28.065 14.1846 29.2472C14.122 29.3098 14.0907 29.4351 14.0985 29.5212C14.3491 31.7603 15.093 33.8271 16.338 35.7061C16.4084 35.8157 16.5729 35.9096 16.706 35.9174C18.0293 36.0036 19.3448 36.074 20.6681 36.1288C20.8012 36.1366 20.9735 36.0584 21.0596 35.9644C21.6234 35.3146 22.1793 34.6491 22.7196 33.9759C22.7901 33.8819 22.8293 33.7018 22.7979 33.6001C22.0775 31.5254 21.3493 29.4586 20.6211 27.3917C20.5898 27.2978 20.5115 27.1803 20.4254 27.1412C19.4387 26.648 18.46 26.1782 17.4577 25.685ZM28.0285 35.0015C26.9245 35.0015 25.8204 34.9936 24.7163 35.0093C24.5832 35.0093 24.411 35.0876 24.3327 35.1893C23.7532 35.8626 23.1894 36.5359 22.6335 37.2327C22.5552 37.3345 22.516 37.5224 22.5474 37.6398C22.9076 38.7985 23.2756 39.9572 23.6593 41.1159C23.6984 41.2255 23.8237 41.3507 23.9411 41.3899C26.3764 42.1336 28.8272 42.2119 31.3016 41.6013C31.4974 41.5543 31.607 41.476 31.6853 41.2959C32.2491 40.059 32.8207 38.822 33.4001 37.5928C33.4941 37.3971 33.4549 37.2797 33.3296 37.1309C32.7815 36.5046 32.2491 35.8626 31.7166 35.2207C31.5913 35.0719 31.466 35.0093 31.2703 35.0093C30.1975 35.0093 29.1091 35.0015 28.0285 35.0015ZM38.5759 25.6928C37.5815 26.1782 36.6183 26.648 35.6631 27.1334C35.5534 27.1882 35.4595 27.3369 35.4125 27.4543C34.6764 29.4899 33.9561 31.5254 33.22 33.5609C33.1574 33.741 33.1809 33.8584 33.2983 34.0072C33.8464 34.6413 34.3711 35.2833 34.9192 35.9096C34.9975 35.9957 35.1697 36.074 35.2794 36.0505C36.7906 35.7609 38.3019 35.4634 39.8131 35.1502C39.9384 35.1267 40.0793 35.0328 40.142 34.9232C41.1129 33.2556 41.7002 31.4549 41.9116 29.5368C41.9194 29.4507 41.8881 29.3255 41.8333 29.2628C40.7606 28.0728 39.6722 26.8907 38.5759 25.6928Z" fill="#232323"/>
</g>
</g>
</svg>
