<svg width="56" height="56" viewBox="0 0 56 56" fill="none" xmlns="http://www.w3.org/2000/svg">
<g id="Group 2080">
<rect id="Rectangle 1265" width="56" height="56" rx="6" fill="#D9D9D9" fill-opacity="0.36"/>
<g id="Group">
<path id="Vector" d="M28.568 12.0083C29.219 12.1502 29.8784 12.242 30.5044 12.4506C34.494 13.8023 36.7725 17.9827 35.7543 22.063C35.6875 22.33 35.7125 22.5553 35.821 22.8056C36.4971 24.3493 37.1648 25.893 37.8325 27.4366C38.0328 27.8956 37.9243 28.3211 37.5487 28.6048C37.29 28.8051 37.0062 28.8385 36.6974 28.7467C35.145 28.2877 33.5842 27.8372 32.0318 27.3782C31.7981 27.3115 31.6061 27.3282 31.3808 27.4283C29.0438 28.5047 26.6984 28.5047 24.3615 27.4199C24.1528 27.3282 23.9859 27.3115 23.7689 27.3699C22.1914 27.8372 20.6223 28.2961 19.0448 28.7467C18.4856 28.9052 17.9431 28.5798 17.8513 28.0124C17.8179 27.8038 17.8763 27.5535 17.9681 27.3532C18.6275 25.7928 19.3119 24.2408 19.9796 22.6888C20.0464 22.5386 20.0714 22.3384 20.0297 22.1882C18.8278 17.4654 21.916 12.801 26.7402 12.0751C26.8904 12.0501 27.0406 12.025 27.1992 12C27.6499 12.0083 28.109 12.0083 28.568 12.0083ZM25.4715 20.9032C25.1293 19.9186 24.8205 19.0174 24.5033 18.1162C24.3615 17.7074 24.036 17.5322 23.6854 17.649C23.3349 17.7658 23.1846 18.1162 23.3265 18.5168C23.8023 19.9102 24.2863 21.3037 24.7788 22.6972C24.9123 23.0727 25.146 23.2479 25.4799 23.2562C25.8304 23.2562 26.0641 23.0727 26.1977 22.6805C26.3562 22.2216 26.5065 21.7543 26.6651 21.2954C26.9739 20.3608 27.2827 19.4263 27.5915 18.4834C27.6917 18.183 27.6249 17.9243 27.3662 17.7408C27.1241 17.5739 26.8654 17.5655 26.6484 17.7658C26.5232 17.8743 26.4397 18.0495 26.3813 18.208C26.0725 19.0758 25.7887 19.952 25.4715 20.9032Z" fill="black"/>
<path id="Vector_2" d="M44.0007 43.2405C43.7753 43.8246 43.3413 44.0082 42.7237 43.9998C39.7858 43.9748 36.8562 43.9915 33.9183 43.9915C32.9167 43.9915 32.5995 43.6577 32.6413 42.6481C32.7414 40.028 34.5192 37.8753 37.0732 37.2828C37.3236 37.2244 37.574 37.191 37.9245 37.1326C36.756 36.899 35.9214 36.3399 35.4206 35.347C35.0701 34.6544 34.9783 33.9201 35.1535 33.1608C35.5041 31.6505 36.8812 30.5825 38.4086 30.6325C40.0028 30.6826 41.2881 31.8258 41.5385 33.4529C41.672 34.3207 41.4467 35.1217 40.9209 35.8309C40.3951 36.5402 39.6773 36.9407 38.8593 37.0909C39.4185 37.2578 40.0278 37.3663 40.5787 37.6166C42.5067 38.4844 43.6251 39.9947 43.9423 42.089C43.959 42.1808 43.984 42.2643 44.0007 42.3561C44.0007 42.6564 44.0007 42.9485 44.0007 43.2405Z" fill="black"/>
<path id="Vector_3" d="M16.198 12.0088C16.4066 12.1423 16.6236 12.2591 16.8156 12.4177C17.3498 12.8599 17.8756 13.3188 18.4098 13.7694C18.8771 14.1699 18.9523 14.729 18.6017 15.1462C18.2428 15.5801 17.6836 15.6051 17.1912 15.1962C16.657 14.7457 16.1312 14.2951 15.6054 13.8362C14.8125 13.1603 14.8709 12.5011 15.764 12.0088C15.9058 12.0088 16.0477 12.0088 16.198 12.0088Z" fill="black"/>
<path id="Vector_4" d="M40.2437 12.0083C40.2854 12.0334 40.3272 12.0584 40.3773 12.0834C41.0283 12.4005 41.1535 13.1765 40.6193 13.6521C40.01 14.2028 39.384 14.7285 38.7497 15.2542C38.3157 15.613 37.7565 15.5546 37.4143 15.1457C37.0804 14.7452 37.1389 14.1862 37.5645 13.8107C38.1488 13.3017 38.7414 12.7927 39.3423 12.292C39.4842 12.1752 39.6595 12.1001 39.818 12C39.9516 12.0083 40.1018 12.0083 40.2437 12.0083Z" fill="black"/>
<path id="Vector_5" d="M17.2415 37.1155C16.1315 36.8902 15.2968 36.3312 14.7877 35.3382C14.4371 34.6457 14.3537 33.9114 14.5206 33.1521C14.8545 31.6668 16.2233 30.5904 17.7423 30.6238C19.278 30.6572 20.6135 31.7836 20.8722 33.2605C21.0308 34.1701 20.8555 34.9961 20.3297 35.7471C19.8039 36.4981 19.061 36.932 18.1513 37.0988C18.6354 37.2157 19.1028 37.2908 19.5451 37.441C21.8738 38.242 23.4262 40.4866 23.3678 42.9564C23.3511 43.5655 22.9504 43.9661 22.3412 43.9661C19.2363 43.9661 16.1398 43.9661 13.0349 43.9661C12.3923 43.9661 12 43.5489 12 42.898C12.025 39.8441 14.1033 37.5161 17.1497 37.1489C17.1748 37.1656 17.1831 37.1489 17.2415 37.1155Z" fill="black"/>
<path id="Vector_6" d="M39.6762 19.6937C38.9 19.7104 38.491 19.36 38.4409 18.851C38.3992 18.3587 38.7414 17.9248 39.2589 17.8413C40.0601 17.7078 40.8614 17.591 41.6626 17.4658C42.1634 17.3907 42.6392 17.7162 42.7393 18.2001C42.8395 18.6757 42.5557 19.1847 42.0716 19.2849C41.2036 19.4517 40.3272 19.5769 39.6762 19.6937Z" fill="black"/>
<path id="Vector_7" d="M16.3151 19.6847C15.6557 19.5762 14.7961 19.4511 13.9364 19.2759C13.4523 19.1757 13.1685 18.6751 13.2603 18.1995C13.3605 17.7155 13.8279 17.3817 14.3287 17.4568C15.1216 17.5737 15.9061 17.6988 16.699 17.824C17.2416 17.9158 17.5921 18.3413 17.5504 18.842C17.517 19.3676 17.0997 19.7098 16.3151 19.6847Z" fill="black"/>
<path id="Vector_8" d="M30.3624 23.2562C29.8449 23.2395 29.2022 22.9976 28.6847 22.4635C28.4093 22.1798 28.3926 21.8294 28.6347 21.5707C28.8851 21.3037 29.2523 21.2953 29.5528 21.5707C29.8699 21.8711 30.2455 22.038 30.6795 21.9963C30.8298 21.9796 30.9883 21.9295 31.1135 21.8461C31.3973 21.6625 31.3973 21.3955 31.1052 21.2286C30.8381 21.0701 30.5376 20.9699 30.2539 20.8448C30.0535 20.7613 29.8532 20.6779 29.6446 20.5944C29.0603 20.3608 28.7515 19.9186 28.7181 19.3094C28.6847 18.7087 28.9518 18.2331 29.4526 17.916C30.3624 17.3402 31.5642 17.6573 32.232 18.2497C32.474 18.4667 32.4823 18.8255 32.282 19.0675C32.0817 19.3178 31.7729 19.3595 31.4641 19.2093C31.1887 19.0758 30.9049 18.9506 30.6044 18.8672C30.4792 18.8338 30.3123 18.8755 30.1871 18.934C30.0869 18.984 29.9701 19.1092 29.9701 19.201C29.9701 19.2844 30.0869 19.4096 30.1871 19.4513C30.5961 19.6349 31.0217 19.7767 31.4224 19.9603C32.1986 20.3024 32.5992 20.9115 32.5575 21.6208C32.499 22.5637 31.631 23.2646 30.3624 23.2562Z" fill="white"/>
</g>
</g>
</svg>
