<svg width="132" height="88" viewBox="0 0 132 88" fill="none" xmlns="http://www.w3.org/2000/svg">
<g id="Group 2096">
<path id="Vector" d="M131.778 0.299855C131.621 0.090365 131.333 -0.0413599 131.044 0.0118062C131.018 0.0118062 130.992 0.0118062 130.965 0.0118062C118.69 2.97641 106.6 6.96545 94.5879 10.8228C81.6836 15.0213 68.8063 19.3508 55.9544 23.7326C51.9939 25.0975 48.0334 26.4615 44.0738 27.8002C43.3128 28.0621 43.2866 29.1381 44.0738 29.3745C47.9287 30.6077 51.6003 32.5494 55.1942 34.3602C56.8463 35.1998 58.4722 36.0393 60.1244 36.9051C60.8592 37.2725 61.567 37.7184 62.328 38.0335C64.557 43.7802 66.7868 49.5269 68.9896 55.2997C69.3046 56.1393 69.6451 56.9788 69.9601 57.793C69.9863 57.8454 69.9863 57.8715 70.0125 57.9239C70.1958 58.3175 70.6941 58.554 71.1662 58.2913C74.9172 56.2448 78.5365 53.9619 81.9724 51.4424C85.2243 49.0809 88.3714 46.5876 91.6241 44.2523C95.8988 45.6695 100.043 47.4804 104.055 49.5269C104.947 49.9728 105.813 50.445 106.679 50.9179C107.045 51.1274 107.623 51.0226 107.806 50.6291C109.878 46.1155 111.976 41.6027 114.101 37.1154C118.061 28.6921 122.048 20.2951 126.192 12.0035C127.975 8.43426 129.785 4.8396 131.778 1.37587C131.857 1.29731 131.91 1.19257 131.936 1.08703C132.067 0.772795 131.988 0.510139 131.778 0.299855ZM62.4327 36.2496C61.8558 35.9608 61.2789 35.6719 60.7282 35.3569C59.023 34.465 57.3185 33.5731 55.587 32.7065C52.7287 31.2639 49.7911 29.7419 46.7749 28.5874C55.141 25.7267 63.4818 22.8669 71.8748 20.0594C85.5393 15.4934 99.23 10.9799 113.052 6.78135C116.96 5.60059 120.842 4.41983 124.776 3.34381C124.513 3.47554 124.251 3.63265 123.989 3.76358C118.559 6.67661 113.13 9.58884 107.702 12.5019C101.119 16.018 94.5617 19.5602 87.9786 23.0764C82.2867 26.1203 76.6217 29.1643 70.9306 32.2082C69.0682 33.2057 67.2058 34.2023 65.3442 35.1998C64.557 35.6196 63.6912 36.0132 62.9049 36.4853C62.7477 36.4329 62.5898 36.3544 62.4327 36.2496ZM70.5632 54.7752C68.6222 49.7633 66.6812 44.7253 64.7411 39.7134C64.5046 39.0833 64.2427 38.4532 64.0063 37.824C66.052 36.7218 68.1239 35.6196 70.1696 34.5174C75.5989 31.6051 81.0281 28.6921 86.4574 25.7791C93.0405 22.263 99.5974 18.7207 106.18 15.2046C110.77 12.7383 115.36 10.2713 119.976 7.805C108.357 16.0441 96.7645 24.2579 85.1457 32.4971C81.2376 35.2522 77.3295 38.0335 73.4484 40.7886C73.2643 40.9203 73.1596 41.0774 73.1072 41.2353C73.081 41.2877 73.0548 41.3663 73.0548 41.4186C72.2415 45.8798 71.4813 50.3402 70.5632 54.7752ZM81.1853 50.0514C78.2214 52.2034 75.1529 54.1975 71.9796 56.0084C72.9763 51.4162 73.7365 46.7979 74.576 42.1796C79.5593 41.0774 84.9093 42.2058 89.7355 43.6754C86.8502 45.7481 84.0443 47.9525 81.1853 50.0514ZM119.451 22.1321C115.806 29.7158 112.213 37.3518 108.672 44.9871C108.042 46.352 107.413 47.716 106.784 49.1071C104.423 47.7954 101.984 46.6408 99.518 45.5648C94.2205 43.2295 88.6602 41.2353 82.9167 40.4482C81.002 40.1855 79.0872 40.0546 77.1724 40.1855C91.44 30.0832 105.682 19.98 119.95 9.87768C122.887 7.805 125.799 5.73152 128.736 3.63265C125.379 9.66819 122.415 15.9394 119.451 22.1321Z" fill="#0160C9"/>
<path id="Vector_2" d="M65.8947 60.6529C62.5373 63.9595 58.603 66.9765 54.1974 68.6826C51.3907 69.7848 48.4269 70.3617 45.2798 70.1784C43.3912 70.0728 41.582 69.6007 39.9029 68.8659C39.9553 68.8135 40.0076 68.7612 40.0608 68.6826C42.1065 66.5567 43.7324 64.0905 44.7029 61.283C46.0138 57.5304 46.0138 53.1216 43.7586 49.7372C42.631 48.0312 40.9257 46.5877 39.011 45.9061C37.6215 45.407 36.1265 45.3284 34.6315 45.8799C31.3789 47.0345 29.6482 50.3927 29.2022 53.6207C28.3627 59.8134 31.8772 65.9537 37.0446 69.2333C36.9129 69.365 36.7558 69.4698 36.6248 69.6007C33.2413 72.382 29.2546 74.4031 25.2941 76.2131C20.8623 78.2342 16.2979 79.8871 11.6035 81.1988C10.5806 81.4877 11.0266 83.062 12.0494 82.7732C16.6915 81.4877 21.2289 79.8348 25.6091 77.8406C29.6744 76.0036 33.7396 73.9302 37.2541 71.1489C37.7001 70.8077 38.146 70.4403 38.5658 70.0467C39.2736 70.4141 40.0076 70.7029 40.7686 70.9394C46.7748 72.8549 52.7024 71.4901 57.9476 68.604C61.305 66.767 64.3736 64.3269 67.0223 61.729C67.8095 61.0727 66.6549 59.9181 65.8947 60.6529ZM38.3817 68.1049C34.4212 65.7958 31.5368 61.8075 30.8805 57.0583C30.4615 54.0405 31.1432 50.4451 33.5825 48.3986C35.287 46.9821 37.2803 46.9551 39.0641 47.7693C40.1917 48.2676 41.2146 49.1072 42.001 50.1046C44.3355 53.0954 44.3879 57.1106 43.2603 60.5744C42.4207 63.1724 40.8995 65.4815 39.0379 67.4495C38.8277 67.659 38.592 67.8692 38.3817 68.1049Z" fill="#0160C9"/>
<path id="Vector_3" d="M25.8189 80.9103C22.6456 83.114 19.1835 84.7938 15.4857 85.9484C14.489 86.2627 14.9088 87.8378 15.9316 87.5228C19.7604 86.342 23.3535 84.6098 26.6585 82.3268C27.498 81.7237 26.6847 80.3065 25.8189 80.9103Z" fill="#0160C9"/>
<path id="Vector_4" d="M35.9956 43.2297C37.0184 43.0194 38.0413 42.9671 39.038 43.0718C43.0238 43.5186 46.3812 46.457 47.2731 50.6031C47.4826 51.6268 49.0824 51.2062 48.8467 50.1572C47.7977 45.2762 43.7324 41.891 39.038 41.4451C37.9096 41.3403 36.7296 41.3927 35.5758 41.6554C34.5268 41.8649 34.9719 43.4654 35.9956 43.2297Z" fill="#0160C9"/>
<path id="Vector_5" d="M27.1827 51.0485C27.9699 48.7132 29.4911 46.6929 31.5368 45.3018C32.4017 44.6988 31.5891 43.2815 30.6972 43.8846C28.2841 45.5383 26.5534 47.8475 25.6092 50.6026C25.2679 51.6262 26.8415 52.046 27.1827 51.0485Z" fill="#0160C9"/>
<path id="Vector_6" d="M6.75207 82.6939C4.99442 83.1137 3.21137 83.5596 1.45372 83.9802C0.430865 84.2421 0.850639 85.8164 1.89968 85.5545C3.65654 85.1348 5.44038 84.688 7.19724 84.2682C8.22009 84.0326 7.77492 82.4582 6.75207 82.6939Z" fill="#0160C9"/>
</g>
</svg>
