<svg width="56" height="56" viewBox="0 0 56 56" fill="none" xmlns="http://www.w3.org/2000/svg">
<rect width="56" height="56" rx="28" transform="matrix(-1 0 0 1 56 0)" fill="#739E2F"/>
<g clip-path="url(#clip0_1006_2)">
<path d="M32.048 37.0204C32.3658 36.9373 32.6511 36.8049 32.8631 36.5373C33.2184 36.0888 33.2259 35.4376 32.8678 34.9884C32.7985 34.9014 32.7219 34.8197 32.6432 34.741C30.4519 32.5488 28.26 30.3572 26.0676 28.1662C26.0181 28.1168 25.962 28.0741 25.8467 27.9745C25.9348 27.9227 26.0066 27.8979 26.055 27.8496C28.2653 25.6432 30.4726 23.4339 32.6829 21.2274C33.0725 20.8384 33.2356 20.3932 33.0686 19.8524C32.8204 19.0486 31.7946 18.7224 31.1284 19.2357C31.0542 19.2929 30.9832 19.3552 30.9169 19.4214C28.3759 21.9612 25.8352 24.5013 23.2954 27.0424C22.8208 27.5173 22.7235 28.1075 23.0391 28.6432C23.1153 28.7726 23.2219 28.8876 23.329 28.9948C25.8014 31.4705 28.2772 33.9427 30.7477 36.4201C31.0215 36.6947 31.304 36.9396 31.6957 37.0205C31.8131 37.0204 31.9306 37.0204 32.048 37.0204Z" fill="white"/>
</g>
<defs>
<clipPath id="clip0_1006_2">
<rect width="18" height="18" fill="white" transform="matrix(-1 0 0 1 37 19)"/>
</clipPath>
</defs>
</svg>
