<svg width="56" height="56" viewBox="0 0 56 56" fill="none" xmlns="http://www.w3.org/2000/svg">
<rect width="56" height="56" rx="28" fill="#0160C9"/>
<g clip-path="url(#clip0_1003_5)">
<path d="M23.952 37.0204C23.6342 36.9373 23.3489 36.8049 23.1369 36.5373C22.7816 36.0888 22.7741 35.4376 23.1322 34.9884C23.2015 34.9014 23.2781 34.8197 23.3568 34.741C25.5481 32.5488 27.74 30.3572 29.9324 28.1662C29.9819 28.1168 30.038 28.0741 30.1533 27.9745C30.0652 27.9227 29.9934 27.8979 29.945 27.8496C27.7347 25.6432 25.5274 23.4339 23.3171 21.2274C22.9275 20.8384 22.7644 20.3932 22.9314 19.8524C23.1796 19.0486 24.2054 18.7224 24.8716 19.2357C24.9458 19.2929 25.0168 19.3552 25.0831 19.4214C27.6241 21.9612 30.1648 24.5013 32.7046 27.0424C33.1792 27.5173 33.2765 28.1075 32.9609 28.6432C32.8847 28.7726 32.7781 28.8876 32.671 28.9948C30.1986 31.4705 27.7228 33.9427 25.2523 36.4201C24.9785 36.6947 24.696 36.9396 24.3043 37.0205C24.1869 37.0204 24.0694 37.0204 23.952 37.0204Z" fill="white"/>
</g>
<defs>
<clipPath id="clip0_1003_5">
<rect width="18" height="18" fill="white" transform="translate(19 19)"/>
</clipPath>
</defs>
</svg>
