<svg width="10" height="11" viewBox="0 0 10 11" fill="none" xmlns="http://www.w3.org/2000/svg">
<g clip-path="url(#clip0_117_1687)">
<path d="M10.0117 7.74883C9.96556 7.92541 9.892 8.08391 9.74331 8.20169C9.49417 8.39908 9.13236 8.40322 8.8828 8.20427C8.8345 8.16577 8.78908 8.12322 8.74536 8.0795C7.52747 6.86211 6.30994 5.64438 5.09269 4.42638C5.06525 4.39891 5.04153 4.36772 4.98622 4.30369C4.95744 4.35263 4.94367 4.39252 4.91683 4.41941C3.69105 5.64736 2.46364 6.87364 1.23783 8.10155C1.02172 8.31802 0.77436 8.40863 0.473916 8.31586C0.0273601 8.17794 -0.153862 7.60808 0.131332 7.23797C0.163082 7.19674 0.197694 7.15727 0.234471 7.12047C1.64547 5.70877 3.05667 4.2973 4.46839 2.8863C4.73222 2.62261 5.06011 2.56858 5.35769 2.74388C5.42958 2.78625 5.4935 2.84544 5.55305 2.90494C6.92842 4.27849 8.30186 5.65394 9.67822 7.02647C9.83075 7.17858 9.96683 7.33552 10.0118 7.55313C10.0117 7.61836 10.0117 7.68361 10.0117 7.74883Z" fill="#0160C9"/>
</g>
<defs>
<clipPath id="clip0_117_1687">
<rect width="10" height="10" fill="white" transform="translate(0 10.5) rotate(-90)"/>
</clipPath>
</defs>
</svg>
