<svg width="10" height="11" viewBox="0 0 10 11" fill="none" xmlns="http://www.w3.org/2000/svg">
<g clip-path="url(#clip0_117_1680)">
<path d="M10.0117 3.25117C9.96556 3.07459 9.892 2.91609 9.74331 2.79831C9.49417 2.60092 9.13236 2.59678 8.8828 2.79573C8.8345 2.83423 8.78908 2.87678 8.74536 2.9205C7.52747 4.13789 6.30994 5.35562 5.09269 6.57362C5.06525 6.60109 5.04153 6.63228 4.98622 6.69631C4.95744 6.64737 4.94367 6.60748 4.91683 6.58059C3.69105 5.35264 2.46364 4.12636 1.23783 2.89845C1.02172 2.68198 0.77436 2.59137 0.473916 2.68414C0.0273601 2.82206 -0.153862 3.39192 0.131332 3.76203C0.163082 3.80326 0.197694 3.84273 0.234471 3.87953C1.64547 5.29123 3.05667 6.7027 4.46839 8.1137C4.73222 8.37739 5.06011 8.43142 5.35769 8.25612C5.42958 8.21375 5.4935 8.15456 5.55305 8.09506C6.92842 6.72151 8.30186 5.34606 9.67822 3.97353C9.83075 3.82142 9.96683 3.66448 10.0118 3.44687C10.0117 3.38164 10.0117 3.31639 10.0117 3.25117Z" fill="#0160C9"/>
</g>
<defs>
<clipPath id="clip0_117_1680">
<rect width="10" height="10" fill="white" transform="matrix(-4.37114e-08 1 1 4.37114e-08 0 0.5)"/>
</clipPath>
</defs>
</svg>
