<svg width="16" height="18" viewBox="0 0 16 18" fill="none" xmlns="http://www.w3.org/2000/svg">
<g id="Group">
<path id="Vector" d="M8.29089 0.441692C8.5192 0.48776 8.75181 0.525451 8.97581 0.575707C10.5352 0.931689 11.8663 2.37656 12.0773 3.92613C12.2152 4.94382 12.0644 5.90706 11.47 6.76979C10.6817 7.91313 9.59612 8.57902 8.15735 8.67535C6.26628 8.80099 4.71552 7.72047 4.00906 6.25048C3.34567 4.87262 3.61275 3.03826 4.65521 1.89493C5.29275 1.19553 6.05951 0.709722 7.01151 0.52126C7.1752 0.487756 7.33459 0.462628 7.49828 0.4375C7.76535 0.441688 8.02812 0.441692 8.29089 0.441692Z" fill="#232323" fill-opacity="0.46"/>
<path id="Vector_2" d="M7.99795 17.5624C6.60657 17.5624 5.21088 17.5624 3.8195 17.5624C3.10443 17.5624 2.43243 17.4242 1.83797 17.0138C1.16597 16.5447 0.769664 15.9039 0.700742 15.1124C0.575819 13.6968 0.743818 12.3064 1.2952 10.983C1.62259 10.1957 2.10935 9.51301 2.91058 9.0984C3.41027 8.83874 3.94873 8.7131 4.51304 8.72147C4.68965 8.72566 4.87919 8.80942 5.03858 8.89318C5.30565 9.03558 5.55119 9.21148 5.80965 9.36224C7.27857 10.2375 8.74749 10.2375 10.2121 9.35387C10.4146 9.23241 10.6256 9.11096 10.8152 8.97276C11.1684 8.71729 11.5518 8.67959 11.9739 8.74241C13.1155 8.90575 13.9253 9.51301 14.4681 10.4804C14.9549 11.3474 15.1745 12.2855 15.2693 13.2571C15.321 13.7513 15.3425 14.2455 15.3382 14.7397C15.321 16.2641 14.2656 17.3697 12.7062 17.5289C12.5167 17.5498 12.3272 17.5582 12.1419 17.5582C10.7592 17.5624 9.37641 17.5624 7.99795 17.5624Z" fill="#232323" fill-opacity="0.46"/>
</g>
</svg>
