<svg width="36" height="29" viewBox="0 0 36 29" fill="none" xmlns="http://www.w3.org/2000/svg">
<g id="Group 39">
<g id="Group">
<path id="Vector" d="M35.7148 25.08C34.3355 22.2027 33.1739 19.3255 32.7383 16.2564C32.3995 13.8587 32.2543 11.437 32.1575 9.0393C32.0607 6.37785 32.1333 3.71639 32.1333 1.05494C32.1333 0.719261 32.1333 0.407559 32.1333 0.0239258C27.5596 0.0239258 23.0343 0.0239258 18.4364 0.0239258C18.4364 0.359605 18.4364 0.671308 18.4364 1.00699C18.4364 3.28481 18.5332 5.56263 18.4122 7.81647C18.146 12.9955 19.6948 17.695 22.2841 22.0588C23.6393 24.3606 25.4059 26.4227 27.003 28.6046C27.3418 29.0601 27.6806 29.1081 28.213 28.8204C30.6813 27.5496 33.1739 26.3507 35.7148 25.08Z" fill="#0160C9"/>
<path id="Vector_2" d="M14.5163 0C9.91835 0 5.44144 0 0.964533 0C0.916134 0.0959082 0.843534 0.143859 0.843534 0.191814C0.916134 4.57962 0.311148 9.01538 1.23073 13.3312C2.4649 19.1816 5.36884 24.2648 9.45856 28.6526C9.65215 28.8444 10.1119 29.0122 10.3297 28.9163C12.8949 27.6935 15.46 26.3987 18.001 25.1519C17.2992 23.3057 16.549 21.5074 15.944 19.6852C14.9034 16.5921 14.5647 13.3792 14.5163 10.1423C14.4679 7.12118 14.4921 4.10008 14.4921 1.07897C14.5162 0.743289 14.5163 0.431587 14.5163 0Z" fill="#0160C9"/>
</g>
</g>
</svg>
