<svg width="202" height="116" viewBox="0 0 202 116" fill="none" xmlns="http://www.w3.org/2000/svg">
<g id="Frame">
<g id="Group">
<path id="Vector" d="M0.56543 46.5347C4.95167 46.6011 9.33791 46.6011 13.7241 46.8005C15.585 46.8669 17.3129 47.7308 18.4427 49.3257C20.4364 52.0502 19.3066 55.5058 15.7843 57.3C15.9837 57.3664 16.1166 57.4993 16.316 57.5658C18.642 58.3632 19.9048 60.0245 20.1706 62.4833C20.4364 65.0085 19.506 67.1349 17.18 68.2646C15.8508 68.9292 14.2558 69.3943 12.7937 69.4608C8.73978 69.5937 4.68584 69.5272 0.631887 69.5272C0.565429 61.8187 0.56543 54.1767 0.56543 46.5347ZM5.81562 65.0749C8.0752 65.0749 10.2019 65.2078 12.3285 65.0085C13.8571 64.8756 14.721 63.8123 14.7875 62.5497C14.8539 61.2207 13.99 60.1574 12.4614 60.0245C10.2683 59.8252 8.0752 59.9581 5.88208 59.9581C5.81563 61.6858 5.81562 63.4136 5.81562 65.0749ZM5.81562 50.7876C5.81562 52.4489 5.81562 54.0438 5.81562 55.6387C7.80937 55.6387 9.80312 55.7051 11.7304 55.6387C12.7273 55.5722 13.4583 55.0406 13.7906 54.0438C14.3887 52.3825 13.3254 50.987 11.2652 50.8541C9.53728 50.7212 7.74291 50.7876 5.81562 50.7876Z" fill="#232323"/>
<path id="Vector_2" d="M75.3311 46.5347C87.2271 46.5347 99.0566 46.5347 110.953 46.5347C110.953 47.9302 110.953 49.2592 110.953 50.7876C100.851 50.7876 90.7493 50.7876 80.5812 50.7876C80.5812 52.5154 80.5812 54.1102 80.5812 55.7716C84.2364 55.7716 87.8252 55.7716 91.4804 55.7716C91.4804 57.2335 91.4804 58.629 91.4804 60.091C87.8252 60.091 84.2365 60.091 80.5148 60.091C80.5148 61.8187 80.5148 63.4136 80.5148 65.1414C82.2427 65.1414 83.9706 65.1414 85.765 65.1414C85.765 66.6698 85.765 67.9988 85.765 69.4608C82.3092 69.4608 78.8533 69.4608 75.3311 69.4608C75.3311 61.8187 75.3311 54.2432 75.3311 46.5347Z" fill="#232323"/>
<path id="Vector_3" d="M112.614 60.1579C112.614 58.6959 112.614 57.3004 112.614 55.8385C116.269 55.8385 119.924 55.8385 123.579 55.8385C123.579 54.1771 123.579 52.5823 123.579 50.921C121.918 50.921 120.19 50.921 118.462 50.921C118.462 49.3926 118.462 47.9971 118.462 46.6016C121.918 46.6016 125.374 46.6016 128.83 46.6016C128.83 54.2436 128.83 61.8192 128.83 69.4612C116.934 69.4612 105.104 69.4612 93.208 69.4612C93.208 68.0657 93.208 66.6702 93.208 65.2083C103.376 65.2083 113.478 65.2083 123.646 65.2083C123.646 63.4805 123.646 61.8856 123.646 60.1579C119.924 60.1579 116.335 60.1579 112.614 60.1579Z" fill="#232323"/>
<path id="Vector_4" d="M42.8995 62.9484C42.8995 65.2078 42.8995 67.3343 42.8995 69.4608C41.1716 69.4608 39.5101 69.4608 37.7822 69.4608C37.7822 61.8187 37.7822 54.2432 37.7822 46.6676C37.8487 46.6011 37.9151 46.5347 37.9816 46.5347C42.102 46.6011 46.156 46.4018 50.2099 46.734C53.998 46.9998 56.3905 49.3257 56.9886 52.4489C57.6532 55.9045 56.7893 59.9581 53.1341 61.7523C53.0676 61.7523 53.0676 61.8187 52.9347 61.9517C54.5297 64.4104 56.0582 66.8027 57.7861 69.4608C56.2576 69.4608 54.9284 69.3279 53.5993 69.4608C52.2701 69.5937 51.5391 69.1285 51.0074 67.9324C50.2764 66.404 49.4124 65.0085 48.6149 63.5465C48.482 63.2807 48.0832 62.9484 47.8174 62.882C46.1559 62.9484 44.6274 62.9484 42.8995 62.9484ZM42.966 58.4297C45.1591 58.4297 47.2857 58.5626 49.3459 58.3632C51.2068 58.1639 52.2036 56.7019 52.2036 54.7083C52.2036 52.7812 51.2732 51.3192 49.4124 51.1199C47.2857 50.9205 45.1591 51.0534 42.966 51.0534C42.966 53.4457 42.966 55.9709 42.966 58.4297Z" fill="#232323"/>
<path id="Vector_5" d="M165.182 69.4608C158.47 69.4608 151.89 69.4608 145.244 69.4608C145.244 68.3311 145.178 67.2678 145.244 66.2046C145.244 65.8723 145.577 65.5401 145.776 65.2743C149.564 60.822 153.352 56.3032 157.207 51.8509C157.473 51.5851 157.672 51.3192 158.004 50.8541C153.817 50.8541 149.764 50.8541 145.71 50.8541C145.71 49.3921 145.71 47.9966 145.71 46.5347C152.09 46.5347 158.47 46.5347 165.049 46.5347C164.982 48.196 165.448 49.7909 164.052 51.3857C160.397 55.4393 156.941 59.6923 153.419 63.8788C153.086 64.211 152.821 64.6097 152.355 65.1414C156.742 65.1414 160.995 65.1414 165.248 65.1414C165.182 66.6698 165.182 67.9988 165.182 69.4608Z" fill="#232323"/>
<path id="Vector_6" d="M191.034 56.7021C191.699 55.5724 192.297 54.4427 192.895 53.3795C194.025 51.3194 195.221 49.2594 196.351 47.1329C196.617 46.6013 196.949 46.4019 197.547 46.4684C199.009 46.5348 200.405 46.4684 202 46.4684C201.468 47.3987 201.069 48.2626 200.604 49.1265C198.411 53.1801 196.218 57.2337 194.025 61.3538C193.759 61.8854 193.626 62.4834 193.626 63.0815C193.56 65.208 193.626 67.268 193.626 69.4609C191.898 69.4609 190.237 69.4609 188.376 69.4609C188.376 67.8661 188.309 66.3377 188.376 64.7428C188.509 62.9486 188.043 61.4202 187.113 59.8918C184.787 55.8382 182.594 51.6517 180.401 47.5316C180.268 47.2658 180.135 46.9336 179.869 46.4684C181.597 46.4684 183.259 46.4684 184.854 46.4684C185.053 46.4684 185.319 46.8671 185.518 47.1329C187.113 49.9239 188.708 52.7149 190.303 55.5059C190.569 55.9046 190.768 56.3034 191.034 56.7021Z" fill="#232323"/>
</g>
</g>
</svg>
