<svg width="202" height="116" viewBox="0 0 202 116" fill="none" xmlns="http://www.w3.org/2000/svg">
<g id="Frame" clip-path="url(#clip0_225_1504)">
<g id="Group">
<path id="Vector" d="M202 76.4627C200.061 76.4627 198.162 76.4239 196.223 76.4627C195.525 76.4627 195.137 76.2301 194.711 75.6874C188.895 67.9728 183.08 60.2194 177.264 52.5048C177.032 52.1947 176.799 51.9234 176.412 51.3806C176.412 59.8318 176.412 68.0503 176.412 76.3464C174.047 76.3464 171.798 76.3464 169.472 76.3464C169.472 64.0961 169.472 51.8846 169.472 39.518C171.604 39.518 173.775 39.4792 175.908 39.5568C176.218 39.5568 176.528 40.022 176.76 40.3321C182.615 48.0854 188.43 55.8 194.285 63.5534C194.478 63.8247 194.711 64.0573 195.021 64.4838C195.021 56.0714 195.021 47.8528 195.021 39.518C197.386 39.518 199.674 39.518 201.961 39.518C202 51.807 202 64.1349 202 76.4627Z" fill="#232323"/>
<path id="Vector_2" d="M31.6444 50.6056C30.365 53.2805 29.0468 55.9166 27.7674 58.5915C25.635 62.9721 23.5414 67.3528 21.4479 71.7334C21.1377 72.4312 20.75 72.7026 19.9746 72.6251C19.3931 72.5475 18.8115 72.5088 18.2687 72.6251C16.7179 72.8964 16.0588 72.1599 15.4385 70.8418C12.3757 64.329 9.19653 57.8937 6.09492 51.4197C5.93984 51.1483 5.78476 50.8769 5.4746 50.6443C5.4746 54.9087 5.4746 59.2118 5.4746 63.4761C5.4746 67.7792 5.4746 72.0436 5.4746 76.3854C3.26471 76.3854 1.17112 76.3854 -1 76.3854C-1 64.1351 -1 51.8849 -1 39.5183C0.628343 39.5183 2.21792 39.5183 3.84626 39.5183C4.93182 39.5183 6.21123 39.2081 7.0254 39.6733C7.8008 40.1385 8.11096 41.4566 8.57621 42.4258C11.7941 48.9386 14.9733 55.4514 18.1524 61.9642C18.3075 62.2743 18.5013 62.6232 18.734 63.0497C20.3623 59.7157 21.9519 56.4981 23.5027 53.2805C25.635 48.9386 27.7286 44.5967 29.8222 40.2548C30.0936 39.7121 30.4037 39.4795 31.0628 39.4795C33.4666 39.5183 35.8316 39.4795 38.3128 39.4795C38.3128 51.8073 38.3128 64.0188 38.3128 76.3079C36.2193 76.3079 34.1644 76.3079 31.9546 76.3079C31.9546 67.7404 31.9546 59.2118 31.9546 50.6443C31.8382 50.6443 31.7607 50.6443 31.6444 50.6056Z" fill="#232323"/>
<path id="Vector_3" d="M130.237 39.208C138.301 39.4794 144.349 42.2318 148.149 48.7446C154.236 59.1729 148.885 72.4311 137.138 75.765C129.19 78.0523 121.863 76.6179 116.086 70.454C106.432 60.1808 111.627 43.3948 125.429 39.9833C127.213 39.5181 129.074 39.3631 130.237 39.208ZM118.49 57.9323C118.49 64.7553 124.15 70.3765 130.973 70.3377C137.758 70.3377 143.302 64.7165 143.264 57.8548C143.264 51.0706 137.719 45.5658 130.896 45.5658C124.034 45.6433 118.49 51.1094 118.49 57.9323Z" fill="#232323"/>
<path id="Vector_4" d="M71.0739 40.2935C63.7852 48.3182 65.491 58.3975 70.6862 64.0575C75.959 69.7562 85.4188 72.0822 93.6381 66.3447C92.7852 70.9192 83.9456 76.0752 77.3159 75.8813C67.8172 75.5712 60.2571 68.6707 59.2878 59.2116C58.3186 49.4036 64.987 42.3093 71.0739 40.2935Z" fill="#232323"/>
</g>
</g>
<defs>
<clipPath id="clip0_225_1504">
<rect width="202" height="116" fill="white"/>
</clipPath>
</defs>
</svg>
