<svg width="202" height="116" viewBox="0 0 202 116" fill="none" xmlns="http://www.w3.org/2000/svg">
<g id="Frame" clip-path="url(#clip0_225_1421)">
<g id="Group">
<path id="Vector" d="M-0.305664 53.5189C4.92793 46.3609 10.1615 39.1428 15.3951 31.9848C17.9818 28.4359 20.5685 24.8268 23.2154 21.2178C23.6365 21.5185 24.0576 21.8193 24.5389 22.12C23.4561 23.5637 22.4334 25.0073 21.4107 26.3908C19.6662 28.7968 17.9217 31.2029 16.1771 33.6089C15.9967 33.9097 15.8764 34.451 15.9967 34.7518C17.5006 37.3984 19.1248 39.9849 20.6889 42.5714C20.749 42.6917 20.8693 42.7519 20.9896 42.9323C22.7342 40.0451 24.4787 37.1578 26.1029 34.2706C26.524 33.4886 27.0654 33.1277 27.9076 33.248C28.449 33.3081 29.0506 33.248 29.7123 33.248C29.7123 38.5413 29.7123 43.7143 29.7123 49.0076C28.6295 49.0076 27.5467 49.0076 26.4037 49.0076C26.4037 46.0602 26.4037 43.1128 26.4037 39.8646C26.1029 40.2857 25.9225 40.4661 25.8021 40.6466C24.599 42.6316 23.3959 44.6165 22.2529 46.6617C21.5912 47.7444 20.3279 47.8046 19.6662 46.7218C18.3428 44.5564 17.0193 42.391 15.5154 40.2857C15.5154 43.2331 15.5154 46.1203 15.5154 49.0677C14.3123 49.0677 13.2295 49.0677 12.0865 49.0677C12.0865 45.9399 12.0865 42.812 12.0865 39.7443C12.0264 39.7443 11.9662 39.6842 11.9061 39.6842C8.29668 44.6767 4.6873 49.6091 1.01777 54.6618C0.596678 54.361 0.175585 54.1204 -0.245509 53.8798C-0.305665 53.6994 -0.305664 53.5791 -0.305664 53.5189Z" fill="#232323"/>
<path id="Vector_2" d="M178.479 94.7828C177.998 94.4219 177.637 94.1813 177.216 93.8204C180.705 89.0083 184.194 84.1962 187.683 79.3841C185.938 77.2788 184.254 75.1735 182.329 72.8878C182.329 76.1961 182.329 79.2037 182.329 82.3315C181.066 82.3315 179.923 82.3315 178.72 82.3315C178.72 77.0984 178.72 71.9254 178.72 66.5719C179.622 66.5719 180.524 66.5118 181.427 66.5719C181.728 66.5719 181.968 66.8727 182.209 67.1133C184.254 69.5795 186.299 72.0457 188.285 74.5119C188.646 74.9329 188.946 75.2938 189.488 75.9555C189.488 74.3314 189.488 72.9479 189.488 71.6246C189.488 70.181 189.488 68.7374 189.488 67.2937C189.488 66.8125 189.608 66.5118 190.149 66.5719C191.112 66.5719 192.014 66.5719 193.097 66.5719C193.097 68.2562 193.097 69.8802 193.097 71.5043C193.157 71.5043 193.278 71.5645 193.338 71.5645C195.804 68.196 198.271 64.8275 200.737 61.3989C201.158 61.6997 201.579 62.0004 202 62.3012C194.24 73.1284 186.36 83.8954 178.479 94.7828Z" fill="#232323"/>
<path id="Vector_3" d="M50.5262 82.3914C49.6238 82.3914 48.7816 82.4516 47.9395 82.3914C47.6387 82.3313 47.2777 82.0305 47.0973 81.7899C44.691 78.9026 42.3449 76.0154 39.8184 72.9477C39.8184 76.1958 39.8184 79.2034 39.8184 82.3313C38.5551 82.3313 37.4121 82.3313 36.209 82.3313C36.209 77.0981 36.209 71.865 36.209 66.5717C37.1113 66.5717 38.0137 66.5115 38.8559 66.5717C39.1566 66.5717 39.5176 66.9326 39.698 67.1732C41.8637 69.8198 44.0293 72.4063 46.1949 75.053C46.3754 75.2936 46.5559 75.5342 46.9168 75.8951C46.9168 72.7071 46.9168 69.6995 46.9168 66.5717C48.1801 66.5717 49.323 66.5717 50.5262 66.5717C50.5262 71.9251 50.5262 77.0981 50.5262 82.3914Z" fill="#232323"/>
<path id="Vector_4" d="M61.1143 82.5116C61.1143 77.0379 61.1143 71.8649 61.1143 66.6919C61.2346 66.6317 61.3549 66.5716 61.415 66.5716C64.3025 66.5716 67.2502 66.4513 70.0775 66.6919C72.965 66.9926 75.3111 68.4964 76.3939 71.3837C77.4768 74.2709 77.176 77.098 75.1908 79.5642C73.9877 81.068 72.3635 81.9703 70.4986 82.1507C67.4307 82.3913 64.3025 82.3913 61.1143 82.5116ZM64.7838 79.3236C65.9869 79.3236 67.1299 79.3236 68.2127 79.3236C68.6338 79.3236 68.9947 79.2635 69.4158 79.2033C71.4611 78.8424 72.9049 77.3386 73.1455 75.3536C73.4463 73.0077 72.5439 71.0228 70.7393 70.1806C68.8143 69.2784 66.8291 69.6393 64.7838 69.6393C64.7838 72.8874 64.7838 76.0153 64.7838 79.3236Z" fill="#232323"/>
<path id="Vector_5" d="M159.831 82.6322C157.003 82.5119 154.176 81.2488 152.672 78.0006C151.228 74.8727 151.589 71.805 153.815 69.0982C155.981 66.4516 160.192 65.5493 163.741 66.7524C167.049 67.9554 169.155 70.7825 169.215 74.3314C169.335 79.0833 165.545 82.6924 159.831 82.6322ZM160.492 79.4442C163.44 79.4442 165.425 77.4592 165.425 74.5118C165.425 71.5644 163.44 69.4592 160.613 69.4592C157.725 69.4592 155.68 71.4441 155.62 74.3915C155.56 77.2788 157.605 79.4442 160.492 79.4442Z" fill="#232323"/>
<path id="Vector_6" d="M118.924 77.3988C120.067 79.0229 121.15 80.647 122.413 82.4515C121.029 82.4515 119.886 82.4515 118.743 82.4515C118.503 82.4515 118.202 82.1507 118.082 81.9703C117.6 81.3086 116.999 80.7071 116.698 79.9853C115.796 77.6996 113.991 77.9402 112.006 78.1808C112.006 79.6244 112.006 81.0079 112.006 82.4515C110.743 82.4515 109.66 82.4515 108.396 82.4515C108.396 77.2183 108.396 71.9852 108.396 66.8724C111.404 66.8724 114.352 66.6318 117.3 66.9325C120.007 67.2333 121.571 68.9777 121.992 71.3837C122.413 73.8499 121.511 75.8349 119.164 77.2785C119.104 77.2184 119.044 77.2785 118.924 77.3988ZM112.066 74.9928C113.149 74.9928 114.111 74.9928 115.074 74.9928C115.314 74.9928 115.615 74.9928 115.856 74.9326C117.3 74.7522 118.202 73.8499 118.262 72.5266C118.322 70.9626 117.721 69.9401 116.277 69.6995C114.893 69.4589 113.51 69.519 112.066 69.3987C112.066 71.3837 112.066 73.1281 112.066 74.9928Z" fill="#232323"/>
<path id="Vector_7" d="M88.6053 33.3081C89.8686 33.3081 91.0717 33.3081 92.2748 33.3081C92.2748 38.5413 92.2748 43.7142 92.2748 49.0075C91.1318 49.0075 89.9287 49.0075 88.6654 49.0075C88.6654 46.9023 88.6654 44.797 88.6654 42.6917C86.199 42.6917 83.9131 42.6917 81.5068 42.6917C81.5068 44.797 81.5068 46.9023 81.5068 49.0075C80.2436 49.0075 79.1006 49.0075 77.8975 49.0075C77.8975 43.7744 77.8975 38.5413 77.8975 33.3081C79.1006 33.3081 80.2436 33.3081 81.5068 33.3081C81.5068 35.2931 81.5068 37.2781 81.5068 39.3834C83.9131 39.3834 86.2592 39.3834 88.6654 39.3834C88.6053 37.3382 88.6053 35.3532 88.6053 33.3081Z" fill="#232323"/>
<path id="Vector_8" d="M139.076 46.0601C139.076 47.0827 139.076 47.985 139.076 49.0075C135.045 49.0075 131.015 49.0075 126.864 49.0075C126.864 43.8345 126.864 38.6014 126.864 33.3081C130.774 33.3081 134.685 33.3081 138.715 33.3081C138.715 34.2104 138.715 35.1126 138.715 36.1352C136.008 36.1352 133.361 36.1352 130.594 36.1352C130.594 37.3382 130.594 38.4209 130.594 39.5638C133 39.5638 135.346 39.5638 137.813 39.5638C137.813 40.5262 137.813 41.3684 137.813 42.3909C135.467 42.3909 133.06 42.3909 130.594 42.3909C130.594 43.6541 130.594 44.797 130.594 46.0601C133.421 46.0601 136.188 46.0601 139.076 46.0601Z" fill="#232323"/>
<path id="Vector_9" d="M98.7111 79.3839C98.7111 80.4666 98.7111 81.3689 98.7111 82.3313C94.6807 82.3313 90.6502 82.3313 86.5596 82.3313C86.5596 77.0981 86.5596 71.9251 86.5596 66.6318C90.4697 66.6318 94.3799 66.6318 98.4103 66.6318C98.4103 67.5341 98.4103 68.4965 98.4103 69.5191C95.7033 69.5191 92.9963 69.5191 90.2291 69.5191C90.2291 70.662 90.2291 71.7447 90.2291 72.8875C92.5752 72.8875 94.9814 72.8875 97.3877 72.8875C97.3877 73.9101 97.3877 74.7522 97.3877 75.7748C94.9814 75.7748 92.5752 75.7748 90.1689 75.7748C90.1689 77.038 90.1689 78.1207 90.1689 79.3839C92.9963 79.3839 95.8236 79.3839 98.7111 79.3839Z" fill="#232323"/>
<path id="Vector_10" d="M27.667 82.3912C26.4639 82.3912 25.381 82.3912 24.2982 82.3912C24.0576 82.3912 23.817 82.1506 23.6365 81.9701C23.5764 81.91 23.5162 81.7897 23.5162 81.6694C23.0951 79.3836 21.7115 78.6618 19.4857 78.9626C18.1623 79.143 16.7186 79.0227 15.335 79.0227C15.2748 79.0227 15.2146 79.0829 15.0943 79.0829C14.7334 79.925 14.4326 80.8874 13.9514 81.7295C13.7709 82.0303 13.3498 82.3311 12.9889 82.3912C12.0264 82.4514 11.0639 82.3912 9.9209 82.3912C10.0412 82.0303 10.1014 81.7295 10.2217 81.4889C12.3271 76.7972 14.4326 72.1054 16.4779 67.4136C16.7787 66.7519 17.1998 66.6316 17.8615 66.5113C19.9068 66.1504 20.9295 66.9925 21.7115 68.9173C23.3959 73.1881 25.3811 77.2784 27.2459 81.4889C27.4264 81.7295 27.5467 81.9701 27.667 82.3912ZM18.7639 70.2407C17.9217 72.346 17.1396 74.2106 16.3576 76.1355C18.042 76.1355 19.5459 76.1355 21.2303 76.1355C20.4482 74.2106 19.6662 72.346 18.7639 70.2407Z" fill="#232323"/>
<path id="Vector_11" d="M118.382 48.9476C118.202 49.0077 118.202 49.0077 118.142 49.0077C116.938 48.9476 115.495 49.3085 114.592 48.7671C113.75 48.2257 113.57 46.722 113.088 45.6393C110.863 45.6393 108.637 45.6393 106.411 45.6393C106.171 45.6393 105.93 45.94 105.629 46.1205C105.569 46.1806 105.569 46.2408 105.569 46.3009C105.148 47.2032 104.967 48.5265 104.306 48.8273C103.343 49.2483 102.02 48.9476 100.696 48.9476C100.817 48.5867 100.937 48.2859 101.057 47.925C103.103 43.2934 105.208 38.6617 107.253 34.0301C107.494 33.4286 107.855 33.2481 108.517 33.188C110.562 32.8872 111.645 33.609 112.427 35.6542C114.111 39.8647 116.096 43.955 117.901 48.1055C118.202 48.3461 118.262 48.6468 118.382 48.9476ZM109.539 36.9174C108.697 39.0226 107.915 40.8873 107.133 42.752C108.817 42.752 110.321 42.752 112.006 42.752C111.163 40.8272 110.442 39.0226 109.539 36.9174Z" fill="#232323"/>
<path id="Vector_12" d="M143.047 67.474C142.566 68.677 142.205 69.5793 141.904 70.3011C140.46 69.9402 139.077 69.5793 137.633 69.3387C136.911 69.2184 136.129 69.3988 135.467 69.6996C134.986 69.9402 134.505 70.5417 134.505 71.0229C134.505 71.4439 134.986 72.1056 135.407 72.2861C136.37 72.7071 137.392 72.8876 138.415 73.1883C139.257 73.4289 140.159 73.6695 141.002 74.0304C142.385 74.5718 143.348 75.5342 143.528 77.1583C143.709 78.9628 143.167 80.4666 141.603 81.5493C140.039 82.5719 138.295 82.8125 136.49 82.7523C134.324 82.6922 132.279 82.211 130.414 80.9478C130.835 80.0456 131.196 79.1433 131.677 78.1809C133.482 79.3238 135.407 79.9252 137.573 79.7448C138.114 79.6846 138.716 79.5644 139.197 79.3237C140.159 78.7824 140.22 77.5794 139.257 77.0982C138.415 76.6771 137.452 76.4365 136.49 76.1357C135.347 75.7748 134.204 75.5342 133.121 75.053C130.294 73.7297 129.933 69.88 132.339 67.9552C134.204 66.4514 136.43 66.271 138.655 66.5116C140.159 66.5717 141.543 67.0529 143.047 67.474Z" fill="#232323"/>
<path id="Vector_13" d="M68.5735 35.8346C67.7915 36.5564 67.0696 37.2181 66.3477 37.8797C63.1595 35.5338 60.3321 35.5338 58.4071 37.8196C56.7829 39.6843 56.9032 42.9324 58.5876 44.6768C60.5126 46.7219 63.5805 46.6016 66.2876 44.3159C67.0095 44.9775 67.7915 45.6994 68.5134 46.361C67.0095 48.8874 62.979 49.8498 59.6704 49.0077C56.1813 48.1656 53.6548 45.2182 53.5345 41.7294C53.354 37.6993 55.3993 34.6316 59.0087 33.3684C62.5579 32.2255 66.7688 33.2481 68.5735 35.8346Z" fill="#232323"/>
<path id="Vector_14" d="M148.821 33.3081C150.085 33.3081 151.228 33.3081 152.431 33.3081C152.431 37.5187 152.431 41.7293 152.431 46C155.078 46 157.664 46 160.311 46C160.311 47.0827 160.311 48.0451 160.311 49.0075C156.461 49.0075 152.671 49.0075 148.821 49.0075C148.821 43.7744 148.821 38.5413 148.821 33.3081Z" fill="#232323"/>
<path id="Vector_15" d="M40.4199 33.248C41.6832 33.248 42.8262 33.248 44.0293 33.248C44.0293 38.4812 44.0293 43.7143 44.0293 48.9475C42.8262 48.9475 41.6832 48.9475 40.4199 48.9475C40.4199 43.7745 40.4199 38.5413 40.4199 33.248Z" fill="#232323"/>
</g>
</g>
<defs>
<clipPath id="clip0_225_1421">
<rect width="202" height="116" fill="white"/>
</clipPath>
</defs>
</svg>
