<svg width="202" height="116" viewBox="0 0 202 116" fill="none" xmlns="http://www.w3.org/2000/svg">
<g id="Frame" clip-path="url(#clip0_225_1445)">
<g id="Group">
<path id="Vector" d="M202 59.7737C201.36 62.5652 198.743 63.0887 196.358 62.9142C194.73 62.7397 193.276 62.2745 191.88 61.2276C192.171 60.646 192.462 60.1226 192.752 59.4829C194.265 60.4716 195.777 61.1695 197.522 61.0531C197.929 60.995 198.394 60.9368 198.801 60.7624C199.906 60.2389 200.023 58.9013 198.976 58.2616C198.278 57.8544 197.464 57.6218 196.707 57.3892C195.951 57.1565 195.195 56.9821 194.497 56.6913C193.218 56.226 192.345 55.47 192.287 53.9579C192.229 52.3876 192.81 51.2244 194.206 50.4684C196.242 49.3634 199.267 49.7123 201.302 51.3408C201.011 51.8642 200.779 52.3294 200.546 52.7365C199.383 52.3876 198.336 51.9223 197.231 51.7479C196.649 51.6315 195.951 51.7479 195.486 51.9805C195.021 52.2131 194.555 52.8529 194.555 53.3181C194.555 53.7834 195.021 54.4813 195.428 54.7139C196.475 55.1792 197.58 55.4118 198.685 55.7608C200.197 56.1679 201.477 56.9239 201.942 58.5523C202 58.9594 202 59.3666 202 59.7737Z" fill="#232323"/>
<path id="Vector_2" d="M29.5468 87.457C19.7754 77.6865 9.88771 67.7996 0 57.9128C9.82955 48.1422 19.7754 38.3135 29.605 28.543C39.3182 38.2554 49.2059 48.1422 59.0354 57.9128C49.264 67.7996 39.3763 77.6865 29.5468 87.457ZM29.5468 84.2002C38.3294 75.4183 47.112 66.6946 55.7201 58.0872C46.9957 49.3635 38.2131 40.5817 29.5468 31.9161C20.8805 40.5817 12.0979 49.3635 3.37346 58.0291C12.0979 66.6946 20.8805 75.4765 29.5468 84.2002Z" fill="#232323"/>
<path id="Vector_3" d="M103.123 62.7983C103.123 58.4946 103.123 54.249 103.123 50.0616C104.17 49.7709 104.868 50.0035 105.508 50.8759C107.543 53.5511 109.637 56.1682 111.906 58.7853C111.906 55.8774 111.906 52.9696 111.906 50.0035C112.662 50.0035 113.243 50.0035 113.941 50.0035C113.941 54.249 113.941 58.4946 113.941 62.7983C112.953 63.0309 112.138 62.9146 111.44 61.9259C109.695 59.5414 107.834 57.3314 106.031 55.0051C105.799 54.7143 105.566 54.4817 105.159 53.9582C105.159 57.0406 105.159 59.8904 105.159 62.7401C104.461 62.7983 103.821 62.7983 103.123 62.7983Z" fill="#232323"/>
<path id="Vector_4" d="M184.261 58.7852C184.261 55.8773 184.261 52.9694 184.261 50.0034C184.959 50.0034 185.54 50.0034 186.238 50.0034C186.238 54.2489 186.238 58.4944 186.238 62.74C185.191 63.0308 184.377 62.7981 183.679 61.8094C181.934 59.425 180.015 57.1568 178.212 54.8305C178.037 54.5978 177.805 54.4234 177.456 54.0163C177.456 57.0405 177.456 59.8321 177.456 62.74C176.7 62.74 176.118 62.74 175.42 62.74C175.42 58.5526 175.42 54.3071 175.42 50.0034C176.409 49.7707 177.107 49.8871 177.746 50.7594C179.782 53.4928 181.934 56.11 184.028 58.7852C184.086 58.8434 184.203 58.7852 184.261 58.7852Z" fill="#232323"/>
<path id="Vector_5" d="M80.1487 58.0874C81.0793 59.5995 82.01 61.1116 82.9406 62.6819C81.312 63.2053 80.7885 63.0309 79.9742 61.7514C79.6834 61.3443 79.3926 60.9372 79.2181 60.4719C78.462 58.5527 77.0661 58.0293 75.0304 58.6109C75.0304 59.9485 75.0304 61.3443 75.0304 62.8564C74.2743 62.8564 73.6926 62.8564 72.9947 62.8564C72.9947 62.5656 72.9365 62.333 72.9365 62.0422C72.9365 58.3201 72.9365 54.6561 72.9365 50.934C72.9365 50.1779 73.1692 49.9453 73.9253 49.9453C75.3212 50.0035 76.7753 49.9453 78.1712 49.9453C80.3232 49.9453 81.8936 51.1085 82.4753 53.0858C82.9987 55.0051 82.2426 56.7498 80.4396 57.8548C80.2651 57.8548 80.2651 57.9711 80.1487 58.0874ZM75.0304 56.5753C75.4375 56.5753 75.7283 56.5753 76.0192 56.5753C76.8334 56.5753 77.6477 56.6335 78.462 56.5753C79.5671 56.5172 80.3814 55.5866 80.4396 54.3072C80.4977 53.144 79.7416 51.9808 78.6947 51.9227C77.5314 51.8064 76.31 51.9227 75.0304 51.9227C75.0304 53.4348 75.0304 54.9469 75.0304 56.5753Z" fill="#232323"/>
<path id="Vector_6" d="M88.582 62.7982C88.582 58.4945 88.582 54.3071 88.582 50.0034C91.4902 50.0034 94.282 50.0034 97.1902 50.0034C97.1902 50.585 97.1902 51.1084 97.1902 51.8063C95.0381 51.8063 92.8861 51.8063 90.6759 51.8063C90.6759 53.0276 90.6759 54.1908 90.6759 55.4121C92.5371 55.4121 94.3402 55.4121 96.2596 55.4121C96.2596 56.0518 96.2596 56.5171 96.2596 57.1568C94.3983 57.1568 92.5371 57.1568 90.6759 57.1568C90.6759 58.4945 90.6759 59.7158 90.6759 60.9953C92.8861 60.9953 95.0963 60.9953 97.3646 60.9953C97.3646 61.635 97.3646 62.1584 97.3646 62.7982C94.3983 62.7982 91.5483 62.7982 88.582 62.7982Z" fill="#232323"/>
<path id="Vector_7" d="M144.012 61.2278C144.361 60.588 144.652 60.0646 144.942 59.483C146.455 60.4717 148.025 61.1696 149.828 60.9952C150.235 60.937 150.642 60.8788 150.991 60.7625C152.096 60.2391 152.213 58.9015 151.166 58.2617C150.468 57.8546 149.712 57.6801 148.897 57.3894C148.141 57.1567 147.385 56.9823 146.687 56.6915C145.466 56.2262 144.593 55.5283 144.477 54.0744C144.361 52.6204 144.826 51.3991 146.106 50.5849C148.141 49.3054 151.631 49.5962 153.492 51.3409C153.201 51.8062 152.969 52.3296 152.678 52.7367C151.747 52.3878 150.933 51.9807 150.002 51.748C149.363 51.5736 148.607 51.6899 147.909 51.8062C147.153 51.9225 146.687 52.4459 146.571 53.2601C146.513 54.1325 146.978 54.5978 147.734 54.8304C149.014 55.2375 150.293 55.5283 151.573 55.9936C153.318 56.6333 154.016 57.6802 153.958 59.3086C153.899 60.937 153.085 62.042 151.515 62.5073C148.956 63.4378 146.455 62.8562 144.012 61.2278Z" fill="#232323"/>
<path id="Vector_8" d="M170.068 62.7401C169.894 62.7983 169.778 62.8564 169.661 62.8564C167.975 62.9728 167.975 62.9728 167.393 61.3443C166.695 59.367 166.695 59.367 164.543 59.367C163.554 59.367 162.391 59.0762 161.693 59.5414C161.053 59.9485 160.879 61.1699 160.588 62.0422C160.123 63.4962 159.018 62.5656 158.087 62.9146C158.261 62.3912 158.378 62.0422 158.494 61.7514C159.948 58.0875 161.402 54.4235 162.798 50.7596C163.089 50.0617 163.438 49.8872 164.136 49.8872C164.834 49.8872 165.183 50.1198 165.474 50.8177C166.87 54.4817 168.265 58.0875 169.72 61.7514C169.836 62.0422 169.952 62.333 170.068 62.7401ZM164.252 52.6788C164.136 52.6788 164.078 52.6788 163.961 52.6788C163.38 54.3654 162.74 55.9938 162.158 57.7385C163.496 57.7385 164.718 57.7385 166.055 57.7385C165.474 55.9938 164.892 54.3072 164.252 52.6788Z" fill="#232323"/>
<path id="Vector_9" d="M131.216 62.7397C131.041 62.7979 131.041 62.856 130.983 62.856C129.122 62.9723 129.122 62.9723 128.482 61.2276C127.842 59.3665 127.842 59.3665 125.865 59.3665C124.876 59.3665 123.596 59.0176 122.899 59.4828C122.201 59.9481 122.142 61.2276 121.677 62.1581C121.503 62.4489 121.095 62.6815 120.746 62.7979C120.339 62.9142 119.874 62.7979 119.351 62.7979C119.467 62.4489 119.525 62.1581 119.641 61.8673C121.095 58.1452 122.55 54.4813 123.945 50.7591C124.236 50.0612 124.585 49.8286 125.341 49.8286C126.097 49.8286 126.388 50.1194 126.621 50.7591C128.017 54.4231 129.471 58.0871 130.867 61.751C131.041 62.1581 131.1 62.4489 131.216 62.7397ZM127.261 57.7381C126.621 55.9934 126.039 54.3068 125.4 52.6202C125.341 52.6202 125.225 52.6202 125.167 52.6202C124.585 54.3068 123.945 55.9934 123.306 57.7381C124.702 57.7381 125.923 57.7381 127.261 57.7381Z" fill="#232323"/>
<path id="Vector_10" d="M138.428 62.7982C137.73 62.7982 137.149 62.7982 136.509 62.7982C136.509 58.5526 136.509 54.3071 136.509 50.0034C137.149 50.0034 137.788 50.0034 138.428 50.0034C138.428 54.249 138.428 58.4945 138.428 62.7982Z" fill="#232323"/>
<path id="Vector_11" d="M29.6052 36.9761C36.5848 43.955 43.6225 50.9922 50.6021 57.9711C43.6225 64.9501 36.5848 71.9872 29.6052 78.9662C22.6257 71.9872 15.588 64.9501 8.6084 57.9711C15.5298 50.9922 22.6257 43.955 29.6052 36.9761ZM29.6634 40.2329C23.7308 46.165 17.74 52.1553 11.8655 58.0293C17.74 63.9032 23.7308 69.8354 29.4889 75.6511C35.4215 69.719 41.3542 63.7869 47.2868 57.8548C41.4705 52.039 35.5379 46.1069 29.6634 40.2329Z" fill="#232323"/>
<path id="Vector_12" d="M29.5467 70.7075C25.359 66.5201 21.0549 62.2164 16.8672 58.0872C21.1131 53.8417 25.359 49.5961 29.6049 45.3506C33.7344 49.4798 38.0385 53.7835 42.2844 57.9709C38.0967 62.1582 33.7926 66.4619 29.5467 70.7075ZM38.911 57.9709C35.8283 54.8885 32.6294 51.6898 29.5467 48.6074C26.4641 51.6898 23.2651 54.8885 20.1243 57.9709C23.2651 61.1114 26.4059 64.2519 29.5467 67.3343C32.6294 64.2519 35.8283 61.0532 38.911 57.9709Z" fill="#232323"/>
<path id="Vector_13" d="M29.6051 52.9111C31.2337 54.5979 32.9786 56.3427 34.6653 57.9713C33.0367 59.5999 31.2918 61.3448 29.6051 62.9733C27.9765 61.3448 26.2316 59.5999 24.5449 57.9131C26.1735 56.3427 27.9184 54.5979 29.6051 52.9111ZM29.5469 55.9356C28.849 56.6336 28.2092 57.2733 27.5694 57.9131C28.2092 58.6111 28.849 59.2509 29.4306 59.8325C30.1867 59.1927 30.8265 58.5529 31.5245 57.9713C30.8847 57.2733 30.2449 56.6336 29.5469 55.9356Z" fill="#232323"/>
</g>
</g>
<defs>
<clipPath id="clip0_225_1445">
<rect width="202" height="116" fill="white"/>
</clipPath>
</defs>
</svg>
